<svg width="311" height="63" fill="none" xmlns="http://www.w3.org/2000/svg"><path d="M57.035 0h26.872c6.197 0 9.323 2.467 9.323 7.459v7.567c0 4.496-2.523 6.855-7.403 7.458l9.048 13.712H83.03l-9.049-13.712h-5.978v13.712H57.035V0zm23.308 15.903c1.26 0 1.92-.494 1.92-1.535V8.116c0-1.042-.659-1.536-1.92-1.536h-12.34v9.323h12.34zM105.844 0h10.968v36.194h-10.968V0zm36.085 17.768L127.233 0h12.229l8.609 10.365L156.681 0h12.229l-14.696 17.768 15.245 18.426H157.23l-9.159-11.023-9.158 11.023h-12.229l15.245-18.426zM179.331 0h35.097v6.58h-24.129v7.404h21.388v6.58h-21.388v9.05h24.129v6.58h-35.097V0zm46.615 29.613h23.307c1.261 0 1.919-.493 1.919-1.535v-5.977c0-1.042-.658-1.536-1.919-1.536h-13.984c-6.196 0-9.323-2.467-9.323-7.459V7.46c0-4.991 3.127-7.459 9.323-7.459h24.13v6.58h-20.565c-1.26 0-1.919.494-1.919 1.536v4.332c0 1.042.659 1.536 1.919 1.536h13.984c6.197 0 9.323 2.467 9.323 7.458v7.294c0 4.99-3.126 7.458-9.323 7.458h-26.872v-6.58zm48.261 0h23.307c1.26 0 1.92-.493 1.92-1.535v-5.977c0-1.042-.659-1.536-1.92-1.536H283.53c-6.196 0-9.322-2.467-9.322-7.459V7.46c0-4.991 3.126-7.459 9.322-7.459h24.131v6.58h-20.566c-1.261 0-1.919.494-1.919 1.536v4.332c0 1.042.658 1.536 1.919 1.536h13.984c6.197 0 9.323 2.467 9.323 7.458v7.294c0 4.99-3.126 7.458-9.323 7.458h-26.871v-6.58h-.001zM31.828.8l-5.789 12.053 5.007 10.424H21.032l-3.16 6.581h16.334l3.043 6.337h11.58L31.828.8z" fill="#222"/><path d="M17.383 0h11.578L11.578 36.194H0L17.383 0z" fill="#F25A3D"/><path d="M105.844 47.377h9.162v1.304h-7.732v4.327h6.917v1.305h-6.917v4.435h7.824v1.303h-9.253l-.001-12.674zm11.903 3.313h1.394v1.63c.615-1.014 1.594-1.828 3.205-1.828 2.264 0 3.585 1.522 3.585 3.748v5.813h-1.394v-5.469c0-1.738-.942-2.824-2.589-2.824-1.612 0-2.806 1.177-2.806 2.934v5.359h-1.394l-.001-9.362zm11.051 10.992l.634-1.086c1.068.777 2.264 1.194 3.603 1.194 2.063 0 3.403-1.14 3.403-3.33v-1.105c-.813 1.086-1.953 1.975-3.674 1.975-2.246 0-4.4-1.684-4.4-4.42 0-2.734 2.173-4.419 4.4-4.419 1.756 0 2.897.87 3.657 1.885V50.69h1.396v7.732c0 1.448-.434 2.554-1.196 3.314-.833.833-2.081 1.249-3.566 1.249-1.56 0-3.008-.434-4.257-1.304zm7.678-6.79c0-1.92-1.667-3.17-3.441-3.17-1.774 0-3.241 1.232-3.241 3.187 0 1.883 1.502 3.186 3.241 3.186 1.774.001 3.441-1.285 3.441-3.204zm4.497-7.786h1.593v1.538h-1.593v-1.538zm.09 3.585h1.395v9.361h-1.395v-9.361zm4.638-.001h1.395v1.63c.615-1.014 1.594-1.828 3.206-1.828 2.264 0 3.584 1.522 3.584 3.748v5.813h-1.392v-5.469c0-1.738-.943-2.824-2.591-2.824-1.612 0-2.806 1.177-2.806 2.934v5.359h-1.395l-.001-9.362zm15.288 8.366c1.286 0 2.191-.524 2.953-1.322l.87.778c-.942 1.05-2.085 1.757-3.857 1.757-2.572 0-4.673-1.975-4.673-4.89 0-2.716 1.902-4.889 4.492-4.889 2.77 0 4.364 2.21 4.364 4.961 0 .128 0 .274-.019.49h-7.425c.199 1.975 1.647 3.115 3.295 3.115zm2.735-4.237c-.164-1.702-1.142-3.15-2.989-3.15-1.611 0-2.842 1.339-3.042 3.15h6.031zm7.991 4.237c1.286 0 2.192-.524 2.953-1.322l.87.778c-.942 1.05-2.083 1.757-3.857 1.757-2.572 0-4.671-1.975-4.671-4.89 0-2.716 1.9-4.889 4.49-4.889 2.77 0 4.364 2.21 4.364 4.961 0 .128 0 .274-.019.49h-7.424c.199 1.975 1.647 3.115 3.294 3.115zm2.736-4.237c-.165-1.702-1.143-3.15-2.99-3.15-1.611 0-2.841 1.339-3.041 3.15h6.031zm3.861-4.129h1.395v2.445c.688-1.557 2.046-2.68 3.819-2.607v1.503h-.11c-2.044 0-3.709 1.465-3.709 4.29v3.731h-1.395v-9.361zm7.375-3.584h1.593v1.538h-1.593v-1.538zm.09 3.585h1.394v9.361h-1.394v-9.361zm4.636-.001h1.396v1.63c.614-1.014 1.593-1.828 3.205-1.828 2.264 0 3.585 1.522 3.585 3.748v5.813h-1.393v-5.469c0-1.738-.943-2.824-2.591-2.824-1.611 0-2.805 1.177-2.805 2.934v5.359h-1.396v-9.362h-.001zm11.054 10.992l.633-1.086c1.068.777 2.262 1.194 3.603 1.194 2.064 0 3.404-1.14 3.404-3.33v-1.105c-.814 1.086-1.954 1.975-3.675 1.975-2.246 0-4.399-1.684-4.399-4.42 0-2.734 2.171-4.419 4.399-4.419 1.755 0 2.898.87 3.658 1.885V50.69h1.396v7.732c0 1.448-.435 2.554-1.197 3.314-.832.833-2.081 1.249-3.566 1.249-1.559 0-3.007-.434-4.256-1.304zm7.677-6.79c0-1.92-1.665-3.17-3.441-3.17-1.774 0-3.241 1.232-3.241 3.187 0 1.883 1.501 3.186 3.241 3.186 1.776.001 3.441-1.285 3.441-3.204zm10.385 2.68v-5.65h-1.304V50.69h1.304v-2.826h1.393v2.826h2.971v1.23h-2.971v5.47c0 1.141.634 1.558 1.575 1.558.471 0 .87-.091 1.358-.325v1.194a3.504 3.504 0 01-1.684.397c-1.502 0-2.642-.743-2.642-2.643zm6.828-10.738h1.396v5.486c.615-1.014 1.593-1.829 3.204-1.829 2.263 0 3.585 1.522 3.585 3.748v5.813h-1.394v-5.468c0-1.739-.942-2.825-2.59-2.825-1.611 0-2.805 1.177-2.805 2.934v5.36h-1.395v-13.22h-.001zm15.29 12.222c1.286 0 2.192-.524 2.952-1.322l.871.778c-.942 1.05-2.085 1.757-3.857 1.757-2.572 0-4.673-1.975-4.673-4.89 0-2.716 1.902-4.889 4.492-4.889 2.77 0 4.364 2.21 4.364 4.961 0 .128 0 .274-.019.49h-7.425c.198 1.975 1.648 3.115 3.295 3.115zm2.735-4.237c-.164-1.702-1.142-3.15-2.989-3.15-1.612 0-2.843 1.339-3.042 3.15h6.031zm9.532-7.442h9.107v1.322h-7.677v4.528h6.864v1.303h-6.864v5.522h-1.43V47.377zm11.504 9.126V50.69h1.395v5.47c0 1.737.941 2.824 2.59 2.824 1.594 0 2.804-1.178 2.804-2.934v-5.36h1.377v9.361h-1.377v-1.63c-.632 1.014-1.593 1.829-3.205 1.829-2.263.002-3.584-1.519-3.584-3.747zm11.795 1.069v-5.65h-1.302V50.69h1.302v-2.826h1.395v2.826h2.97v1.23h-2.97v5.47c0 1.141.633 1.558 1.576 1.558.47 0 .867-.091 1.357-.325v1.194a3.506 3.506 0 01-1.683.397c-1.505 0-2.645-.743-2.645-2.643zm6.685-1.069V50.69h1.395v5.47c0 1.737.94 2.824 2.589 2.824 1.594 0 2.805-1.178 2.805-2.934v-5.36h1.377v9.361h-1.377v-1.63c-.632 1.014-1.592 1.829-3.203 1.829-2.266.002-3.586-1.519-3.586-3.747zm11.305-5.813h1.394v2.445c.688-1.557 2.047-2.68 3.82-2.607v1.503h-.108c-2.046 0-3.712 1.465-3.712 4.29v3.731h-1.394v-9.361zm11.067 8.366c1.286 0 2.191-.524 2.952-1.322l.871.778c-.942 1.05-2.084 1.757-3.857 1.757-2.572 0-4.673-1.975-4.673-4.89 0-2.716 1.903-4.889 4.492-4.889 2.769 0 4.364 2.21 4.364 4.961 0 .128 0 .274-.019.49h-7.424c.199 1.975 1.647 3.115 3.294 3.115zm2.737-4.237c-.166-1.702-1.143-3.15-2.991-3.15-1.61 0-2.841 1.339-3.041 3.15h6.032z" fill="#222"/></svg>