<svg width="171" height="57" fill="none" xmlns="http://www.w3.org/2000/svg"><path d="M32.05 34.208a5.793 5.793 0 100-11.586 5.793 5.793 0 000 11.586z" fill="#00D8FF"/><path clip-rule="evenodd" d="M32.05 16.638c7.778 0 15.003 1.116 20.45 2.991 6.564 2.26 10.6 5.685 10.6 8.786 0 3.232-4.278 6.87-11.326 9.206-5.329 1.766-12.341 2.687-19.724 2.687-7.57 0-14.737-.865-20.126-2.706C5.106 35.272 1 31.586 1 28.415c0-3.076 3.853-6.475 10.325-8.73 5.467-1.907 12.87-3.047 20.724-3.047h.001z" stroke="#00D8FF" stroke-width="1.663"/><path clip-rule="evenodd" d="M21.797 22.56c3.886-6.737 8.462-12.438 12.808-16.22C39.84 1.783 44.825-.002 47.51 1.547c2.8 1.615 3.815 7.138 2.317 14.41-1.131 5.498-3.837 12.033-7.526 18.428-3.781 6.558-8.111 12.335-12.398 16.082-5.425 4.742-10.67 6.458-13.416 4.874-2.664-1.536-3.684-6.572-2.405-13.306 1.08-5.689 3.79-12.671 7.713-19.475h.001z" stroke="#00D8FF" stroke-width="1.663"/><path clip-rule="evenodd" d="M21.807 34.403c-3.896-6.73-6.55-13.543-7.656-19.197-1.333-6.813-.39-12.021 2.293-13.575 2.797-1.62 8.09.259 13.641 5.189 4.198 3.727 8.509 9.334 12.208 15.723 3.792 6.551 6.635 13.188 7.74 18.773 1.4 7.068.267 12.469-2.477 14.057-2.662 1.541-7.534-.09-12.729-4.56-4.389-3.778-9.085-9.614-13.02-16.41v0z" stroke="#00D8FF" stroke-width="1.663"/><path fill-rule="evenodd" clip-rule="evenodd" d="M96.35 43.215l-7.1-10.727c3.588-.316 6.821-2.916 6.821-7.666 0-4.834-3.43-7.927-8.242-7.927H77.263v26.3h3.273v-10.45h5.245l6.703 10.45 3.865.02zm-8.912-13.328h-6.9V19.832h6.9c3.116 0 5.245 2.05 5.245 5.008s-2.13 5.05-5.245 5.05v-.003zm21.096 13.8c3.117 0 5.679-1.025 7.572-2.917l-1.42-1.933c-1.5 1.538-3.707 2.405-5.875 2.405-4.1 0-6.625-2.997-6.862-6.584h15.417v-.75c0-5.716-3.392-10.213-9.15-10.213-5.442 0-9.383 4.457-9.383 9.977 0 5.955 4.061 10 9.7 10l.001.015zm5.917-11.2h-12.5c.158-2.917 2.167-6.35 6.23-6.35 4.338 0 6.23 3.51 6.27 6.35zm22.557 10.726V30.122c0-4.614-3.35-6.429-7.374-6.429-3.116 0-5.56 1.025-7.61 3.155l1.38 2.05c1.695-1.813 3.55-2.641 5.837-2.641 2.76 0 4.812 1.458 4.812 4.021v3.43c-1.539-1.775-3.707-2.603-6.31-2.603-3.234 0-6.667 2.012-6.667 6.27 0 4.14 3.43 6.31 6.667 6.31 2.563 0 4.733-.907 6.31-2.642v2.167l2.955.003zm-8.2-1.656c-2.76 0-4.694-1.734-4.694-4.14 0-2.445 1.934-4.18 4.694-4.18 2.09 0 4.1.788 5.245 2.366v3.589c-1.144 1.576-3.155 2.365-5.245 2.365zm22.5 2.13c3.47 0 5.52-1.42 6.98-3.312l-1.972-1.813c-1.262 1.695-2.878 2.483-4.833 2.483-4.062 0-6.584-3.155-6.584-7.373 0-4.219 2.524-7.334 6.584-7.334 1.971 0 3.588.75 4.833 2.484l1.972-1.814c-1.459-1.893-3.51-3.311-6.98-3.311-5.679 0-9.504 4.338-9.504 9.976 0 5.679 3.825 10 9.504 10v.014zm15.933 0c1.733 0 2.8-.514 3.55-1.222l-.867-2.208c-.395.433-1.166.788-2.011.788-1.3 0-1.934-1.025-1.934-2.445V26.77h3.867v-2.602h-3.867v-5.205h-2.958v5.205h-3.155v2.604h3.155v12.461c0 2.84 1.42 4.457 4.22 4.457v-.003z" fill="#00D8FF"/></svg>