<svg width="160" height="95" fill="none" xmlns="http://www.w3.org/2000/svg"><path d="M22.425 73.012s-3.608 2.098 2.567 2.808c7.482.854 11.305.731 19.55-.83 0 0 2.167 1.36 5.194 2.537-18.482 7.921-41.828-.459-27.311-4.515zm-2.259-10.337S16.12 65.671 22.3 66.31c7.991.824 14.303.892 25.223-1.211 0 0 1.511 1.531 3.886 2.369-22.345 6.534-47.234.515-31.243-4.793z" fill="#5382A1"/><path d="M39.205 45.142c4.554 5.243-1.196 9.961-1.196 9.961s11.563-5.969 6.252-13.444c-4.96-6.97-8.763-10.434 11.828-22.376 0 0-32.32 8.072-16.884 25.86z" fill="#F8981D"/><path d="M63.649 80.657s2.67 2.2-2.94 3.902c-10.669 3.232-44.401 4.208-53.772.129-3.369-1.466 2.948-3.5 4.935-3.926 2.073-.45 3.257-.366 3.257-.366-3.746-2.639-24.214 5.182-10.397 7.422 37.682 6.111 68.691-2.752 58.917-7.16zM24.16 51.967S7 56.042 18.083 57.522c4.68.627 14.008.485 22.697-.243 7.1-.6 14.231-1.873 14.231-1.873s-2.504 1.072-4.315 2.31C33.27 62.297-.39 60.165 9.3 55.478c8.195-3.962 14.859-3.512 14.859-3.512zm30.78 17.205c17.713-9.205 9.523-18.05 3.807-16.858-1.4.291-2.026.544-2.026.544s.52-.815 1.514-1.167c11.309-3.976 20.006 11.726-3.65 17.944 0 0 .273-.244.355-.463z" fill="#5382A1"/><path d="M44.261 0s9.81 9.813-9.304 24.902c-15.327 12.105-3.495 19.006-.006 26.892-8.947-8.072-15.512-15.178-11.108-21.792C30.31 20.294 48.22 15.587 44.261 0z" fill="#F8981D"/><path d="M25.9 94.113c17.002 1.088 43.11-.604 43.729-8.65 0 0-1.189 3.05-14.051 5.473-14.512 2.73-32.41 2.412-43.025.661 0 0 2.173 1.799 13.347 2.516zm130.983-44.48h-.519v-.29h1.396v.29h-.515v1.448h-.362v-1.448zm2.784.076h-.008l-.514 1.372h-.235l-.511-1.372h-.006v1.372h-.341v-1.738h.502l.473 1.23.472-1.23H160v1.738h-.333v-1.372zm-48.515 16.236c-1.604 1.391-3.298 2.172-4.818 2.172-2.17 0-3.343-1.301-3.343-3.388 0-2.257 1.256-3.908 6.296-3.908h1.864l.001 5.124zm4.425 4.993V55.482c0-3.949-2.252-6.554-7.682-6.554-3.169 0-5.946.783-8.203 1.78l.651 2.737c1.777-.653 4.078-1.26 6.335-1.26 3.128 0 4.474 1.26 4.474 3.863v1.954h-1.562c-7.599 0-11.027 2.95-11.027 7.378 0 3.821 2.259 5.993 6.512 5.993 2.735 0 4.776-1.129 6.684-2.78l.346 2.346h3.472zm14.77.001h-5.52l-6.643-21.62h4.821l4.122 13.283.916 3.995c2.085-5.776 3.56-11.635 4.298-17.278h4.689c-1.256 7.12-3.517 14.934-6.683 21.62zm21.175-4.994c-1.607 1.391-3.304 2.172-4.824 2.172-2.166 0-3.342-1.301-3.342-3.388 0-2.257 1.26-3.908 6.298-3.908h1.868v5.124zm4.425 4.993V55.482c0-3.949-2.258-6.554-7.681-6.554-3.172 0-5.95.783-8.206 1.78l.651 2.737c1.777-.653 4.082-1.26 6.338-1.26 3.125 0 4.473 1.26 4.473 3.863v1.954h-1.564c-7.602 0-11.028 2.95-11.028 7.378 0 3.821 2.257 5.993 6.51 5.993 2.736 0 4.776-1.129 6.687-2.78l.348 2.346h3.472zM93.71 74.61c-1.262 1.842-3.3 3.299-5.53 4.124l-2.185-2.572c1.698-.871 3.154-2.278 3.83-3.59.586-1.165.828-2.667.828-6.26V41.63h4.702v24.344c0 4.803-.384 6.743-1.645 8.636z" fill="#5382A1"/></svg>