<svg width="158" height="50" fill="none" xmlns="http://www.w3.org/2000/svg"><g clip-path="url(#clip0_1512_94)"><path d="M49.078 13.595a67.795 67.795 0 00-.022-1.482c-.028-1.074-.092-2.16-.283-3.223a10.871 10.871 0 00-1.01-3.065 10.3 10.3 0 00-4.506-4.506 10.88 10.88 0 00-3.064-1.01C39.13.118 38.044.054 36.968.025a70.84 70.84 0 00-1.48-.022C34.9 0 34.314 0 33.727 0H15.354c-.586 0-1.172 0-1.758.003-.494.003-.988.01-1.481.022a38.45 38.45 0 00-.808.03A18.71 18.71 0 008.889.31c-.81.146-1.577.36-2.323.669a10.33 10.33 0 00-3.35 2.237 10.297 10.297 0 00-1.897 2.61A10.825 10.825 0 00.31 8.89C.12 9.954.056 11.038.027 12.113c-.014.495-.02.988-.023 1.482C0 14.18 0 14.767 0 15.353v18.375c0 .587 0 1.173.003 1.76.003.493.01.986.023 1.48.029 1.075.092 2.16.283 3.223a10.86 10.86 0 001.01 3.066 10.296 10.296 0 004.506 4.506c.98.5 1.985.816 3.064 1.01 1.064.191 2.15.255 3.225.283.493.014.987.02 1.481.022.586.005 1.172.004 1.758.004H33.73c.586 0 1.172 0 1.758-.004a66.49 66.49 0 001.481-.022c1.076-.028 2.16-.092 3.225-.283a10.88 10.88 0 003.064-1.01 10.3 10.3 0 004.506-4.506c.5-.98.816-1.986 1.01-3.066.191-1.063.255-2.148.283-3.223.014-.494.02-.987.022-1.48.004-.587.004-1.173.004-1.76V15.353c0-.586 0-1.172-.004-1.758z" fill="#F05138"/><path d="M38.892 30.297l-.004-.004c.055-.185.11-.368.158-.558 2.038-8.116-2.934-17.711-11.348-22.764 3.687 4.998 5.317 11.052 3.869 16.346-.13.473-.285.926-.456 1.366a11.265 11.265 0 00-.736-.435s-8.37-5.167-17.44-14.307c-.238-.24 4.837 7.254 10.596 13.338-2.713-1.523-10.275-7.024-15.063-11.406a21.83 21.83 0 002.057 2.835c3.998 5.07 9.211 11.325 15.458 16.129-4.389 2.686-10.59 2.894-16.764.003a25.324 25.324 0 01-4.292-2.56 25.706 25.706 0 0011.538 9.892c5.842 2.51 11.652 2.34 15.979.041l-.003.005.065-.039c.178-.095.354-.192.526-.295 2.08-1.08 6.186-2.174 8.39 2.115.54 1.05 1.687-4.513-2.53-9.702z" fill="#fff"/><path d="M67.71 31.852c.383 3.405 3.63 5.638 8.14 5.638 4.286 0 7.376-2.233 7.376-5.322 0-2.661-1.872-4.286-6.18-5.368l-4.172-1.06c-6-1.488-8.706-4.195-8.706-8.66 0-5.503 4.804-9.314 11.638-9.314 6.63 0 11.344 3.834 11.502 9.36H82.91c-.339-3.384-3.09-5.459-7.217-5.459-4.082 0-6.924 2.098-6.924 5.165 0 2.39 1.76 3.811 6.09 4.916l3.473.902c6.72 1.647 9.472 4.263 9.472 8.977 0 5.999-4.76 9.765-12.337 9.765-7.036 0-11.84-3.744-12.2-9.54h4.442zm48.029 8.998h-4.42l-5.165-17.997h-.09l-5.142 17.997h-4.42l-6.54-23.568h4.284l4.556 18.922h.09l5.142-18.922h4.15l5.187 18.922h.091l4.555-18.922h4.24l-6.518 23.568zm9.372-29.905c0-1.42 1.173-2.57 2.594-2.57 1.444 0 2.616 1.15 2.616 2.57 0 1.421-1.172 2.594-2.616 2.594a2.609 2.609 0 01-2.594-2.594zm.452 6.337h4.307v23.569h-4.307V17.282zM158 20.756v-3.474h-4.556v-5.637h-4.285v5.637h-8.234v-2.074c.022-2.098.834-2.978 2.774-2.978.631 0 1.263.069 1.782.158V9.005a15.035 15.035 0 00-2.278-.18c-4.601 0-6.541 1.918-6.541 6.315v2.142h-3.292v3.474h3.292V40.85h4.285V20.756h8.212V34.67c0 4.556 1.737 6.314 6.247 6.314.97 0 2.075-.067 2.571-.18v-3.518c-.293.046-1.15.113-1.624.113-2.007 0-2.908-.947-2.908-3.067V20.756H158z" fill="#000"/></g><defs><clipPath id="clip0_1512_94"><path fill="#fff" d="M0 0h158v49.082H0z"/></clipPath></defs></svg>