<svg width="167" height="61" fill="none" xmlns="http://www.w3.org/2000/svg"><mask id="mask0_1512_101" style="mask-type:luminance" maskUnits="userSpaceOnUse" x="0" y="0" width="49" height="61"><path d="M48.931 27.96l-16.31 16.316 16.31 16.317H30.293L13.977 44.276 30.293 27.96h18.639zM30.293 0L0 30.293l9.322 9.322L48.932 0H30.293z" fill="#fff"/></mask><g mask="url(#mask0_1512_101)"><path d="M23.299 53.598L48.932 27.96H30.293l-16.31 16.316 9.316 9.322z" fill="#39CEFD"/></g><mask id="mask1_1512_101" style="mask-type:luminance" maskUnits="userSpaceOnUse" x="0" y="0" width="49" height="61"><path d="M48.931 27.96l-16.31 16.316 16.31 16.317H30.293L13.977 44.276 30.293 27.96h18.639zM30.293 0L0 30.293l9.322 9.322L48.932 0H30.293z" fill="#fff"/></mask><g mask="url(#mask1_1512_101)"><path d="M0 30.293L30.293 0h18.639L9.322 39.615 0 30.293z" fill="#39CEFD"/></g><mask id="mask2_1512_101" style="mask-type:luminance" maskUnits="userSpaceOnUse" x="0" y="0" width="49" height="61"><path d="M48.931 27.96l-16.31 16.316 16.31 16.317H30.293L13.977 44.276 30.293 27.96h18.639zM30.293 0L0 30.293l9.322 9.322L48.932 0H30.293z" fill="#fff"/></mask><g mask="url(#mask2_1512_101)"><path d="M30.294 60.587H48.93l-16.31-16.31-9.322 9.321 6.995 6.989z" fill="#03569B"/></g><mask id="mask3_1512_101" style="mask-type:luminance" maskUnits="userSpaceOnUse" x="0" y="0" width="49" height="61"><path d="M48.931 27.96l-16.31 16.316 16.31 16.317H30.293L13.977 44.276 30.293 27.96h18.639zM30.293 0L0 30.293l9.322 9.322L48.932 0H30.293z" fill="#fff"/></mask><g mask="url(#mask3_1512_101)"><path d="M32.621 44.276l-9.322 9.322 13.825-4.789-4.503-4.533z" fill="url(#paint0_linear_1512_101)"/></g><mask id="mask4_1512_101" style="mask-type:luminance" maskUnits="userSpaceOnUse" x="0" y="0" width="49" height="61"><path d="M48.931 27.96l-16.31 16.316 16.31 16.317H30.293L13.977 44.276 30.293 27.96h18.639zM30.293 0L0 30.293l9.322 9.322L48.932 0H30.293z" fill="#fff"/></mask><g mask="url(#mask4_1512_101)"><path d="M13.982 44.273l9.322-9.322 9.323 9.322-9.323 9.322-9.322-9.322z" fill="#16B9FD"/></g><path d="M48.931 27.96l-16.31 16.316 16.31 16.317H30.293L13.977 44.276 30.293 27.96h18.639zM30.293 0L0 30.293l9.322 9.322L48.932 0H30.293z" fill="url(#paint1_radial_1512_101)"/><path d="M54.849 16.242h16.29v3.186H58.154v9.639h11.721v3.146h-11.72v12.195h-3.306V16.242zm20.231 0h3.344V44.41H75.08V16.242zM90.656 45.04c-2.412 0-4.266-.708-5.56-2.125-1.25-1.425-1.876-3.405-1.876-5.94V24.347h3.344v12.116c0 1.904.433 3.306 1.299 4.208.865.901 2.032 1.352 3.5 1.352 1.129 0 2.13-.301 3.006-.904a5.773 5.773 0 002.044-2.36 6.64 6.64 0 00.747-3.068V24.36h3.342v20.062h-3.186v-2.925h-.158c-.55.997-1.43 1.836-2.635 2.517a7.718 7.718 0 01-3.856 1.022l-.01.003zm22.716-.315a6.51 6.51 0 01-2.282-.394 5.233 5.233 0 01-1.731-1.062 4.816 4.816 0 01-1.179-1.731c-.263-.655-.394-1.455-.394-2.4V27.376h-3.502v-3.03h3.502v-5.665h3.343v5.665h4.878v3.03h-4.878v10.937c0 1.102.211 1.915.632 2.439.497.577 1.219.866 2.164.866.761 0 1.495-.223 2.203-.67v3.266a5.14 5.14 0 01-1.221.394c-.393.08-.904.12-1.532.12l-.003-.003zm14.179 0a6.508 6.508 0 01-2.281-.394 5.233 5.233 0 01-1.731-1.062 4.831 4.831 0 01-1.18-1.731c-.262-.655-.393-1.455-.393-2.4V27.376h-3.502v-3.03h3.502v-5.665h3.343v5.665h4.878v3.03h-4.878v10.937c0 1.102.211 1.915.632 2.439.497.577 1.219.866 2.163.866.762 0 1.496-.223 2.203-.67v3.266c-.393.184-.8.315-1.22.394-.393.08-.904.12-1.533.12l-.003-.003zm14.727.315c-1.903 0-3.621-.46-5.154-1.377-1.521-.918-2.714-2.177-3.58-3.777-.839-1.626-1.259-3.449-1.259-5.47 0-1.94.393-3.723 1.18-5.35.813-1.625 1.954-2.924 3.423-3.894 1.469-.972 3.173-1.458 5.114-1.458 1.966 0 3.671.45 5.114 1.352 1.442.866 2.544 2.072 3.306 3.619.786 1.548 1.179 3.318 1.179 5.31 0 .394-.04.735-.12 1.023h-15.854c.08 1.52.448 2.806 1.102 3.856.655 1.048 1.481 1.835 2.479 2.359a6.888 6.888 0 003.186.787c2.571 0 4.551-1.206 5.94-3.618l2.833 1.376c-.865 1.626-2.046 2.912-3.54 3.856-1.469.944-3.252 1.416-5.35 1.416l.001-.01zm5.783-12.786c-.052-.84-.288-1.679-.706-2.517-.421-.84-1.09-1.548-2.006-2.125-.902-.577-2.029-.866-3.382-.866-1.573 0-2.91.511-4.012 1.533-1.075.997-1.783 2.321-2.125 3.973h12.235l-.004.002zm7.415-7.907h3.185v3.226h.158c.394-1.102 1.154-2.007 2.281-2.714 1.128-.734 2.309-1.102 3.541-1.102.917 0 1.704.132 2.359.394v3.619c-.839-.421-1.784-.631-2.833-.631a4.66 4.66 0 00-2.674.826c-.814.551-1.465 1.299-1.954 2.242a6.485 6.485 0 00-.706 3.006v11.21h-3.344V24.362l-.013-.015z" fill="gray"/><defs><radialGradient id="paint1_radial_1512_101" cx="0" cy="0" r="1" gradientUnits="userSpaceOnUse" gradientTransform="translate(1.375 4.13) scale(74.1277)"><stop stop-color="#fff" stop-opacity=".1"/><stop offset="1" stop-color="#fff" stop-opacity="0"/></radialGradient><linearGradient id="paint0_linear_1512_101" x1="26.02" y1="55.397" x2="32.962" y2="48.455" gradientUnits="userSpaceOnUse"><stop stop-color="#1A237E" stop-opacity=".4"/><stop offset="1" stop-color="#1A237E" stop-opacity="0"/></linearGradient></defs></svg>