<svg width="78" height="78" fill="none" xmlns="http://www.w3.org/2000/svg"><path d="M38.825 77.875C17.907 77.875.165 60.206 0 39.138A38.376 38.376 0 0111.21 11.76 39.016 39.016 0 0138.927 0a38.468 38.468 0 0127.308 11.342A38.504 38.504 0 0177.862 38.57c.096 21.518-17.204 39.073-38.737 39.292l-.3.014zm.108-75.808a36.986 36.986 0 00-26.259 11.158A36.35 36.35 0 002.026 39.147c.155 19.951 16.967 36.684 36.775 36.684h.264c20.419-.2 36.838-16.836 36.745-37.238a36.49 36.49 0 00-11.026-25.791A36.32 36.32 0 0038.948 2.053l-.015.014zM8.718 50.333V27.587h5.532v2.037h-2.935v18.71h2.935v2.038l-5.532-.039zm18.795-11.598c0 4.148-2.516 6.511-5.93 6.511-3.413 0-5.686-2.659-5.686-6.297 0-3.8 2.386-6.481 5.87-6.481 3.483 0 5.732 2.792 5.732 6.266l.014.001zm-9.231.183c0 2.516 1.262 4.514 3.433 4.514s3.414-2.038 3.414-4.605c0-2.334-1.152-4.534-3.414-4.534-2.262 0-3.455 2.129-3.455 4.68l.022-.055zm11.15-6.021a18.878 18.878 0 013.281-.276 5.857 5.857 0 013.547.784c.817.465 1.308 1.367 1.286 2.313A2.877 2.877 0 0135.51 38.4a3.114 3.114 0 012.494 3.057 3.207 3.207 0 01-1.191 2.547c-.877.775-2.334 1.152-4.587 1.152-.926.004-1.852-.05-2.772-.163l-.021-12.095zm2.242 4.88h1.151c1.559 0 2.436-.732 2.436-1.781 0-1.05-.877-1.692-2.314-1.692a5.91 5.91 0 00-1.286.093l.013 3.38zm0 5.687a9.86 9.86 0 001.191.051c1.447 0 2.73-.55 2.73-2.037 0-1.488-1.242-2.038-2.801-2.038h-1.12v4.024zm10.78-10.73h2.25v8.057c0 3.414-1.65 4.556-4.074 4.556a6.49 6.49 0 01-1.906-.31L39 43.224c.452.142.922.217 1.396.225 1.286 0 2.037-.59 2.037-2.73l.02-7.985zm8.676 6.694v1.559h-4.687v-1.56h4.687zm10.929 5.299c-1.013.404-2.1.59-3.189.55-3.923 0-6.306-2.456-6.306-6.216a6.212 6.212 0 016.602-6.531 7.127 7.127 0 013.057.55l-.499 1.792c-.767-.31-1.593-.49-2.425-.464-2.516 0-4.33 1.58-4.33 4.555 0 2.712 1.599 4.462 4.31 4.462a6.316 6.316 0 002.456-.458l.324 1.76zm7.089-17.202v22.808h-5.532v-2.038h2.935v-18.73H63.6v-2.04h5.547z" fill="#F1592A"/></svg>