<svg width="120" height="120" viewBox="0 0 120 120" fill="none" xmlns="http://www.w3.org/2000/svg">
<g clip-path="url(#clip0_1146_694)">
<path d="M15.3599 35.0999H35.5536C33.5474 42.5549 32.3999 51.0149 32.3999 59.9999H35.0999C35.0999 50.9624 36.2586 42.4762 38.2687 35.0999H58.6499V59.9999H61.3499V35.0999H81.7311C83.7411 42.4762 84.8999 50.9624 84.8999 59.9999H87.6037C87.6037 51.0149 86.4561 42.5549 84.4537 35.0999H104.644C108.776 42.4762 111.154 50.9624 111.154 59.9999H113.857C113.857 30.3074 89.6999 6.1499 60.0074 6.1499C30.3149 6.1499 6.1499 30.3074 6.1499 59.9999H8.8499C8.8499 50.9624 11.2274 42.4762 15.3599 35.0999ZM39.0674 32.3999C43.2711 18.9899 50.4337 9.8999 58.6499 8.98865V32.3999H39.0674ZM61.3499 32.3999V8.98865C69.5662 9.8999 76.7249 18.9899 80.9324 32.3999H61.3499ZM102.997 32.3999H83.6549C80.5162 22.2037 75.7124 14.2012 69.9636 9.8399C83.7974 12.5849 95.6099 20.9324 102.997 32.3999ZM50.0361 9.8399C44.2911 14.2012 39.4837 22.2037 36.3486 32.3999H17.0024C24.3899 20.9324 36.2024 12.5849 50.0361 9.8399ZM84.8999 71.2499V73.2749L71.2499 69.8999H60.9411C58.7961 69.8999 56.7261 70.6799 55.1174 72.0937L53.3399 73.6499H35.0999V71.2499C35.0999 70.5037 34.4962 69.8999 33.7499 69.8999H7.4999V72.6037H32.3999V103.65H7.4999V106.354H33.7499C34.4962 106.354 35.0999 105.75 35.0999 105.004V102.604H38.6774L46.7324 114.011C47.7374 115.132 49.1324 115.71 50.5387 115.71C51.5587 115.71 52.5824 115.406 53.4711 114.78L55.8824 113.085C56.0249 113.137 56.1374 113.242 56.2874 113.284C56.7262 113.396 57.1686 113.456 57.6074 113.456C58.4924 113.456 59.3661 113.224 60.1499 112.766L63.2699 110.966C63.8399 111.176 64.4286 111.322 65.0399 111.322C65.9024 111.322 66.7799 111.101 67.5824 110.64L70.7061 108.836C71.2761 109.046 71.8649 109.192 72.4762 109.192C73.3386 109.192 74.2199 108.971 75.0224 108.51C77.1299 107.291 77.9399 104.797 77.2462 102.6H84.9037V105C84.9037 105.746 85.5074 106.35 86.2536 106.35H112.504V103.65H87.6037V72.5999H112.5V69.8999H86.2499C85.5036 69.8999 84.8999 70.5037 84.8999 71.2499ZM73.6687 106.174C72.5249 106.834 71.0474 106.44 70.3874 105.296L64.7624 95.5537L62.4224 96.8999L68.3099 107.1L66.2324 108.296C65.0849 108.967 63.6149 108.566 62.9511 107.422L59.2011 100.927L58.2636 99.3037L55.9274 100.65L56.8649 102.27L60.6149 108.765L60.6224 108.772L60.8811 109.219L58.7999 110.419C58.2524 110.741 57.6074 110.824 56.9886 110.659C56.3699 110.494 55.8561 110.1 55.5336 109.552L51.7761 103.046L49.4361 104.392L53.1861 110.887L53.1936 110.899L53.5086 111.442L51.9186 112.564C50.9249 113.265 49.5636 113.107 48.8436 112.324L40.4811 100.466C40.2262 100.106 39.8174 99.8924 39.3787 99.8924H35.0999V76.3499H50.2499L43.1774 82.5374C42.6524 82.9912 42.3374 83.6512 42.3149 84.3411C42.2887 85.0349 42.5549 85.7137 43.0499 86.2049C46.2449 89.3999 51.3149 89.6774 54.8399 86.8574L58.6011 83.8462H64.7999L74.5462 102.889C75.2024 104.04 74.8087 105.514 73.6687 106.174ZM76.0387 99.8999L66.8249 81.8849C66.5924 81.4349 66.1274 81.1499 65.6249 81.1499H58.1249C57.8174 81.1499 57.5211 81.2549 57.2811 81.4462L53.1487 84.7537C50.6999 86.7112 47.1824 86.5237 44.9511 84.5737L56.8949 74.1224C58.0124 73.1399 59.4486 72.6037 60.9411 72.6037L70.9237 72.5624L84.8999 76.0574V99.8999H76.0387Z" fill="#F25A3D"/>
</g>
<defs>
<clipPath id="clip0_1146_694">
<rect width="120" height="120" fill="white"/>
</clipPath>
</defs>
</svg>
