<svg width="64" height="120" viewBox="0 0 64 120" fill="none" xmlns="http://www.w3.org/2000/svg">
<path fill-rule="evenodd" clip-rule="evenodd" d="M0 0H63.75V120H0V0ZM3.75 3.75V15H60V3.75H3.75ZM60 18.75H3.75V93.75H60V18.75ZM60 97.5H3.75V116.25H60V97.5ZM39.375 11.25H24.375V7.5H39.375V11.25ZM31.875 105C30.8395 105 30 105.839 30 106.875C30 107.911 30.8395 108.75 31.875 108.75C32.9105 108.75 33.75 107.911 33.75 106.875C33.75 105.839 32.9105 105 31.875 105ZM26.25 106.875C26.25 103.768 28.7684 101.25 31.875 101.25C34.9816 101.25 37.5 103.768 37.5 106.875C37.5 109.982 34.9816 112.5 31.875 112.5C28.7684 112.5 26.25 109.982 26.25 106.875Z" fill="#F25A3D"/>
<path d="M42.2152 68V63.352H31.8832L31.3232 61.756L42.4112 48.26H44.3432V61.504H47.3952V63.352H44.3432V68H42.2152ZM33.9832 61.504H42.2152V51.396L33.9832 61.504Z" fill="#F25A3D"/>
<path d="M15.4397 68.0001V66.2921L22.5517 60.0201C24.0824 58.6761 25.1464 57.5561 25.7437 56.6601C26.341 55.7641 26.6397 54.8308 26.6397 53.8601C26.6397 52.7401 26.257 51.8348 25.4917 51.1441C24.7264 50.4534 23.793 50.1081 22.6917 50.1081C21.6277 50.1081 20.685 50.3788 19.8637 50.9201C19.061 51.4615 18.249 52.3108 17.4277 53.4681L15.8037 52.2921C16.7557 50.8735 17.7637 49.8281 18.8277 49.1561C19.8917 48.4655 21.2357 48.1201 22.8597 48.1201C24.6144 48.1201 26.061 48.6521 27.1997 49.7161C28.357 50.7615 28.9357 52.0961 28.9357 53.7201C28.9357 55.0641 28.5717 56.2588 27.8437 57.3041C27.1157 58.3495 25.8277 59.6935 23.9797 61.3361L18.7437 65.9841H29.1317V68.0001H15.4397Z" fill="#F25A3D"/>
</svg>
