<svg width="120" height="120" viewBox="0 0 120 120" fill="none" xmlns="http://www.w3.org/2000/svg">
<path d="M53.3759 48.9171H51.7198V43.5668H55.9235C56.9789 43.5668 57.8344 42.7113 57.8344 41.6559C57.8344 40.6005 56.9789 39.7451 55.9235 39.7451H51.7198V37.5794C51.7198 36.524 50.8643 35.6686 49.8089 35.6686C48.7535 35.6686 47.8981 36.524 47.8981 37.5794V39.7451H46.2422C43.7838 39.7451 41.7837 41.7452 41.7837 44.2036V48.2801C41.7837 50.7384 43.7838 52.7386 46.2422 52.7386H47.8983V58.0889H43.6945C42.6392 58.0889 41.7837 58.9444 41.7837 59.9998C41.7837 61.0551 42.6392 61.9106 43.6945 61.9106H47.8983V64.0762C47.8983 65.1316 48.7538 65.9871 49.8092 65.9871C50.8645 65.9871 51.72 65.1316 51.72 64.0762V61.9106H53.3761C55.8345 61.9106 57.8346 59.9105 57.8346 57.4521V53.3756C57.8344 50.9175 55.8342 48.9171 53.3759 48.9171ZM47.8981 48.9171H46.2422C45.8911 48.9171 45.6052 48.6312 45.6052 48.2801V44.2036C45.6052 43.8525 45.8911 43.5666 46.2422 43.5666H47.8983L47.8981 48.9171ZM54.0127 57.4523C54.0127 57.8034 53.7267 58.0894 53.3756 58.0894H51.7195V52.7391H53.3756C53.7267 52.7391 54.0127 53.025 54.0127 53.3761V57.4523Z" fill="#F25A3D"/>
<path d="M119.44 50.7607L110.793 42.1132C110.047 41.3667 108.837 41.367 108.091 42.1132L99.6178 50.5861V1.91086C99.6178 0.855469 98.7624 0 97.707 0H1.91086C0.855469 0 0 0.855469 0 1.91086V94.6498C0 95.7052 0.855469 96.5606 1.91086 96.5606C2.96625 96.5606 3.82172 95.7052 3.82172 94.6498V3.82172H95.7963V54.4078L81.9239 68.2802H77.1975V33.3757H83.4396C84.495 33.3757 85.3505 32.5202 85.3505 31.4648V25.3502C85.3505 24.2948 84.495 23.4394 83.4396 23.4394H75.8456L50.839 7.43508C50.2109 7.03336 49.407 7.03336 48.7788 7.43508L23.7722 23.4394H16.1784C15.123 23.4394 14.2676 24.2948 14.2676 25.3502V31.4648C14.2676 32.5202 15.123 33.3757 16.1784 33.3757H22.4203V68.2802H16.1784C15.123 68.2802 14.2676 69.1357 14.2676 70.1911V76.3057C14.2676 77.3611 15.123 78.2166 16.1784 78.2166H71.9876L57.7076 92.4966C57.7034 92.5008 57.6994 92.5057 57.6952 92.5104C57.469 92.7211 57.2906 92.9897 57.1859 93.3038L52.8623 106.275C52.3741 107.739 53.8139 109.18 55.2795 108.692L68.2507 104.368C68.5662 104.263 68.8357 104.084 69.0466 103.856C69.0544 103.848 69.0631 103.841 69.0703 103.834L80.7661 91.9118C81.5048 91.1585 81.4936 89.9484 80.7401 89.2097C79.9868 88.4709 78.777 88.4827 78.038 89.2357L67.6934 99.7807L61.7611 93.8484L102.176 53.4338L108.121 59.3789L86.43 81.0698C85.6838 81.8161 85.6838 83.0259 86.43 83.772C87.1763 84.5182 88.3861 84.5182 89.1321 83.772L95.7963 77.1075V97.8347H79.3631C78.3077 97.8347 77.4523 98.6902 77.4523 99.7455V116.179H3.82172V104.841C3.82172 103.786 2.96625 102.93 1.91086 102.93C0.855469 102.93 0 103.786 0 104.841V118.09C0 119.145 0.855469 120 1.91086 120H79.3631C79.8638 120 80.3604 119.794 80.7143 119.44L99.0584 101.096C99.4125 100.742 99.618 100.246 99.618 99.7451V73.2856L119.441 53.463C120.187 52.717 120.187 51.507 119.44 50.7607ZM64.1986 101.69L57.6961 103.858L59.8634 97.3552L64.1986 101.69ZM49.8089 11.313L68.7562 23.4394H30.8618L49.8089 11.313ZM18.0893 29.5542V27.2613H81.5287V29.5542H18.0893ZM73.3758 33.3757V68.2802H67.0064V33.3757H73.3758ZM63.1847 33.3757V68.2802H36.4331V33.3757H63.1847ZM32.6114 33.3757V68.2802H26.242V33.3757H32.6114ZM75.8093 74.3949H18.0893V72.102H78.1022L75.8093 74.3949ZM81.274 113.476V101.656H93.0942L81.274 113.476ZM110.823 56.6759L104.878 50.7307L109.442 46.167L115.387 52.1119L110.823 56.6759Z" fill="#F25A3D"/>
<path d="M48.7898 94.777H24.3312C23.2758 94.777 22.4203 95.6325 22.4203 96.6879C22.4203 97.7433 23.2758 98.5988 24.3312 98.5988H48.7898C49.8452 98.5988 50.7007 97.7433 50.7007 96.6879C50.7007 95.6325 49.8452 94.777 48.7898 94.777Z" fill="#F25A3D"/>
<path d="M50.828 104.968H24.3312C23.2758 104.968 22.4203 105.824 22.4203 106.879C22.4203 107.934 23.2758 108.79 24.3312 108.79H50.828C51.8834 108.79 52.7388 107.934 52.7388 106.879C52.7388 105.824 51.8834 104.968 50.828 104.968Z" fill="#F25A3D"/>
<path d="M48.7898 84.5859H24.3312C23.2758 84.5859 22.4203 85.4414 22.4203 86.4968C22.4203 87.5522 23.2758 88.4077 24.3312 88.4077H48.7898C49.8452 88.4077 50.7007 87.5522 50.7007 86.4968C50.7007 85.4414 49.8452 84.5859 48.7898 84.5859Z" fill="#F25A3D"/>
</svg>
