<svg width="311" height="63" viewBox="0 0 311 63" fill="none" xmlns="http://www.w3.org/2000/svg">
<path d="M57.0352 0H83.907C90.1035 0 93.2297 2.46703 93.2297 7.45889V15.0261C93.2297 19.5222 90.7067 21.8809 85.8268 22.4841L94.875 36.1955H83.0302L73.9811 22.4841H68.0031V36.1955H57.0352V0ZM80.3428 15.903C81.6034 15.903 82.2626 15.409 82.2626 14.3678V8.11628C82.2626 7.0742 81.6043 6.58025 80.3428 6.58025H68.0031V15.903H80.3428Z" fill="#222222"/>
<path d="M105.844 0H116.812V36.1945H105.844V0Z" fill="#222222"/>
<path d="M141.929 17.7677L127.233 0H139.462L148.071 10.3648L156.681 0H168.91L154.214 17.7677L169.459 36.1945H157.23L148.071 25.1715L138.913 36.1945H126.684L141.929 17.7677Z" fill="#222222"/>
<path d="M179.331 0H214.428V6.58025H190.299V13.9841H211.687V20.5643H190.299V29.6134H214.428V36.1945H179.331V0Z" fill="#222222"/>
<path d="M225.946 29.6134H249.253C250.514 29.6134 251.172 29.1204 251.172 28.0783V22.1012C251.172 21.0592 250.514 20.5652 249.253 20.5652H235.269C229.073 20.5652 225.946 18.0982 225.946 13.1063V7.45889C225.946 2.46794 229.073 0 235.269 0H259.399V6.58025H238.834C237.574 6.58025 236.915 7.0742 236.915 8.11628V12.448C236.915 13.4901 237.574 13.9841 238.834 13.9841H252.818C259.015 13.9841 262.141 16.4511 262.141 21.442V28.7357C262.141 33.7266 259.015 36.1945 252.818 36.1945H225.946V29.6134H225.946Z" fill="#222222"/>
<path d="M274.207 29.6134H297.514C298.774 29.6134 299.434 29.1204 299.434 28.0783V22.1012C299.434 21.0592 298.775 20.5652 297.514 20.5652H283.53C277.334 20.5652 274.208 18.0982 274.208 13.1063V7.45889C274.208 2.46794 277.334 0 283.53 0H307.661V6.58025H287.095C285.834 6.58025 285.176 7.0742 285.176 8.11628V12.448C285.176 13.4901 285.834 13.9841 287.095 13.9841H301.079C307.276 13.9841 310.402 16.4511 310.402 21.442V28.7357C310.402 33.7266 307.276 36.1945 301.079 36.1945H274.208V29.6134H274.207Z" fill="#222222"/>
<path d="M31.8276 0.800079L26.0393 12.8535L31.0456 23.277H21.0321L17.8716 29.8581H34.2062L37.2493 36.1946H48.8287L31.8276 0.800079Z" fill="#222222"/>
<path d="M17.383 0H28.9614L11.5775 36.1945H0L17.383 0Z" fill="#F25A3D"/>
<path d="M105.844 47.3766H115.006V48.6814H107.274V53.0077H114.191V54.3126H107.274V58.7482H115.098V60.0512H105.845L105.844 47.3766Z" fill="#222222"/>
<path d="M117.747 50.6906H119.141V52.3205C119.756 51.3065 120.735 50.4919 122.346 50.4919C124.61 50.4919 125.931 52.0135 125.931 54.2403V60.053H124.537V54.5844C124.537 52.8461 123.595 51.7598 121.948 51.7598C120.336 51.7598 119.142 52.9373 119.142 54.6937V60.053H117.748L117.747 50.6906Z" fill="#222222"/>
<path d="M128.798 61.6821L129.432 60.5957C130.5 61.3732 131.696 61.7904 133.035 61.7904C135.098 61.7904 136.438 60.6499 136.438 58.4592V57.3548C135.625 58.4411 134.485 59.3297 132.764 59.3297C130.518 59.3297 128.364 57.6456 128.364 54.9095C128.364 52.1761 130.537 50.491 132.764 50.491C134.52 50.491 135.661 51.3606 136.421 52.3756V50.6906H137.817V58.4231C137.817 59.8715 137.383 60.9768 136.621 61.7372C135.788 62.5697 134.54 62.986 133.055 62.986C131.495 62.9851 130.047 62.5517 128.798 61.6821ZM136.476 54.8914C136.476 52.9725 134.809 51.7227 133.035 51.7227C131.261 51.7227 129.794 52.9544 129.794 54.9086C129.794 56.7922 131.296 58.0953 133.035 58.0953C134.809 58.0962 136.476 56.8103 136.476 54.8914Z" fill="#222222"/>
<path d="M140.973 47.1057H142.566V48.6444H140.973V47.1057ZM141.063 50.6906H142.458V60.0521H141.063V50.6906Z" fill="#222222"/>
<path d="M145.701 50.6906H147.096V52.3205C147.711 51.3065 148.69 50.4919 150.302 50.4919C152.566 50.4919 153.886 52.0135 153.886 54.2403V60.053H152.494V54.5844C152.494 52.8461 151.551 51.7598 149.903 51.7598C148.291 51.7598 147.097 52.9373 147.097 54.6937V60.053H145.702L145.701 50.6906Z" fill="#222222"/>
<path d="M160.989 59.0561C162.275 59.0561 163.18 58.5315 163.942 57.7341L164.812 58.5116C163.87 59.5627 162.727 60.2689 160.955 60.2689C158.383 60.2689 156.282 58.294 156.282 55.3791C156.282 52.6628 158.184 50.4901 160.774 50.4901C163.544 50.4901 165.138 52.6998 165.138 55.4513C165.138 55.5786 165.138 55.7249 165.119 55.9407H157.694C157.893 57.9165 159.341 59.0561 160.989 59.0561ZM163.724 54.8192C163.56 53.117 162.582 51.6695 160.735 51.6695C159.124 51.6695 157.893 53.0077 157.693 54.8192H163.724Z" fill="#222222"/>
<path d="M171.715 59.0561C173.001 59.0561 173.907 58.5315 174.668 57.7341L175.538 58.5116C174.596 59.5627 173.455 60.2689 171.681 60.2689C169.109 60.2689 167.01 58.294 167.01 55.3791C167.01 52.6628 168.91 50.4901 171.5 50.4901C174.27 50.4901 175.864 52.6998 175.864 55.4513C175.864 55.5786 175.864 55.7249 175.845 55.9407H168.421C168.62 57.9165 170.068 59.0561 171.715 59.0561ZM174.451 54.8192C174.286 53.117 173.308 51.6695 171.461 51.6695C169.85 51.6695 168.62 53.0077 168.42 54.8192H174.451Z" fill="#222222"/>
<path d="M178.312 50.6906H179.707V53.1351C180.395 51.5783 181.753 50.4558 183.526 50.5281V52.0307H183.416C181.372 52.0307 179.707 53.4963 179.707 56.3218V60.0521H178.312V50.6906Z" fill="#222222"/>
<path d="M185.687 47.1057H187.28V48.6444H185.687V47.1057ZM185.777 50.6906H187.171V60.0521H185.777V50.6906Z" fill="#222222"/>
<path d="M190.413 50.6906H191.809V52.3205C192.423 51.3065 193.402 50.4919 195.014 50.4919C197.278 50.4919 198.599 52.0135 198.599 54.2403V60.053H197.206V54.5844C197.206 52.8461 196.263 51.7598 194.615 51.7598C193.004 51.7598 191.81 52.9373 191.81 54.6937V60.053H190.414V50.6906H190.413Z" fill="#222222"/>
<path d="M201.467 61.6821L202.1 60.5957C203.168 61.3732 204.362 61.7904 205.703 61.7904C207.767 61.7904 209.107 60.6499 209.107 58.4592V57.3548C208.293 58.4411 207.153 59.3297 205.432 59.3297C203.186 59.3297 201.033 57.6456 201.033 54.9095C201.033 52.1761 203.204 50.491 205.432 50.491C207.187 50.491 208.33 51.3606 209.09 52.3756V50.6906H210.486V58.4231C210.486 59.8715 210.051 60.9768 209.289 61.7372C208.457 62.5697 207.208 62.986 205.723 62.986C204.164 62.9851 202.716 62.5517 201.467 61.6821ZM209.144 54.8914C209.144 52.9725 207.479 51.7227 205.703 51.7227C203.929 51.7227 202.462 52.9544 202.462 54.9086C202.462 56.7922 203.963 58.0953 205.703 58.0953C207.479 58.0962 209.144 56.8103 209.144 54.8914Z" fill="#222222"/>
<path d="M219.529 57.5716V51.9214H218.225V50.6906H219.529V47.8651H220.922V50.6906H223.893V51.9214H220.922V57.391C220.922 58.5324 221.556 58.9486 222.497 58.9486C222.968 58.9486 223.367 58.8575 223.855 58.6236V59.8183C223.367 60.072 222.84 60.2147 222.171 60.2147C220.669 60.2147 219.529 59.4724 219.529 57.5716Z" fill="#222222"/>
<path d="M226.357 46.8338H227.753V52.3196C228.368 51.3056 229.346 50.491 230.957 50.491C233.22 50.491 234.542 52.0126 234.542 54.2394V60.0521H233.148V54.5835C233.148 52.8452 232.206 51.7589 230.558 51.7589C228.947 51.7589 227.753 52.9364 227.753 54.6928V60.0521H226.358V46.8338H226.357Z" fill="#222222"/>
<path d="M241.647 59.0561C242.933 59.0561 243.839 58.5315 244.599 57.7341L245.47 58.5116C244.528 59.5627 243.385 60.2689 241.613 60.2689C239.041 60.2689 236.94 58.294 236.94 55.3791C236.94 52.6628 238.842 50.4901 241.432 50.4901C244.202 50.4901 245.796 52.6998 245.796 55.4513C245.796 55.5786 245.796 55.7249 245.777 55.9407H238.352C238.55 57.9165 240 59.0561 241.647 59.0561ZM244.382 54.8192C244.218 53.117 243.24 51.6695 241.393 51.6695C239.781 51.6695 238.55 53.0077 238.351 54.8192H244.382Z" fill="#222222"/>
<path d="M253.914 47.3766H263.021V48.6995H255.344V53.2272H262.208V54.5302H255.344V60.0521H253.914V47.3766Z" fill="#222222"/>
<path d="M265.418 56.5033V50.6897H266.813V56.1593C266.813 57.8966 267.754 58.9839 269.403 58.9839C270.997 58.9839 272.207 57.8063 272.207 56.05V50.6897H273.584V60.0512H272.207V58.4213C271.575 59.4354 270.614 60.2499 269.002 60.2499C266.739 60.2517 265.418 58.731 265.418 56.5033Z" fill="#222222"/>
<path d="M277.213 57.5716V51.9214H275.911V50.6906H277.213V47.8651H278.608V50.6906H281.578V51.9214H278.608V57.391C278.608 58.5324 279.241 58.9486 280.184 58.9486C280.654 58.9486 281.051 58.8575 281.541 58.6236V59.8183C281.051 60.072 280.527 60.2147 279.858 60.2147C278.353 60.2147 277.213 59.4724 277.213 57.5716Z" fill="#222222"/>
<path d="M283.898 56.5033V50.6897H285.293V56.1593C285.293 57.8966 286.233 58.9839 287.882 58.9839C289.476 58.9839 290.687 57.8063 290.687 56.05V50.6897H292.064V60.0512H290.687V58.4213C290.055 59.4354 289.095 60.2499 287.484 60.2499C285.218 60.2517 283.898 58.731 283.898 56.5033Z" fill="#222222"/>
<path d="M295.203 50.6906H296.597V53.1351C297.285 51.5783 298.644 50.4558 300.417 50.5281V52.0307H300.309C298.263 52.0307 296.597 53.4963 296.597 56.3218V60.0521H295.203V50.6906Z" fill="#222222"/>
<path d="M306.27 59.0561C307.556 59.0561 308.461 58.5315 309.222 57.7341L310.093 58.5116C309.151 59.5627 308.009 60.2689 306.236 60.2689C303.664 60.2689 301.563 58.294 301.563 55.3791C301.563 52.6628 303.466 50.4901 306.055 50.4901C308.824 50.4901 310.419 52.6998 310.419 55.4513C310.419 55.5786 310.419 55.7249 310.4 55.9407H302.976C303.175 57.9165 304.623 59.0561 306.27 59.0561ZM309.007 54.8192C308.841 53.117 307.864 51.6695 306.016 51.6695C304.406 51.6695 303.175 53.0077 302.975 54.8192H309.007Z" fill="#222222"/>
</svg>
