<svg width="158" height="50" viewBox="0 0 158 50" fill="none" xmlns="http://www.w3.org/2000/svg">
<g clip-path="url(#clip0_1512_94)">
<path d="M49.0785 13.5947C49.0756 13.1011 49.0702 12.6077 49.0565 12.1135C49.0278 11.0385 48.9642 9.95376 48.7732 8.89024C48.5793 7.81018 48.2623 6.80592 47.7628 5.82479C47.2725 4.86126 46.6316 3.97955 45.867 3.21495C45.1025 2.45034 44.2208 1.80945 43.2569 1.31889C42.2766 0.819976 41.2721 0.503126 40.1931 0.309247C39.129 0.1176 38.0442 0.0544612 36.9684 0.0253712C36.4744 0.0119831 35.981 0.00636345 35.4872 0.00330569C34.9011 0 34.3146 0 33.7286 0H20.736H15.3534C14.7669 0 14.181 0 13.5951 0.00338833C13.1011 0.00644609 12.6071 0.0120658 12.1139 0.0254538C11.845 0.0327263 11.5755 0.0421475 11.3058 0.0551223C10.4969 0.0941295 9.68677 0.165615 8.88911 0.30933C8.07979 0.45478 7.31238 0.669319 6.56579 0.977988C6.31695 1.08079 6.07035 1.19418 5.82523 1.31889C5.10228 1.68681 4.42544 2.13928 3.80984 2.66505C3.60464 2.84033 3.40621 3.02371 3.21514 3.21486C2.45037 3.97947 1.8094 4.86118 1.31908 5.82471C0.819594 6.80583 0.503075 7.8101 0.309031 8.89015C0.118127 9.95368 0.054658 11.0384 0.0257332 12.1134C0.0121799 12.6076 0.00647759 13.101 0.00325454 13.5946C-0.000464357 14.1809 3.14959e-05 14.7673 3.14959e-05 15.3534V23.3547V33.7284C3.14959e-05 34.315 -0.000547 34.9008 0.00325454 35.4875C0.00647759 35.9811 0.0121799 36.4745 0.0257332 36.9678C0.054658 38.0434 0.118045 39.1284 0.309031 40.1915C0.503075 41.2712 0.819594 42.2764 1.31908 43.2572C1.8094 44.221 2.45037 45.1025 3.21514 45.8668C3.97934 46.6317 4.86129 47.2725 5.82532 47.7634C6.8057 48.2624 7.81005 48.5788 8.88936 48.7727C9.9528 48.9641 11.0384 49.0277 12.114 49.0565C12.6072 49.0696 13.1012 49.0755 13.5952 49.0783C14.1811 49.0825 14.767 49.082 15.3535 49.082H33.7286C34.3146 49.082 34.9011 49.0825 35.4871 49.0783C35.9809 49.0755 36.4743 49.0696 36.9683 49.0565C38.0441 49.0277 39.1289 48.964 40.193 48.7727C41.272 48.5788 42.2765 48.2623 43.2568 47.7634C44.2207 47.2726 45.1024 46.6317 45.8669 45.8668C46.6315 45.1024 47.2725 44.221 47.7628 43.2572C48.2623 42.2764 48.5792 41.2713 48.7731 40.1915C48.9641 39.1284 49.0277 38.0434 49.0564 36.9678C49.07 36.4745 49.0755 35.9812 49.0784 35.4875C49.0822 34.9008 49.0819 34.315 49.0819 33.7284V15.3534C49.082 14.7673 49.0822 14.1809 49.0785 13.5947Z" fill="#F05138"/>
<path d="M38.892 30.2971C38.8908 30.2956 38.8897 30.2946 38.8885 30.2932C38.9428 30.1084 38.9988 29.9247 39.0463 29.7353C41.0835 21.6191 36.1116 12.0235 27.6982 6.97119C31.3852 11.9693 33.0154 18.0232 31.567 23.3174C31.4378 23.7896 31.2825 24.2428 31.1109 24.6833C30.9246 24.5609 30.6899 24.422 30.3747 24.2482C30.3747 24.2482 22.0056 19.0808 12.9349 9.94102C12.6969 9.70111 17.7718 17.1945 23.5312 23.2794C20.8177 21.7565 13.2556 16.2545 8.46831 11.8729C9.05647 12.8537 9.75604 13.7983 10.525 14.7076C14.5228 19.7776 19.7365 26.0332 25.9827 30.8368C21.594 33.5225 15.3928 33.7313 9.21853 30.8396C7.69139 30.1239 6.25573 29.2604 4.92676 28.2792C7.54032 32.4597 11.5656 36.0665 16.4647 38.1722C22.3071 40.6829 28.1169 40.5127 32.444 38.2133L32.4407 38.2183C32.4604 38.2058 32.4855 38.1922 32.506 38.1795C32.6837 38.084 32.8601 37.9867 33.0325 37.884C35.1116 36.8049 39.2181 35.71 41.4222 39.9987C41.962 41.0482 43.1091 35.4861 38.892 30.2971Z" fill="white"/>
<path d="M67.7093 31.8521C68.0928 35.2572 71.3404 37.4897 75.8507 37.4897C80.136 37.4897 83.2256 35.2572 83.2256 32.1681C83.2256 29.5068 81.3539 27.8823 77.046 26.8003L72.8738 25.7404C66.8749 24.2518 64.1683 21.5451 64.1683 17.0801C64.1683 11.5774 68.9721 7.76562 75.8059 7.76562C82.436 7.76562 87.1496 11.5996 87.3076 17.1254H82.9101C82.5714 13.7425 79.82 11.667 75.6932 11.667C71.6107 11.667 68.7692 13.7646 68.7692 16.8316C68.7692 19.2221 70.5286 20.6433 74.8588 21.7485L78.3318 22.6504C85.0525 24.2971 87.8038 26.9131 87.8038 31.6267C87.8038 37.6257 83.0449 41.3922 75.4672 41.3922C68.4309 41.3922 63.6272 37.6479 63.2664 31.8523L67.7093 31.8521Z" fill="black"/>
<path d="M115.739 40.8504H111.319L106.154 22.8534H106.064L100.922 40.8504H96.5019L89.9614 17.2822H94.2463L98.8018 36.2042H98.8924L104.034 17.2822H108.184L113.371 36.2042H113.462L118.017 17.2822H122.257L115.739 40.8504Z" fill="black"/>
<path d="M125.111 10.9452C125.111 9.52497 126.284 8.37451 127.705 8.37451C129.149 8.37451 130.321 9.52497 130.321 10.9452C130.321 12.3664 129.149 13.5391 127.705 13.5391C126.284 13.5391 125.111 12.3665 125.111 10.9452ZM125.563 17.2824H129.87V40.8506H125.563V17.2824Z" fill="black"/>
<path d="M158 20.7558V17.2821H153.444V11.6445H149.159V17.2821H145.663H140.925V15.2077C140.947 13.11 141.759 12.2303 143.699 12.2303C144.33 12.2303 144.962 12.2987 145.481 12.3883V9.00535C144.714 8.89263 144.015 8.8252 143.203 8.8252C138.602 8.8252 136.662 10.7427 136.662 15.1402V17.2821H133.37V20.7558H136.662V40.8503H140.947V20.7558H145.663H149.159V34.6711C149.159 39.2268 150.896 40.9852 155.406 40.9852C156.376 40.9852 157.481 40.9177 157.977 40.805V37.2872C157.684 37.3325 156.827 37.3999 156.353 37.3999C154.346 37.3999 153.445 36.4527 153.445 34.333V20.7558H158Z" fill="black"/>
</g>
<defs>
<clipPath id="clip0_1512_94">
<rect width="158" height="49.0821" fill="white"/>
</clipPath>
</defs>
</svg>
