<svg width="167" height="61" viewBox="0 0 167 61" fill="none" xmlns="http://www.w3.org/2000/svg">
<mask id="mask0_1512_101" style="mask-type:luminance" maskUnits="userSpaceOnUse" x="0" y="0" width="49" height="61">
<path d="M48.9315 27.96L32.621 44.2763L48.9315 60.5927H30.2934L13.9771 44.2763L30.2934 27.96H48.9315ZM30.2934 0L0 30.2934L9.32194 39.6154L48.9315 0H30.2934Z" fill="white"/>
</mask>
<g mask="url(#mask0_1512_101)">
<path d="M23.299 53.5982L48.9315 27.96H30.2934L13.9829 44.2763L23.299 53.5982Z" fill="#39CEFD"/>
</g>
<mask id="mask1_1512_101" style="mask-type:luminance" maskUnits="userSpaceOnUse" x="0" y="0" width="49" height="61">
<path d="M48.9315 27.96L32.621 44.2763L48.9315 60.5927H30.2934L13.9771 44.2763L30.2934 27.96H48.9315ZM30.2934 0L0 30.2934L9.32194 39.6154L48.9315 0H30.2934Z" fill="white"/>
</mask>
<g mask="url(#mask1_1512_101)">
<path d="M0 30.2934L30.2934 0H48.9315L9.32194 39.6154L0 30.2934Z" fill="#39CEFD"/>
</g>
<mask id="mask2_1512_101" style="mask-type:luminance" maskUnits="userSpaceOnUse" x="0" y="0" width="49" height="61">
<path d="M48.9315 27.96L32.621 44.2763L48.9315 60.5927H30.2934L13.9771 44.2763L30.2934 27.96H48.9315ZM30.2934 0L0 30.2934L9.32194 39.6154L48.9315 0H30.2934Z" fill="white"/>
</mask>
<g mask="url(#mask2_1512_101)">
<path d="M30.2935 60.5869H48.9315L32.621 44.2764L23.2991 53.5983L30.2935 60.5869Z" fill="#03569B"/>
</g>
<mask id="mask3_1512_101" style="mask-type:luminance" maskUnits="userSpaceOnUse" x="0" y="0" width="49" height="61">
<path d="M48.9315 27.96L32.621 44.2763L48.9315 60.5927H30.2934L13.9771 44.2763L30.2934 27.96H48.9315ZM30.2934 0L0 30.2934L9.32194 39.6154L48.9315 0H30.2934Z" fill="white"/>
</mask>
<g mask="url(#mask3_1512_101)">
<path d="M32.621 44.2764L23.2991 53.5983L37.1245 48.809L32.621 44.2764Z" fill="url(#paint0_linear_1512_101)"/>
</g>
<mask id="mask4_1512_101" style="mask-type:luminance" maskUnits="userSpaceOnUse" x="0" y="0" width="49" height="61">
<path d="M48.9315 27.96L32.621 44.2763L48.9315 60.5927H30.2934L13.9771 44.2763L30.2934 27.96H48.9315ZM30.2934 0L0 30.2934L9.32194 39.6154L48.9315 0H30.2934Z" fill="white"/>
</mask>
<g mask="url(#mask4_1512_101)">
<path d="M13.9819 44.2729L23.3041 34.9507L32.6269 44.2729L23.3041 53.5952L13.9819 44.2729Z" fill="#16B9FD"/>
</g>
<path d="M48.9315 27.96L32.621 44.2763L48.9315 60.5927H30.2934L13.9771 44.2763L30.2934 27.96H48.9315ZM30.2934 0L0 30.2934L9.32194 39.6154L48.9315 0H30.2934Z" fill="url(#paint1_radial_1512_101)"/>
<path d="M54.8486 16.2422H71.1384V19.428H58.1547V29.0666H69.8761V32.2134H58.1547V44.4081H54.8486V16.2422ZM75.0801 16.2422H78.4237V44.4097H75.0801V16.2422ZM90.6561 45.0393C88.2436 45.0393 86.3903 44.331 85.0959 42.9144C83.8456 41.4888 83.2205 39.5087 83.2205 36.9741V24.3465H86.5641V36.4631C86.5641 38.3666 86.9969 39.7692 87.8625 40.6708C88.728 41.5725 89.8952 42.0233 91.3638 42.0233C92.4919 42.0233 93.4937 41.7217 94.3693 41.1186C95.271 40.5155 95.9522 39.7291 96.4131 38.7593C96.911 37.7875 97.1599 36.7647 97.1599 35.6907V24.36H100.502V44.4217H97.3162V41.4973H97.1584C96.6074 42.4942 95.7288 43.3332 94.5226 44.0144C93.3164 44.6957 92.0311 45.0363 90.6666 45.0363L90.6561 45.0393Z" fill="#808080"/>
<path d="M113.372 44.7252C112.558 44.7252 111.798 44.594 111.09 44.3315C110.409 44.069 109.832 43.7149 109.359 43.2691C108.834 42.7712 108.441 42.1941 108.18 41.5379C107.917 40.8827 107.786 40.0828 107.786 39.138V27.376H104.284V24.3465H107.786V18.6812H111.129V24.3465H116.007V27.376H111.129V38.313C111.129 39.415 111.34 40.228 111.761 40.752C112.258 41.329 112.98 41.6176 113.925 41.6176C114.686 41.6176 115.42 41.3947 116.128 40.9488V44.2143C115.734 44.3976 115.327 44.5289 114.907 44.608C114.514 44.6882 114.003 44.7282 113.375 44.7282L113.372 44.7252Z" fill="#808080"/>
<path d="M127.551 44.7252C126.738 44.7252 125.978 44.594 125.27 44.3315C124.589 44.069 124.012 43.7149 123.539 43.2691C123.014 42.7712 122.621 42.1941 122.359 41.5379C122.097 40.8827 121.966 40.0828 121.966 39.138V27.376H118.464V24.3465H121.966V18.6812H125.309V24.3465H130.187V27.376H125.309V38.313C125.309 39.415 125.52 40.228 125.941 40.752C126.438 41.329 127.16 41.6176 128.104 41.6176C128.866 41.6176 129.6 41.3947 130.307 40.9488V44.2143C129.914 44.3976 129.507 44.5289 129.087 44.608C128.694 44.6882 128.183 44.7282 127.554 44.7282L127.551 44.7252Z" fill="#808080"/>
<path d="M142.278 45.0393C140.375 45.0393 138.657 44.5805 137.124 43.6628C135.603 42.7451 134.41 41.4863 133.544 39.8864C132.705 38.2604 132.285 36.4371 132.285 34.4164C132.285 32.4759 132.678 30.6926 133.465 29.0666C134.278 27.4407 135.419 26.1423 136.888 25.1715C138.357 24.1998 140.061 23.7139 142.002 23.7139C143.968 23.7139 145.673 24.1647 147.116 25.0663C148.558 25.9319 149.66 27.1381 150.422 28.685C151.208 30.2328 151.601 32.003 151.601 33.9957C151.601 34.3894 151.561 34.73 151.481 35.0175H135.627C135.707 36.5383 136.075 37.8236 136.729 38.8736C137.384 39.9225 138.21 40.7089 139.208 41.2329C140.23 41.7578 141.292 42.0203 142.394 42.0203C144.965 42.0203 146.945 40.8141 148.334 38.4017L151.167 39.7782C150.302 41.4042 149.121 42.6895 147.627 43.6343C146.158 44.578 144.375 45.0498 142.277 45.0498L142.278 45.0393ZM148.061 32.254C148.009 31.4144 147.773 30.5754 147.355 29.7369C146.934 28.8973 146.265 28.189 145.349 27.612C144.447 27.0349 143.32 26.7464 141.967 26.7464C140.394 26.7464 139.057 27.2573 137.955 28.2792C136.88 29.276 136.172 30.6004 135.83 32.2525H148.065L148.061 32.254ZM155.476 24.3465H158.661V27.5729H158.819C159.213 26.4709 159.973 25.5663 161.1 24.859C162.228 24.1246 163.409 23.7574 164.641 23.7574C165.558 23.7574 166.345 23.8887 167 24.1512V27.7698C166.161 27.349 165.216 27.1386 164.167 27.1386C163.196 27.1386 162.304 27.4141 161.493 27.9651C160.679 28.5161 160.028 29.2635 159.539 30.2072C159.068 31.1249 158.833 32.1267 158.833 33.2127V44.4232H155.489V24.3616L155.476 24.3465Z" fill="#808080"/>
<defs>
<linearGradient id="paint0_linear_1512_101" x1="26.0195" y1="55.3973" x2="32.9623" y2="48.4546" gradientUnits="userSpaceOnUse">
<stop stop-color="#1A237E" stop-opacity="0.4"/>
<stop offset="1" stop-color="#1A237E" stop-opacity="0"/>
</linearGradient>
<radialGradient id="paint1_radial_1512_101" cx="0" cy="0" r="1" gradientUnits="userSpaceOnUse" gradientTransform="translate(1.37465 4.12982) scale(74.1277 74.1277)">
<stop stop-color="white" stop-opacity="0.1"/>
<stop offset="1" stop-color="white" stop-opacity="0"/>
</radialGradient>
</defs>
</svg>
