<svg width="171" height="57" viewBox="0 0 171 57" fill="none" xmlns="http://www.w3.org/2000/svg">
<path d="M32.0499 34.2078C35.2491 34.2078 37.8426 31.6143 37.8426 28.4152C37.8426 25.216 35.2491 22.6226 32.0499 22.6226C28.8508 22.6226 26.2573 25.216 26.2573 28.4152C26.2573 31.6143 28.8508 34.2078 32.0499 34.2078Z" fill="#00D8FF"/>
<path fill-rule="evenodd" clip-rule="evenodd" d="M32.0501 16.6377C39.8275 16.6377 47.0525 17.7537 52.5001 19.6291C59.0637 21.8888 63.0992 25.3139 63.0992 28.4153C63.0992 31.6472 58.8224 35.2859 51.7739 37.6212C46.4451 39.3867 39.4329 40.3084 32.0501 40.3084C24.4808 40.3084 17.3131 39.4433 11.9243 37.6018C5.10646 35.2715 1 31.5857 1 28.4153C1 25.339 4.85312 21.9404 11.3245 19.6842C16.7924 17.7778 24.1958 16.6377 32.0491 16.6377H32.0501Z" stroke="#00D8FF" stroke-width="1.66272"/>
<path fill-rule="evenodd" clip-rule="evenodd" d="M21.7973 22.5604C25.6828 15.8231 30.2587 10.1219 34.6049 6.33963C39.8413 1.78262 44.8245 -0.00202877 47.5111 1.54719C50.3109 3.16176 51.3263 8.68464 49.8281 15.957C48.6966 21.4553 45.9907 27.99 42.3025 34.3854C38.521 40.9426 34.191 46.7196 29.904 50.4667C24.4794 55.2087 19.2349 56.9248 16.4885 55.3409C13.8236 53.8052 12.8044 48.7685 14.0829 42.0353C15.1631 36.3463 17.8739 29.3635 21.7961 22.5603L21.7973 22.5604Z" stroke="#00D8FF" stroke-width="1.66272"/>
<path fill-rule="evenodd" clip-rule="evenodd" d="M21.8072 34.4028C17.9107 27.6731 15.2579 20.86 14.1506 15.2059C12.8176 8.39332 13.7601 3.18462 16.4442 1.6309C19.2413 0.0115995 24.5332 1.89001 30.0854 6.81998C34.2833 10.5472 38.5939 16.154 42.2929 22.5434C46.0853 29.0942 48.9276 35.7309 50.0333 41.3162C51.4325 48.3843 50.3001 53.7848 47.5562 55.3731C44.8939 56.9144 40.022 55.2826 34.8272 50.8122C30.438 47.0353 25.742 41.1993 21.8072 34.4027V34.4028Z" stroke="#00D8FF" stroke-width="1.66272"/>
<path fill-rule="evenodd" clip-rule="evenodd" d="M96.3494 43.215L89.2494 32.4884C92.8377 32.1717 96.071 29.5717 96.071 24.8217C96.071 19.9884 92.641 16.895 87.8294 16.895H77.2627V43.195H80.536V32.745H85.781L92.4844 43.195L96.3494 43.215ZM87.4377 29.8867H80.5377V19.8317H87.4377C90.5544 19.8317 92.6827 21.8817 92.6827 24.84C92.6827 27.7984 90.5527 29.89 87.4377 29.89V29.8867ZM108.534 43.6867C111.651 43.6867 114.213 42.6617 116.106 40.77L114.686 38.8367C113.186 40.375 110.979 41.2417 108.811 41.2417C104.711 41.2417 102.186 38.245 101.949 34.6584H117.366V33.9084C117.366 28.1917 113.974 23.695 108.216 23.695C102.774 23.695 98.8327 28.1517 98.8327 33.6717C98.8327 39.6267 102.894 43.6717 108.533 43.6717L108.534 43.6867ZM114.451 32.4867H101.951C102.109 29.57 104.118 26.1367 108.181 26.1367C112.519 26.1367 114.411 29.6467 114.451 32.4867ZM137.008 43.2134V30.1217C137.008 25.5084 133.658 23.6934 129.634 23.6934C126.518 23.6934 124.074 24.7184 122.024 26.8484L123.404 28.8984C125.099 27.085 126.954 26.2567 129.241 26.2567C132.001 26.2567 134.053 27.715 134.053 30.2784V33.7084C132.514 31.9334 130.346 31.105 127.743 31.105C124.509 31.105 121.076 33.1167 121.076 37.375C121.076 41.515 124.506 43.685 127.743 43.685C130.306 43.685 132.476 42.7784 134.053 41.0434V43.21L137.008 43.2134ZM128.808 41.5567C126.048 41.5567 124.114 39.8234 124.114 37.4167C124.114 34.9717 126.048 33.2367 128.808 33.2367C130.898 33.2367 132.908 34.025 134.053 35.6034V39.1917C132.909 40.7684 130.898 41.5567 128.808 41.5567ZM151.308 43.6867C154.778 43.6867 156.828 42.2667 158.288 40.375L156.316 38.5617C155.054 40.2567 153.438 41.045 151.483 41.045C147.421 41.045 144.899 37.89 144.899 33.6717C144.899 29.4534 147.423 26.3384 151.483 26.3384C153.454 26.3384 155.071 27.0884 156.316 28.8217L158.288 27.0084C156.829 25.115 154.778 23.6967 151.308 23.6967C145.629 23.6967 141.804 28.035 141.804 33.6734C141.804 39.3517 145.629 43.6734 151.308 43.6734V43.6867ZM167.241 43.6867C168.974 43.6867 170.041 43.1734 170.791 42.465L169.924 40.2567C169.529 40.69 168.758 41.045 167.913 41.045C166.613 41.045 165.979 40.02 165.979 38.6V26.77H169.846V24.1684H165.979V18.9634H163.021V24.1684H159.866V26.7717H163.021V39.2334C163.021 42.0734 164.441 43.69 167.241 43.69V43.6867Z" fill="#00D8FF"/>
</svg>
