<svg width="78" height="78" viewBox="0 0 78 78" fill="none" xmlns="http://www.w3.org/2000/svg">
<path d="M38.8245 77.8749C17.9067 77.8749 0.165213 60.2063 0.000968608 39.1381C-0.0718565 28.8806 3.96452 19.0198 11.2098 11.759C14.8206 8.06073 19.1302 5.11681 23.8883 3.09817C28.6465 1.07954 33.7582 0.0264291 38.9268 1.58362e-05C49.1765 -0.00928099 59.0079 4.07512 66.2347 11.3421C69.8734 14.8888 72.7742 19.1206 74.7697 23.7936C76.7653 28.4666 77.8162 33.4884 77.8619 38.5694C77.958 60.087 60.6581 77.6425 39.1251 77.8609L38.8245 77.8749ZM38.933 2.06701C34.0353 2.09555 29.1921 3.09656 24.6843 5.01195C20.1766 6.92733 16.0942 9.71894 12.6741 13.2248C9.27226 16.6261 6.57938 20.6689 4.75158 25.1187C2.92377 29.5685 1.99739 34.3369 2.02613 39.1474C2.18107 59.0984 18.9928 75.8311 38.8013 75.8311H39.0647C59.4836 75.6312 75.9034 58.9946 75.8104 38.5927C75.7646 33.779 74.7668 29.0219 72.8744 24.5955C70.9821 20.1691 68.2326 16.1609 64.7843 12.8017C61.4026 9.39073 57.3779 6.68438 52.9431 4.83936C48.5084 2.99434 43.7517 2.0473 38.9485 2.05306L38.933 2.06701ZM8.71829 50.333V27.5868H14.2499V29.6244H11.3152V48.3342H14.2499V50.3718L8.71829 50.333ZM27.5134 38.7352C27.5134 42.8832 24.997 45.2461 21.5836 45.2461C18.1701 45.2461 15.897 42.5872 15.897 38.9491C15.897 35.1482 18.2832 32.4676 21.7664 32.4676C25.2496 32.4676 27.4994 35.2598 27.4994 38.7337L27.5134 38.7352ZM18.2816 38.9181C18.2816 41.4344 19.5444 43.4317 21.7153 43.4317C23.8861 43.4317 25.1287 41.3941 25.1287 38.8267C25.1287 36.4932 23.9775 34.2929 21.7153 34.2929C19.453 34.2929 18.2599 36.4219 18.2599 38.9723L18.2816 38.9181ZM29.4316 32.8968C30.5154 32.7094 31.6135 32.6172 32.7134 32.621C33.9489 32.4999 35.1909 32.7745 36.2601 33.4051C37.0767 33.8699 37.5679 34.7717 37.5462 35.7184C37.5152 36.958 36.694 38.038 35.5086 38.399C36.2135 38.5421 36.8471 38.9248 37.3019 39.4821C37.7566 40.0394 38.0044 40.7369 38.0033 41.4561C38.0112 41.9433 37.9081 42.426 37.7016 42.8673C37.4951 43.3087 37.1908 43.6973 36.8118 44.0034C35.9348 44.7782 34.4782 45.1547 32.2253 45.1547C31.2988 45.1594 30.3729 45.105 29.4533 44.992L29.4316 32.8968ZM31.6737 37.7777H32.825C34.3837 37.7777 35.2607 37.0448 35.2607 35.9958C35.2607 34.9468 34.3837 34.3038 32.9474 34.3038C32.5166 34.2883 32.0874 34.3193 31.6613 34.3967L31.6737 37.7777ZM31.6737 43.4642C32.0695 43.5051 32.4674 43.5222 32.8652 43.5154C34.3125 43.5154 35.5954 42.9653 35.5954 41.4778C35.5954 39.9903 34.3527 39.4403 32.794 39.4403H31.6737V43.4642ZM42.4534 32.7341H44.7048V40.7914C44.7048 44.2049 43.0546 45.3468 40.6297 45.3468C39.9825 45.3391 39.3401 45.2347 38.7238 45.0369L38.9996 43.2241C39.4518 43.3655 39.922 43.4411 40.3957 43.4487C41.6817 43.4487 42.4332 42.8599 42.4332 40.7186L42.4534 32.7341ZM51.1304 39.4279V40.9866H46.4433V39.4279H51.1304ZM62.0588 44.727C61.0458 45.1306 59.9597 45.3179 58.87 45.2771C54.9468 45.2771 52.5637 42.8212 52.5637 39.0606C52.517 38.1846 52.6564 37.3086 52.9727 36.4903C53.289 35.672 53.775 34.9299 54.3987 34.3129C55.0224 33.696 55.7696 33.2181 56.5913 32.9107C57.413 32.6033 58.2905 32.4735 59.166 32.5296C60.2131 32.486 61.2569 32.6738 62.2231 33.0797L61.7241 34.8724C60.9572 34.5625 60.1313 34.3828 59.2992 34.4076C56.7829 34.4076 54.9685 35.988 54.9685 38.963C54.9685 41.6746 56.5675 43.4255 59.2791 43.4255C60.1204 43.4379 60.9556 43.2814 61.735 42.9669L62.0588 44.727ZM69.1477 27.5248V50.333H63.6161V48.2955H66.5507V29.5655H63.6006V27.5248H69.1477Z" fill="#F1592A"/>
</svg>
