<svg width="160" height="95" viewBox="0 0 160 95" fill="none" xmlns="http://www.w3.org/2000/svg">
<path d="M22.4248 73.0122C22.4248 73.0122 18.817 75.1103 24.9923 75.8202C32.4736 76.6737 36.2971 76.5513 44.5415 74.9909C44.5415 74.9909 46.709 76.35 49.7361 77.5272C31.2544 85.4481 7.90837 77.0684 22.4248 73.0122Z" fill="#5382A1"/>
<path d="M20.1663 62.6753C20.1663 62.6753 16.1198 65.6706 22.2997 66.3098C30.2914 67.1343 36.6026 67.2017 47.5235 65.0988C47.5235 65.0988 49.034 66.6302 51.4091 67.4676C29.0636 74.0017 4.17477 67.9829 20.1663 62.6753Z" fill="#5382A1"/>
<path d="M39.2051 45.1423C43.759 50.3853 38.0086 55.1033 38.0086 55.1033C38.0086 55.1033 49.5717 49.1341 44.2613 41.6592C39.3015 34.6884 35.4981 31.2249 56.0885 19.2832C56.0885 19.2832 23.7683 27.3553 39.2051 45.1423Z" fill="#F8981D"/>
<path d="M63.6488 80.6574C63.6488 80.6574 66.3186 82.8572 60.7084 84.5591C50.0405 87.7908 16.3075 88.7667 6.93663 84.6879C3.56803 83.2224 9.8851 81.1887 11.8722 80.762C13.9446 80.3126 15.1288 80.3963 15.1288 80.3963C11.3826 77.7573 -9.08519 85.5782 4.73221 87.818C42.4142 93.929 73.423 85.0662 63.6488 80.6574Z" fill="#5382A1"/>
<path d="M24.1598 51.9665C24.1598 51.9665 7.00102 56.042 18.0834 57.522C22.7628 58.1485 32.0909 58.0067 40.7798 57.2787C47.8809 56.6797 55.0112 55.4061 55.0112 55.4061C55.0112 55.4061 52.5073 56.4784 50.6958 57.7154C33.2714 62.298 -0.389385 60.1661 9.30111 55.4787C17.4964 51.5172 24.1598 51.9665 24.1598 51.9665Z" fill="#5382A1"/>
<path d="M54.9405 69.1716C72.6532 59.9674 64.4635 51.1222 58.7472 52.3139C57.3462 52.6055 56.7215 52.8582 56.7215 52.8582C56.7215 52.8582 57.2416 52.0434 58.235 51.6907C69.5436 47.715 78.2407 63.4167 54.5845 69.6355C54.5845 69.6355 54.8585 69.3907 54.9405 69.1716Z" fill="#5382A1"/>
<path d="M44.2614 0C44.2614 0 54.071 9.8129 34.9574 24.9024C19.6303 37.0067 31.4624 43.9083 34.9511 51.7936C26.0044 43.7215 19.4387 36.6156 23.8434 30.0021C30.3086 20.294 48.2193 15.5872 44.2614 0Z" fill="#F8981D"/>
<path d="M25.9 94.1126C42.902 95.2009 69.0105 93.5087 69.6289 85.4639C69.6289 85.4639 68.4403 88.5136 55.5776 90.9356C41.0661 93.6665 23.1681 93.3477 12.5526 91.5975C12.5526 91.5975 14.7257 93.396 25.9 94.1126Z" fill="#5382A1"/>
<path d="M156.883 49.6334H156.364V49.3433H157.76V49.6334H157.245V51.0807H156.883V49.6334ZM159.667 49.7089H159.659L159.145 51.081H158.91L158.399 49.7089H158.393V51.081H158.052V49.3435H158.554L159.027 50.5738L159.499 49.3435H160V51.081H159.667L159.667 49.7089Z" fill="#5382A1"/>
<path d="M111.152 65.945C109.548 67.3362 107.854 68.1171 106.334 68.1171C104.164 68.1171 102.991 66.816 102.991 64.7292C102.991 62.4718 104.247 60.8214 109.287 60.8214H111.151L111.152 65.945ZM115.577 70.9384V55.4817C115.577 51.5332 113.325 48.9277 107.895 48.9277C104.726 48.9277 101.949 49.7105 99.6921 50.7087L100.343 53.4447C102.12 52.7925 104.421 52.1854 106.678 52.1854C109.806 52.1854 111.152 53.4447 111.152 56.0484V58.0019H109.59C101.991 58.0019 98.5627 60.9519 98.5627 65.3798C98.5627 69.2011 100.822 71.3732 105.075 71.3732C107.81 71.3732 109.851 70.2444 111.759 68.5925L112.105 70.9386L115.577 70.9384Z" fill="#5382A1"/>
<path d="M130.347 70.9386H124.827L118.184 49.3193H123.005L127.127 62.6024L128.043 66.5972C130.128 60.8214 131.603 54.9616 132.341 49.3193H137.03C135.774 56.4385 133.513 64.2526 130.347 70.9386Z" fill="#5382A1"/>
<path d="M151.522 65.945C149.915 67.3362 148.218 68.1171 146.698 68.1171C144.532 68.1171 143.356 66.816 143.356 64.7292C143.356 62.4718 144.616 60.8214 149.654 60.8214H151.522V65.945ZM155.947 70.9384V55.4817C155.947 51.5332 153.689 48.9277 148.266 48.9277C145.094 48.9277 142.316 49.7105 140.06 50.7087L140.711 53.4447C142.488 52.7925 144.793 52.1854 147.049 52.1854C150.174 52.1854 151.522 53.4447 151.522 56.0484V58.0019H149.958C142.356 58.0019 138.93 60.9519 138.93 65.3798C138.93 69.2011 141.187 71.3732 145.44 71.3732C148.176 71.3732 150.216 70.2444 152.127 68.5925L152.475 70.9386L155.947 70.9384Z" fill="#5382A1"/>
<path d="M93.71 74.6097C92.4483 76.4517 90.4106 77.909 88.1797 78.7335L85.9946 76.1622C87.6927 75.2909 89.149 73.8837 89.8256 72.5729C90.4109 71.4072 90.6531 69.9049 90.6531 66.3121V41.6304H95.3551V65.9739C95.3548 70.7772 94.9708 72.7175 93.71 74.6097Z" fill="#5382A1"/>
</svg>
