<svg width="120" height="120" fill="none" xmlns="http://www.w3.org/2000/svg"><g clip-path="url(#clip0_1146_694)"><path d="M15.36 35.1h20.194C33.547 42.555 32.4 51.015 32.4 60h2.7c0-9.038 1.159-17.524 3.169-24.9h20.38V60h2.7V35.1h20.382C83.741 42.476 84.9 50.962 84.9 60h2.704c0-8.985-1.148-17.445-3.15-24.9h20.19a50.794 50.794 0 016.51 24.9h2.703c0-29.693-24.157-53.85-53.85-53.85C30.315 6.15 6.15 30.307 6.15 60h2.7a50.789 50.789 0 016.51-24.9zm23.707-2.7C43.271 18.99 50.434 9.9 58.65 8.989v23.41H39.067zm22.283 0V8.989c8.216.91 15.375 10 19.582 23.41H61.35zm41.647 0H83.655c-3.139-10.196-7.943-18.2-13.691-22.56 13.833 2.745 25.646 11.092 33.033 22.56zM50.037 9.84C44.29 14.2 39.483 22.204 36.348 32.4H17.002c7.388-11.468 19.2-19.815 33.034-22.56zM84.9 71.25v2.025L71.25 69.9H60.94a8.82 8.82 0 00-5.824 2.194L53.34 73.65H35.1v-2.4a1.35 1.35 0 00-1.35-1.35H7.5v2.704h24.9v31.046H7.5v2.704h26.25a1.35 1.35 0 001.35-1.35v-2.4h3.577l8.055 11.407a5.1 5.1 0 006.74.769l2.41-1.695c.143.052.255.157.405.199.44.112.882.172 1.32.172.885 0 1.76-.232 2.543-.69l3.12-1.8c.57.21 1.159.356 1.77.356.862 0 1.74-.221 2.542-.682l3.124-1.804c.57.21 1.159.356 1.77.356.863 0 1.744-.221 2.546-.682 2.108-1.219 2.918-3.713 2.224-5.91h7.658v2.4c0 .746.603 1.35 1.35 1.35h26.25v-2.7h-24.9V72.6H112.5v-2.7H86.25a1.35 1.35 0 00-1.35 1.35zm-11.231 34.924a2.41 2.41 0 01-3.282-.878l-5.625-9.742-2.34 1.346 5.888 10.2-2.078 1.196a2.398 2.398 0 01-3.28-.874l-3.75-6.495-.938-1.623-2.337 1.346.938 1.62 3.75 6.495.007.007.26.447-2.082 1.2a2.353 2.353 0 01-1.811.24 2.392 2.392 0 01-1.455-1.107l-3.758-6.506-2.34 1.346 3.75 6.495.008.012.315.543-1.59 1.122c-.994.701-2.355.543-3.075-.24l-8.363-11.858a1.35 1.35 0 00-1.102-.574h-4.28V76.35h15.15l-7.072 6.187a2.504 2.504 0 00-.127 3.668 8.845 8.845 0 0011.79.652l3.761-3.01H64.8l9.746 19.042a2.419 2.419 0 01-.877 3.285zm2.37-6.274l-9.214-18.015a1.356 1.356 0 00-1.2-.735h-7.5c-.308 0-.604.105-.844.296l-4.132 3.308c-2.45 1.957-5.967 1.77-8.198-.18l11.944-10.452a6.118 6.118 0 014.046-1.518l9.983-.042L84.9 76.057V99.9h-8.861z" fill="#F25A3D"/></g><defs><clipPath id="clip0_1146_694"><path fill="#fff" d="M0 0h120v120H0z"/></clipPath></defs></svg>