<svg width="64" height="120" fill="none" xmlns="http://www.w3.org/2000/svg"><path fill-rule="evenodd" clip-rule="evenodd" d="M0 0h63.75v120H0V0zm3.75 3.75V15H60V3.75H3.75zm56.25 15H3.75v75H60v-75zm0 78.75H3.75v18.75H60V97.5zM39.375 11.25h-15V7.5h15v3.75zm-7.5 93.75a1.875 1.875 0 100 3.75 1.875 1.875 0 000-3.75zm-5.625 1.875a5.625 5.625 0 1111.25 0 5.625 5.625 0 01-11.25 0z" fill="#F25A3D"/><path d="M42.215 68v-4.648H31.883l-.56-1.596L42.411 48.26h1.932v13.244h3.052v1.848h-3.052V68h-2.128zm-8.232-6.496h8.232V51.396l-8.232 10.108zM15.44 68v-1.708l7.112-6.272c1.53-1.344 2.594-2.464 3.192-3.36.597-.896.896-1.83.896-2.8 0-1.12-.383-2.025-1.148-2.716-.766-.69-1.699-1.036-2.8-1.036-1.064 0-2.007.27-2.828.812-.803.541-1.615 1.39-2.436 2.548l-1.624-1.176c.952-1.419 1.96-2.464 3.024-3.136 1.064-.69 2.408-1.036 4.032-1.036 1.754 0 3.201.532 4.34 1.596 1.157 1.045 1.736 2.38 1.736 4.004 0 1.344-.364 2.539-1.092 3.584-.728 1.045-2.016 2.39-3.864 4.032l-5.236 4.648h10.388V68H15.44z" fill="#F25A3D"/></svg>