<svg width="120" height="120" fill="none" xmlns="http://www.w3.org/2000/svg"><path d="M53.376 48.917H51.72v-5.35h4.203a1.91 1.91 0 100-3.822H51.72V37.58a1.91 1.91 0 10-3.822 0v2.166h-1.656c-2.458 0-4.458 2-4.458 4.459v4.076c0 2.458 2 4.459 4.458 4.459h1.656v5.35h-4.204a1.91 1.91 0 000 3.822h4.204v2.165a1.91 1.91 0 103.822 0v-2.165h1.656c2.459 0 4.459-2 4.459-4.459v-4.076c0-2.459-2-4.459-4.46-4.459zm-5.478 0h-1.656a.638.638 0 01-.637-.637v-4.076c0-.352.286-.637.637-.637h1.656v5.35zm6.115 8.535a.638.638 0 01-.637.637h-1.657v-5.35h1.657c.35 0 .637.286.637.637v4.076z" fill="#F25A3D"/><path d="M119.44 50.76l-8.647-8.647a1.91 1.91 0 00-2.702 0l-8.473 8.473V1.911A1.91 1.91 0 0097.707 0H1.911A1.91 1.91 0 000 1.91v92.74a1.91 1.91 0 103.822 0V3.822h91.974v50.586L81.924 68.28h-4.727V33.376h6.243a1.91 1.91 0 001.91-1.911V25.35a1.91 1.91 0 00-1.91-1.91h-7.594L50.839 7.434a1.912 1.912 0 00-2.06 0L23.772 23.44h-7.594a1.91 1.91 0 00-1.91 1.911v6.115a1.91 1.91 0 001.91 1.91h6.242V68.28h-6.242a1.91 1.91 0 00-1.91 1.911v6.115a1.91 1.91 0 001.91 1.91h55.81l-14.28 14.28-.013.014c-.226.211-.404.48-.51.794l-4.323 12.971c-.488 1.464.952 2.905 2.417 2.417l12.972-4.324c.315-.105.585-.284.796-.512l.023-.022 11.696-11.922a1.91 1.91 0 00-2.728-2.676L67.693 99.78l-5.932-5.933 40.415-40.414 5.945 5.945-21.691 21.69a1.91 1.91 0 002.702 2.703l6.664-6.665v20.728H79.363a1.91 1.91 0 00-1.91 1.91v16.434H3.821V104.84a1.911 1.911 0 00-3.822 0v13.249A1.91 1.91 0 001.91 120h77.453c.5 0 .997-.206 1.351-.56l18.344-18.344c.354-.354.56-.85.56-1.35v-26.46l19.823-19.823a1.91 1.91 0 00-.001-2.702zm-55.241 50.93l-6.503 2.168 2.167-6.503 4.336 4.335zm-14.39-90.377l18.947 12.126H30.862l18.947-12.126zm-31.72 18.241v-2.293h63.44v2.293h-63.44zm55.287 3.822V68.28h-6.37V33.376h6.37zm-10.191 0V68.28H36.433V33.376h26.752zm-30.574 0V68.28h-6.369V33.376h6.37zM75.81 74.395H18.09v-2.293h60.013l-2.293 2.293zm5.465 39.081v-11.82h11.82l-11.82 11.82zm29.549-56.8l-5.945-5.945 4.564-4.564 5.945 5.945-4.564 4.564z" fill="#F25A3D"/><path d="M48.79 94.777H24.33a1.91 1.91 0 100 3.822h24.46a1.91 1.91 0 100-3.822zm2.038 10.191H24.331a1.911 1.911 0 000 3.822h26.497a1.911 1.911 0 000-3.822zM48.79 84.586H24.33a1.91 1.91 0 100 3.822h24.46a1.91 1.91 0 100-3.822z" fill="#F25A3D"/></svg>