<svg width="679" height="505" fill="none" xmlns="http://www.w3.org/2000/svg"><path fill-rule="evenodd" clip-rule="evenodd" d="M154.513 277.067a182.362 182.362 0 01-.798-17.067c0-25.937 5.485-50.592 15.36-72.869L218.715 209l-6.5 58.5-57.702 9.567z" fill="#FFEDEA"/><path fill-rule="evenodd" clip-rule="evenodd" d="M165.857 172.811L330.215 250.5l-56.5-94.5-37.546-58.478c-29.802 18.114-54.225 44.196-70.312 75.289z" fill="#FFE1DB"/><path fill-rule="evenodd" clip-rule="evenodd" d="M426.158 82.6l-95.943 167.9-49.5-102-36.182-67.565C271.382 67.537 301.668 60 333.715 60c33.35 0 64.794 8.163 92.443 22.6z" fill="#FFC9BF"/><path fill-rule="evenodd" clip-rule="evenodd" d="M538.398 291.302A211.71 211.71 0 00540.715 260c0-74.457-38.75-139.864-97.183-177.153L330.215 250.5l208.183 40.801z" fill="#FFA796"/><path fill-rule="evenodd" clip-rule="evenodd" d="M362.856 477.669L333.5 253l212.203 53.906c-19.266 88.717-92.049 157.472-182.847 170.763z" fill="#FF7C63"/><path fill-rule="evenodd" clip-rule="evenodd" d="M107 298.955L330.215 250.5l18.868 238.995c-5.08.335-10.204.505-15.368.505-113.748 0-208.21-82.572-226.715-191.045z" fill="#F25A3D"/><circle cx="333.715" cy="260" r="125" fill="#fff" stroke="url(#paint0_linear_867_496)" stroke-width="12"/><circle cx="333.715" cy="260" r="109.5" fill="#fff" stroke="url(#paint1_linear_867_496)" stroke-dasharray="6 6"/><path d="M282.06 271v-25.2h10.836c3.096 0 5.484.84 7.164 2.52 1.296 1.296 1.944 2.976 1.944 5.04 0 2.016-.624 3.648-1.872 4.896-1.248 1.248-2.904 2.064-4.968 2.448l7.74 10.296h-3.492l-7.308-9.792h-7.2V271h-2.844zm2.844-12.348h7.74c1.92 0 3.48-.468 4.68-1.404 1.2-.936 1.8-2.22 1.8-3.852 0-1.56-.576-2.772-1.728-3.636-1.128-.888-2.7-1.332-4.716-1.332h-7.776v10.224zm44.124 8.964c-2.424 2.544-5.508 3.816-9.252 3.816-3.744 0-6.816-1.272-9.216-3.816-2.4-2.544-3.6-5.616-3.6-9.216 0-3.576 1.212-6.636 3.636-9.18 2.424-2.568 5.508-3.852 9.252-3.852 3.744 0 6.816 1.272 9.216 3.816 2.4 2.544 3.6 5.616 3.6 9.216 0 3.576-1.212 6.648-3.636 9.216zm-16.308-1.836c1.896 2.016 4.272 3.024 7.128 3.024s5.208-.996 7.056-2.988c1.872-2.016 2.808-4.488 2.808-7.416 0-2.904-.948-5.364-2.844-7.38-1.872-2.016-4.236-3.024-7.092-3.024s-5.22 1.008-7.092 3.024c-1.848 1.992-2.772 4.452-2.772 7.38 0 2.904.936 5.364 2.808 7.38zm25.942 5.22v-25.2h2.844v22.572h14.184V271h-17.028zm22.289 0v-25.2h18.216v2.592h-15.372v8.604h13.752v2.592h-13.752v8.82h15.552V271h-18.396z" fill="#000"/><circle cx="18.5" cy="18.5" r="14" transform="matrix(-1 0 0 1 173 213)" fill="#fff" stroke="url(#paint2_linear_867_496)" stroke-width="9"/><circle cx="4.5" cy="4.5" r="4" transform="matrix(-1 0 0 1 159 227)" fill="#fff" stroke="url(#paint3_linear_867_496)"/><circle cx="18.5" cy="18.5" r="14" transform="matrix(-1 0 0 1 214 113)" fill="#fff" stroke="url(#paint4_linear_867_496)" stroke-width="9"/><circle cx="4.5" cy="4.5" r="4" transform="matrix(-1 0 0 1 200 127)" fill="#fff" stroke="url(#paint5_linear_867_496)"/><circle cx="18.5" cy="18.5" r="14" transform="matrix(-1 0 0 1 354 41)" fill="#fff" stroke="url(#paint6_linear_867_496)" stroke-width="9"/><circle cx="4.5" cy="4.5" r="4" transform="matrix(-1 0 0 1 340 55)" fill="#fff" stroke="url(#paint7_linear_867_496)"/><circle cx="18.5" cy="18.5" r="14" transform="matrix(-1 0 0 1 541 159)" fill="#fff" stroke="url(#paint8_linear_867_496)" stroke-width="9"/><circle cx="4.5" cy="4.5" r="4" transform="matrix(-1 0 0 1 527 173)" fill="#fff" stroke="url(#paint9_linear_867_496)"/><circle cx="18.5" cy="18.5" r="14" transform="matrix(-1 0 0 1 502 398)" fill="#fff" stroke="url(#paint10_linear_867_496)" stroke-width="9"/><circle cx="4.5" cy="4.5" r="4" transform="matrix(-1 0 0 1 488 412)" fill="#fff" stroke="url(#paint11_linear_867_496)"/><circle cx="18.5" cy="18.5" r="14" transform="matrix(-1 0 0 1 210 417)" fill="#fff" stroke="url(#paint12_linear_867_496)" stroke-width="9"/><circle cx="4.5" cy="4.5" r="4" transform="matrix(-1 0 0 1 196 431)" fill="#fff" stroke="url(#paint13_linear_867_496)"/><path d="M6.755 232.264c-1.906 0-3.593-.609-5.06-1.826l1.782-2.574c1.1.88 2.222 1.32 3.366 1.32.91 0 1.628-.315 2.156-.946.528-.631.851-1.481.968-2.552-.821.704-1.862 1.056-3.124 1.056-1.686 0-3.028-.44-4.026-1.32-.982-.895-1.474-2.127-1.474-3.696 0-1.555.543-2.838 1.628-3.85 1.1-1.027 2.516-1.54 4.246-1.54 1.012 0 1.856.132 2.53.396.69.264 1.328.689 1.914 1.276 1.218 1.217 1.826 3.168 1.826 5.852 0 2.552-.586 4.591-1.76 6.116-1.173 1.525-2.83 2.288-4.972 2.288zm-1.32-8.976c.484.425 1.137.638 1.958.638.822 0 1.467-.213 1.936-.638.47-.44.704-1.005.704-1.694 0-.689-.242-1.254-.726-1.694-.484-.44-1.144-.66-1.98-.66-.821 0-1.466.22-1.936.66-.454.425-.682.997-.682 1.716 0 .689.242 1.247.726 1.672zm16.657-.132c-.704.763-1.606 1.144-2.706 1.144-1.1 0-1.995-.374-2.684-1.122-.69-.763-1.034-1.701-1.034-2.816 0-1.115.352-2.046 1.056-2.794.704-.763 1.606-1.144 2.706-1.144 1.1 0 1.994.381 2.684 1.144.69.748 1.034 1.679 1.034 2.794 0 1.1-.352 2.031-1.056 2.794zM17.208 232l11.242-15.4h2.618L19.826 232h-2.618zm14.344-.968c-.704.763-1.606 1.144-2.706 1.144-1.1 0-1.995-.374-2.684-1.122-.69-.763-1.034-1.701-1.034-2.816 0-1.115.352-2.046 1.056-2.794.704-.763 1.606-1.144 2.706-1.144 1.1 0 1.994.381 2.684 1.144.69.748 1.034 1.679 1.034 2.794 0 1.1-.352 2.031-1.056 2.794zm-12.122-8.734c.44 0 .784-.183 1.034-.55.25-.381.374-.843.374-1.386 0-.528-.14-.983-.418-1.364-.264-.381-.609-.572-1.034-.572-.44 0-.785.183-1.034.55-.25.367-.374.829-.374 1.386 0 .528.132.983.396 1.364.278.381.63.572 1.056.572zm9.46 7.876c.44 0 .784-.183 1.034-.55.25-.381.374-.843.374-1.386 0-.528-.14-.983-.418-1.364-.264-.381-.609-.572-1.034-.572-.44 0-.785.183-1.034.55-.25.367-.374.829-.374 1.386 0 .528.132.983.396 1.364.278.381.63.572 1.056.572z" fill="#F25A3D"/><path d="M41.06 232l7.017-15.51h1.628L56.723 232h-1.87l-1.804-4.07h-8.382L42.841 232H41.06zm4.29-5.632h7.017l-3.498-7.854-3.52 7.854zM59.473 232v-11.374h1.694v2.97c.44-.983 1.063-1.767 1.87-2.354.807-.587 1.73-.858 2.772-.814v1.826h-.132c-1.305 0-2.383.455-3.234 1.364-.85.909-1.276 2.193-1.276 3.85V232h-1.694zm8.916 0v-16.06h1.694v6.666c.895-1.481 2.193-2.222 3.894-2.222 1.35 0 2.413.418 3.19 1.254.777.821 1.166 1.921 1.166 3.3V232H76.64v-6.644c0-1.071-.279-1.907-.836-2.508-.543-.616-1.313-.924-2.31-.924-.983 0-1.797.33-2.442.99-.645.66-.968 1.518-.968 2.574V232H68.39zm13.6-13.86v-1.87h1.937v1.87H81.99zM82.1 232v-11.374h1.695V232H82.1zm9.432.198c-.983 0-1.767-.257-2.354-.77-.572-.528-.858-1.342-.858-2.442v-6.864h-1.584v-1.496h1.584v-3.432h1.694v3.432h3.608v1.496h-3.608v6.644c0 1.261.638 1.892 1.914 1.892.557 0 1.107-.132 1.65-.396v1.452a4.338 4.338 0 01-2.046.484zm5.778-5.192c.118 1.159.55 2.083 1.298 2.772.763.675 1.665 1.012 2.706 1.012 1.364 0 2.56-.535 3.586-1.606l1.056.946c-1.276 1.423-2.838 2.134-4.686 2.134-1.598 0-2.948-.55-4.048-1.65-1.085-1.115-1.628-2.545-1.628-4.29 0-1.657.52-3.058 1.562-4.202 1.042-1.159 2.34-1.738 3.894-1.738 1.628 0 2.919.572 3.872 1.716.954 1.144 1.43 2.581 1.43 4.312 0 .22-.007.418-.022.594h-9.02zm0-1.364h7.326c-.102-1.1-.469-2.009-1.1-2.728-.616-.733-1.459-1.1-2.53-1.1-.968 0-1.796.359-2.486 1.078-.69.719-1.092 1.635-1.21 2.75zm17.134 6.622c-1.643 0-3.029-.579-4.158-1.738-1.115-1.173-1.672-2.574-1.672-4.202 0-1.628.557-3.021 1.672-4.18 1.129-1.173 2.515-1.76 4.158-1.76 1.76 0 3.278.675 4.554 2.024l-1.078 1.144c-1.056-1.115-2.222-1.672-3.498-1.672-1.144 0-2.112.433-2.904 1.298-.778.851-1.166 1.899-1.166 3.146 0 1.232.396 2.281 1.188 3.146.806.851 1.804 1.276 2.992 1.276 1.217 0 2.361-.572 3.432-1.716l1.122 1.034c-1.32 1.467-2.868 2.2-4.642 2.2zm11.248-.066c-.983 0-1.767-.257-2.354-.77-.572-.528-.858-1.342-.858-2.442v-6.864h-1.584v-1.496h1.584v-3.432h1.694v3.432h3.608v1.496h-3.608v6.644c0 1.261.638 1.892 1.914 1.892.557 0 1.107-.132 1.65-.396v1.452a4.338 4.338 0 01-2.046.484z" fill="#000"/><path d="M54.316 119v-12.078l-2.684.66-.704-2.772 4.422-1.32h2.31V119h-3.344zm6.444 0v-2.684l5.126-4.202c1.012-.836 1.708-1.503 2.09-2.002a2.776 2.776 0 00.572-1.694c0-.631-.191-1.122-.572-1.474-.382-.352-.88-.528-1.496-.528-.572 0-1.093.161-1.562.484-.455.308-.983.836-1.584 1.584l-2.376-1.914c.806-1.1 1.635-1.907 2.486-2.42.865-.513 1.95-.77 3.256-.77 1.598 0 2.882.44 3.85 1.32.968.865 1.452 2.024 1.452 3.476 0 .836-.162 1.591-.484 2.266a6.513 6.513 0 01-1.254 1.76c-.514.499-1.284 1.144-2.31 1.936l-2.508 1.936h6.71V119H60.76zm20.043-8.844c-.704.763-1.606 1.144-2.706 1.144-1.1 0-1.995-.374-2.684-1.122-.69-.763-1.034-1.701-1.034-2.816 0-1.115.352-2.046 1.056-2.794.704-.763 1.606-1.144 2.706-1.144 1.1 0 1.994.381 2.684 1.144.689.748 1.034 1.679 1.034 2.794 0 1.1-.352 2.031-1.056 2.794zM75.919 119l11.242-15.4h2.618L78.537 119h-2.618zm14.344-.968c-.704.763-1.606 1.144-2.706 1.144-1.1 0-1.995-.374-2.684-1.122-.69-.763-1.034-1.701-1.034-2.816 0-1.115.352-2.046 1.056-2.794.704-.763 1.606-1.144 2.706-1.144 1.1 0 1.994.381 2.684 1.144.689.748 1.034 1.679 1.034 2.794 0 1.1-.352 2.031-1.056 2.794zm-12.122-8.734c.44 0 .784-.183 1.034-.55.249-.381.374-.843.374-1.386 0-.528-.14-.983-.418-1.364-.264-.381-.609-.572-1.034-.572-.44 0-.785.183-1.034.55-.25.367-.374.829-.374 1.386 0 .528.132.983.396 1.364.278.381.63.572 1.056.572zm9.46 7.876c.44 0 .784-.183 1.034-.55.249-.381.374-.843.374-1.386 0-.528-.14-.983-.418-1.364-.264-.381-.609-.572-1.034-.572-.44 0-.785.183-1.034.55-.25.367-.374.829-.374 1.386 0 .528.132.983.396 1.364.278.381.63.572 1.056.572z" fill="#F25A3D"/><path d="M107.25 119.242c-1.951 0-3.505-.579-4.664-1.738-1.159-1.173-1.738-2.823-1.738-4.95V103.6h1.738v8.844c0 1.657.411 2.941 1.232 3.85.836.895 1.995 1.342 3.476 1.342 1.452 0 2.589-.433 3.41-1.298.821-.865 1.232-2.127 1.232-3.784V103.6h1.738v8.822c0 2.2-.579 3.887-1.738 5.06-1.159 1.173-2.721 1.76-4.686 1.76zm10.687-.242v-15.4h1.738V119h-1.738zm3.609 2.816l10.208-20.372h1.562l-10.208 20.372h-1.562zm19.972-2.574c-1.951 0-3.506-.579-4.664-1.738-1.159-1.173-1.738-2.823-1.738-4.95V103.6h1.738v8.844c0 1.657.41 2.941 1.232 3.85.836.895 1.994 1.342 3.476 1.342 1.452 0 2.588-.433 3.41-1.298.821-.865 1.232-2.127 1.232-3.784V103.6h1.738v8.822c0 2.2-.58 3.887-1.738 5.06-1.159 1.173-2.721 1.76-4.686 1.76zm9.152-.242l5.918-7.854-5.698-7.546h2.046l4.73 6.292 4.686-6.292h2.024l-5.698 7.524 5.918 7.876h-2.068l-4.928-6.622-4.928 6.622h-2.002z" fill="#000"/><path d="M265.032 21V8.922l-2.684.66-.704-2.772 4.422-1.32h2.31V21h-3.344zm9.281 0V8.922l-2.684.66-.704-2.772 4.422-1.32h2.31V21h-3.344zm12.78-8.844c-.704.763-1.606 1.144-2.706 1.144-1.1 0-1.995-.374-2.684-1.122-.69-.763-1.034-1.701-1.034-2.816 0-1.115.352-2.046 1.056-2.794.704-.763 1.606-1.144 2.706-1.144 1.1 0 1.994.381 2.684 1.144.689.748 1.034 1.68 1.034 2.794 0 1.1-.352 2.031-1.056 2.794zM282.209 21l11.242-15.4h2.618L284.827 21h-2.618zm14.344-.968c-.704.763-1.606 1.144-2.706 1.144-1.1 0-1.995-.374-2.684-1.122-.69-.763-1.034-1.701-1.034-2.816 0-1.115.352-2.046 1.056-2.794.704-.763 1.606-1.144 2.706-1.144 1.1 0 1.994.381 2.684 1.144.689.748 1.034 1.68 1.034 2.794 0 1.1-.352 2.031-1.056 2.794zm-12.122-8.734c.44 0 .784-.183 1.034-.55.249-.381.374-.843.374-1.386 0-.528-.14-.983-.418-1.364-.264-.381-.609-.572-1.034-.572-.44 0-.785.183-1.034.55-.25.367-.374.829-.374 1.386 0 .528.132.983.396 1.364.278.381.63.572 1.056.572zm9.46 7.876c.44 0 .784-.183 1.034-.55.249-.381.374-.843.374-1.386 0-.528-.14-.983-.418-1.364-.264-.381-.609-.572-1.034-.572-.44 0-.785.183-1.034.55-.25.367-.374.829-.374 1.386 0 .528.132.983.396 1.364.278.381.63.572 1.056.572z" fill="#F25A3D"/><path d="M307.38 21V5.6h1.76l5.61 8.404 5.61-8.404h1.76V21h-1.738V8.526l-5.61 8.25h-.088l-5.61-8.228V21h-1.694zm22.202.242c-1.159 0-2.156-.315-2.992-.946-.836-.63-1.254-1.51-1.254-2.64 0-1.188.44-2.105 1.32-2.75.88-.645 2.06-.968 3.542-.968 1.173 0 2.332.161 3.476.484v-.352c0-.997-.294-1.76-.88-2.288-.587-.528-1.416-.792-2.486-.792-1.115 0-2.266.271-3.454.814l-.506-1.386c1.408-.645 2.786-.968 4.136-.968 1.613 0 2.838.418 3.674 1.254.792.792 1.188 1.907 1.188 3.344V21h-1.672v-1.694c-1.012 1.29-2.376 1.936-4.092 1.936zm.33-1.364c1.056 0 1.95-.286 2.684-.858.733-.572 1.1-1.305 1.1-2.2v-1.056a11.902 11.902 0 00-3.322-.484c-1.042 0-1.856.213-2.442.638-.587.41-.88.975-.88 1.694 0 .69.271 1.24.814 1.65.557.41 1.239.616 2.046.616zM338.934 21V9.626h1.694v1.98c.895-1.481 2.193-2.222 3.894-2.222 1.349 0 2.413.418 3.19 1.254.777.821 1.166 1.921 1.166 3.3V21h-1.694v-6.644c0-1.07-.279-1.907-.836-2.508-.543-.616-1.313-.924-2.31-.924-.983 0-1.797.33-2.442.99-.645.66-.968 1.518-.968 2.574V21h-1.694zm16.945.242c-1.159 0-2.156-.315-2.992-.946-.836-.63-1.254-1.51-1.254-2.64 0-1.188.44-2.105 1.32-2.75.88-.645 2.06-.968 3.542-.968 1.173 0 2.332.161 3.476.484v-.352c0-.997-.294-1.76-.88-2.288-.587-.528-1.416-.792-2.486-.792-1.115 0-2.266.271-3.454.814l-.506-1.386c1.408-.645 2.786-.968 4.136-.968 1.613 0 2.838.418 3.674 1.254.792.792 1.188 1.907 1.188 3.344V21h-1.672v-1.694c-1.012 1.29-2.376 1.936-4.092 1.936zm.33-1.364c1.056 0 1.95-.286 2.684-.858.733-.572 1.1-1.305 1.1-2.2v-1.056a11.902 11.902 0 00-3.322-.484c-1.042 0-1.856.213-2.442.638-.587.41-.88.975-.88 1.694 0 .69.271 1.24.814 1.65.557.41 1.239.616 2.046.616zm14.06 4.686c-1.921 0-3.645-.528-5.17-1.584l.77-1.32c1.335.968 2.794 1.452 4.378 1.452 1.276 0 2.281-.352 3.014-1.056.748-.69 1.122-1.687 1.122-2.992v-1.342c-1.203 1.599-2.691 2.398-4.466 2.398-1.437 0-2.691-.491-3.762-1.474-1.056-.997-1.584-2.295-1.584-3.894 0-1.599.535-2.89 1.606-3.872 1.071-.997 2.317-1.496 3.74-1.496 1.819 0 3.3.763 4.444 2.288V9.626h1.694v9.394c0 1.716-.484 3.058-1.452 4.026-1.012 1.012-2.457 1.518-4.334 1.518zm-.022-5.94a4.3 4.3 0 002.926-1.1c.836-.733 1.254-1.665 1.254-2.794 0-1.13-.418-2.053-1.254-2.772-.821-.719-1.797-1.078-2.926-1.078-1.115 0-2.053.36-2.816 1.078-.748.704-1.122 1.635-1.122 2.794 0 1.115.381 2.039 1.144 2.772.777.733 1.709 1.1 2.794 1.1zm10.605-2.618c.118 1.159.55 2.083 1.298 2.772.763.675 1.665 1.012 2.706 1.012 1.364 0 2.56-.535 3.586-1.606l1.056.946c-1.276 1.423-2.838 2.134-4.686 2.134-1.598 0-2.948-.55-4.048-1.65-1.085-1.115-1.628-2.545-1.628-4.29 0-1.657.521-3.058 1.562-4.202 1.042-1.159 2.34-1.738 3.894-1.738 1.628 0 2.919.572 3.872 1.716.954 1.144 1.43 2.581 1.43 4.312 0 .22-.007.418-.022.594h-9.02zm0-1.364h7.326c-.102-1.1-.469-2.01-1.1-2.728-.616-.733-1.459-1.1-2.53-1.1-.968 0-1.796.36-2.486 1.078-.689.719-1.092 1.635-1.21 2.75zM392.86 21V9.626h1.694v2.97c.44-.983 1.063-1.767 1.87-2.354.806-.587 1.73-.858 2.772-.814v1.826h-.132c-1.306 0-2.384.455-3.234 1.364-.851.91-1.276 2.193-1.276 3.85V21h-1.694z" fill="#000"/><path d="M552.254 165v-12.078l-2.684.66-.704-2.772 4.422-1.32h2.31V165h-3.344zm12.075.264c-2.229 0-4.151-.77-5.764-2.31l2.046-2.442c1.232 1.115 2.457 1.672 3.674 1.672.807 0 1.437-.191 1.892-.572.455-.381.682-.917.682-1.606 0-.645-.249-1.151-.748-1.518-.499-.381-1.159-.572-1.98-.572s-1.679.191-2.574.572l-1.958-1.298.44-7.59h9.46v2.97h-6.556l-.176 2.662a8.345 8.345 0 012.024-.264c1.599 0 2.897.411 3.894 1.232.997.821 1.496 2.068 1.496 3.74 0 1.628-.535 2.926-1.606 3.894-1.056.953-2.471 1.43-4.246 1.43zm14.562-9.108c-.704.763-1.606 1.144-2.706 1.144-1.1 0-1.995-.374-2.684-1.122-.69-.763-1.034-1.701-1.034-2.816 0-1.115.352-2.046 1.056-2.794.704-.763 1.606-1.144 2.706-1.144 1.1 0 1.994.381 2.684 1.144.689.748 1.034 1.679 1.034 2.794 0 1.1-.352 2.031-1.056 2.794zM574.007 165l11.242-15.4h2.618L576.625 165h-2.618zm14.344-.968c-.704.763-1.606 1.144-2.706 1.144-1.1 0-1.995-.374-2.684-1.122-.69-.763-1.034-1.701-1.034-2.816 0-1.115.352-2.046 1.056-2.794.704-.763 1.606-1.144 2.706-1.144 1.1 0 1.994.381 2.684 1.144.689.748 1.034 1.679 1.034 2.794 0 1.1-.352 2.031-1.056 2.794zm-12.122-8.734c.44 0 .784-.183 1.034-.55.249-.381.374-.843.374-1.386 0-.528-.14-.983-.418-1.364-.264-.381-.609-.572-1.034-.572-.44 0-.785.183-1.034.55-.25.367-.374.829-.374 1.386 0 .528.132.983.396 1.364.278.381.63.572 1.056.572zm9.46 7.876c.44 0 .784-.183 1.034-.55.249-.381.374-.843.374-1.386 0-.528-.14-.983-.418-1.364-.264-.381-.609-.572-1.034-.572-.44 0-.785.183-1.034.55-.25.367-.374.829-.374 1.386 0 .528.132.983.396 1.364.278.381.63.572 1.056.572z" fill="#F25A3D"/><path d="M597.858 165l7.018-15.51h1.628l7.018 15.51h-1.87l-1.804-4.07h-8.382L599.64 165h-1.782zm4.29-5.632h7.018l-3.498-7.854-3.52 7.854zM616.273 165v-11.374h1.694v1.98c.895-1.481 2.193-2.222 3.894-2.222 1.349 0 2.413.418 3.19 1.254.777.821 1.166 1.921 1.166 3.3V165h-1.694v-6.644c0-1.071-.279-1.907-.836-2.508-.543-.616-1.313-.924-2.31-.924-.983 0-1.797.33-2.442.99-.645.66-.968 1.518-.968 2.574V165h-1.694zm16.945.242c-1.159 0-2.156-.315-2.992-.946-.836-.631-1.254-1.511-1.254-2.64 0-1.188.44-2.105 1.32-2.75.88-.645 2.06-.968 3.542-.968 1.173 0 2.332.161 3.476.484v-.352c0-.997-.294-1.76-.88-2.288-.587-.528-1.416-.792-2.486-.792-1.115 0-2.266.271-3.454.814l-.506-1.386c1.408-.645 2.786-.968 4.136-.968 1.613 0 2.838.418 3.674 1.254.792.792 1.188 1.907 1.188 3.344V165h-1.672v-1.694c-1.012 1.291-2.376 1.936-4.092 1.936zm.33-1.364c1.056 0 1.95-.286 2.684-.858.733-.572 1.1-1.305 1.1-2.2v-1.056a11.89 11.89 0 00-3.322-.484c-1.042 0-1.856.213-2.442.638-.587.411-.88.975-.88 1.694 0 .689.271 1.239.814 1.65.557.411 1.239.616 2.046.616zm9.176 1.122v-16.06h1.694V165h-1.694zm7.385 3.586a5.53 5.53 0 01-2.42-.572l.572-1.342a3.841 3.841 0 001.782.418c.513 0 .946-.161 1.298-.484.352-.308.697-.858 1.034-1.65l-5.17-11.33h1.87l4.136 9.482 3.652-9.482h1.804l-4.774 11.748c-.484 1.159-1.019 1.98-1.606 2.464-.587.499-1.313.748-2.178.748zm14.57-3.366a7.675 7.675 0 01-2.508-.44 7.643 7.643 0 01-2.2-1.232l.858-1.21c1.291.968 2.604 1.452 3.938 1.452.69 0 1.254-.169 1.694-.506.44-.337.66-.785.66-1.342 0-.513-.242-.909-.726-1.188-.469-.279-1.173-.55-2.112-.814a15.258 15.258 0 01-1.364-.44 9.854 9.854 0 01-1.144-.55c-.425-.249-.74-.557-.946-.924-.205-.381-.308-.829-.308-1.342 0-.968.36-1.753 1.078-2.354.734-.601 1.665-.902 2.794-.902 1.467 0 2.831.418 4.092 1.254l-.77 1.276c-1.129-.733-2.251-1.1-3.366-1.1-.66 0-1.195.161-1.606.484a1.46 1.46 0 00-.594 1.21c0 .205.059.396.176.572.118.176.25.323.396.44.147.117.374.242.682.374.323.132.58.227.77.286.191.059.492.154.902.286.543.161.99.315 1.342.462.352.147.726.345 1.122.594.396.249.69.565.88.946.206.367.308.799.308 1.298 0 1.056-.381 1.892-1.144 2.508-.762.601-1.73.902-2.904.902zm10.787-.022c-.983 0-1.768-.257-2.354-.77-.572-.528-.858-1.342-.858-2.442v-6.864h-1.584v-1.496h1.584v-3.432h1.694v3.432h3.608v1.496h-3.608v6.644c0 1.261.638 1.892 1.914 1.892.557 0 1.107-.132 1.65-.396v1.452a4.338 4.338 0 01-2.046.484z" fill="#000"/><path d="M531.194 448v-12.078l-2.684.66-.704-2.772 4.422-1.32h2.31V448h-3.344zm12.824.264c-1.863 0-3.344-.55-4.444-1.65-1.218-1.217-1.826-3.175-1.826-5.874 0-2.493.572-4.517 1.716-6.072 1.144-1.555 2.823-2.332 5.038-2.332 1.789 0 3.395.565 4.818 1.694l-1.782 2.618c-.558-.425-1.071-.733-1.54-.924-.455-.205-.99-.308-1.606-.308-.91 0-1.628.33-2.156.99-.514.645-.829 1.503-.946 2.574.997-.66 2.06-.99 3.19-.99 1.584 0 2.882.433 3.894 1.298s1.518 2.083 1.518 3.652c0 1.555-.558 2.831-1.672 3.828-1.115.997-2.516 1.496-4.202 1.496zm-2.09-3.542c.484.425 1.136.638 1.958.638.821 0 1.466-.213 1.936-.638.469-.425.704-.983.704-1.672 0-.66-.242-1.195-.726-1.606-.484-.425-1.137-.638-1.958-.638-.822 0-1.467.205-1.936.616-.47.411-.704.961-.704 1.65 0 .66.242 1.21.726 1.65zm16.612-5.566c-.704.763-1.606 1.144-2.706 1.144-1.1 0-1.995-.374-2.684-1.122-.689-.763-1.034-1.701-1.034-2.816 0-1.115.352-2.046 1.056-2.794.704-.763 1.606-1.144 2.706-1.144 1.1 0 1.995.381 2.684 1.144.689.748 1.034 1.679 1.034 2.794 0 1.1-.352 2.031-1.056 2.794zM553.656 448l11.242-15.4h2.618L556.274 448h-2.618zm14.344-.968c-.704.763-1.606 1.144-2.706 1.144-1.1 0-1.995-.374-2.684-1.122-.689-.763-1.034-1.701-1.034-2.816 0-1.115.352-2.046 1.056-2.794.704-.763 1.606-1.144 2.706-1.144 1.1 0 1.995.381 2.684 1.144.689.748 1.034 1.679 1.034 2.794 0 1.1-.352 2.031-1.056 2.794zm-12.122-8.734c.44 0 .785-.183 1.034-.55.249-.381.374-.843.374-1.386 0-.528-.139-.983-.418-1.364-.264-.381-.609-.572-1.034-.572-.44 0-.785.183-1.034.55-.249.367-.374.829-.374 1.386 0 .528.132.983.396 1.364.279.381.631.572 1.056.572zm9.46 7.876c.44 0 .785-.183 1.034-.55.249-.381.374-.843.374-1.386 0-.528-.139-.983-.418-1.364-.264-.381-.609-.572-1.034-.572-.44 0-.785.183-1.034.55-.249.367-.374.829-.374 1.386 0 .528.132.983.396 1.364.279.381.631.572 1.056.572z" fill="#F25A3D"/><path d="M592.863 448.462l-2.024-1.848c-1.378 1.1-2.999 1.65-4.862 1.65-2.288 0-4.165-.777-5.632-2.332-1.466-1.555-2.2-3.432-2.2-5.632 0-2.185.741-4.055 2.222-5.61 1.482-1.569 3.366-2.354 5.654-2.354s4.166.777 5.632 2.332c1.467 1.555 2.2 3.432 2.2 5.632 0 1.98-.616 3.703-1.848 5.17l2.046 1.694-1.188 1.298zm-6.842-1.804c1.35 0 2.53-.389 3.542-1.166l-2.86-2.442 1.166-1.298 2.838 2.574c.895-1.159 1.342-2.501 1.342-4.026 0-1.775-.579-3.278-1.738-4.51-1.144-1.232-2.588-1.848-4.334-1.848-1.745 0-3.19.616-4.334 1.848-1.129 1.217-1.694 2.721-1.694 4.51 0 1.775.572 3.278 1.716 4.51 1.159 1.232 2.611 1.848 4.356 1.848zM596.199 448l7.018-15.51h1.628l7.018 15.51h-1.87l-1.804-4.07h-8.382l-1.826 4.07h-1.782zm4.29-5.632h7.018l-3.498-7.854-3.52 7.854z" fill="#000"/><path d="M21.277 496.264c-2.508 0-4.51-.887-6.006-2.662l2.332-2.222c1.1 1.232 2.34 1.848 3.718 1.848.646 0 1.166-.169 1.563-.506.41-.352.616-.821.616-1.408 0-.631-.265-1.115-.793-1.452-.527-.337-1.268-.506-2.222-.506h-1.407l-.529-2.156 3.675-3.696h-6.05V480.6h10.405v2.552l-3.893 3.718c2.757.469 4.136 1.921 4.136 4.356 0 1.481-.506 2.691-1.518 3.63-.998.939-2.34 1.408-4.026 1.408zm13.36 0c-1.907 0-3.594-.609-5.06-1.826l1.781-2.574c1.1.88 2.222 1.32 3.366 1.32.91 0 1.628-.315 2.156-.946.528-.631.85-1.481.968-2.552-.821.704-1.862 1.056-3.124 1.056-1.686 0-3.028-.44-4.026-1.32-.983-.895-1.474-2.127-1.474-3.696 0-1.555.543-2.838 1.628-3.85 1.1-1.027 2.515-1.54 4.246-1.54 1.012 0 1.855.132 2.53.396.69.264 1.328.689 1.914 1.276 1.218 1.217 1.826 3.168 1.826 5.852 0 2.552-.587 4.591-1.76 6.116-1.173 1.525-2.83 2.288-4.972 2.288zm-1.32-8.976c.483.425 1.136.638 1.957.638.822 0 1.467-.213 1.936-.638.47-.44.704-1.005.704-1.694 0-.689-.242-1.254-.726-1.694-.484-.44-1.144-.66-1.98-.66-.821 0-1.466.22-1.936.66-.454.425-.682.997-.682 1.716 0 .689.242 1.247.726 1.672zm16.656-.132c-.704.763-1.606 1.144-2.706 1.144-1.1 0-1.995-.374-2.684-1.122-.69-.763-1.034-1.701-1.034-2.816 0-1.115.352-2.046 1.056-2.794.704-.763 1.606-1.144 2.706-1.144 1.1 0 1.994.381 2.684 1.144.689.748 1.034 1.679 1.034 2.794 0 1.1-.352 2.031-1.056 2.794zM45.089 496l11.242-15.4h2.618L47.707 496h-2.618zm14.344-.968c-.704.763-1.606 1.144-2.706 1.144-1.1 0-1.995-.374-2.684-1.122-.69-.763-1.034-1.701-1.034-2.816 0-1.115.352-2.046 1.056-2.794.704-.763 1.606-1.144 2.706-1.144 1.1 0 1.994.381 2.684 1.144.689.748 1.034 1.679 1.034 2.794 0 1.1-.352 2.031-1.056 2.794zm-12.122-8.734c.44 0 .784-.183 1.034-.55.249-.381.374-.843.374-1.386 0-.528-.14-.983-.418-1.364-.264-.381-.61-.572-1.034-.572-.44 0-.785.183-1.034.55-.25.367-.374.829-.374 1.386 0 .528.132.983.396 1.364.278.381.63.572 1.056.572zm9.46 7.876c.44 0 .784-.183 1.034-.55.249-.381.374-.843.374-1.386 0-.528-.14-.983-.418-1.364-.264-.381-.61-.572-1.034-.572-.44 0-.785.183-1.034.55-.25.367-.374.829-.374 1.386 0 .528.132.983.396 1.364.278.381.63.572 1.056.572z" fill="#F25A3D"/><path d="M70.26 496v-15.4h5.346c2.405 0 4.37.733 5.896 2.2 1.525 1.452 2.288 3.285 2.288 5.5 0 2.2-.77 4.033-2.31 5.5-1.525 1.467-3.483 2.2-5.874 2.2H70.26zm1.738-1.606h3.608c1.921 0 3.461-.572 4.62-1.716 1.173-1.159 1.76-2.618 1.76-4.378 0-1.745-.587-3.197-1.76-4.356-1.173-1.159-2.713-1.738-4.62-1.738h-3.608v12.188zm16.197-3.388c.117 1.159.55 2.083 1.298 2.772.763.675 1.665 1.012 2.706 1.012 1.364 0 2.56-.535 3.586-1.606l1.056.946c-1.276 1.423-2.838 2.134-4.686 2.134-1.599 0-2.948-.55-4.048-1.65-1.085-1.115-1.628-2.545-1.628-4.29 0-1.657.52-3.058 1.562-4.202 1.041-1.159 2.34-1.738 3.894-1.738 1.628 0 2.919.572 3.872 1.716.953 1.144 1.43 2.581 1.43 4.312 0 .22-.007.418-.022.594h-9.02zm0-1.364h7.326c-.103-1.1-.47-2.009-1.1-2.728-.616-.733-1.46-1.1-2.53-1.1-.968 0-1.797.359-2.486 1.078-.69.719-1.093 1.635-1.21 2.75zm15.255 6.446l-4.928-11.462h1.87l3.828 9.438 3.85-9.438h1.826l-4.95 11.462h-1.496zm9.452-5.082c.117 1.159.55 2.083 1.298 2.772.763.675 1.665 1.012 2.706 1.012 1.364 0 2.559-.535 3.586-1.606l1.056.946c-1.276 1.423-2.838 2.134-4.686 2.134-1.599 0-2.948-.55-4.048-1.65-1.085-1.115-1.628-2.545-1.628-4.29 0-1.657.521-3.058 1.562-4.202 1.041-1.159 2.339-1.738 3.894-1.738 1.628 0 2.919.572 3.872 1.716.953 1.144 1.43 2.581 1.43 4.312 0 .22-.007.418-.022.594h-9.02zm0-1.364h7.326c-.103-1.1-.469-2.009-1.1-2.728-.616-.733-1.459-1.1-2.53-1.1-.968 0-1.797.359-2.486 1.078-.689.719-1.093 1.635-1.21 2.75zM125.064 496v-16.06h1.694V496h-1.694zm15.063-1.474c-1.144 1.159-2.559 1.738-4.246 1.738-1.687 0-3.095-.579-4.224-1.738-1.115-1.159-1.672-2.559-1.672-4.202 0-1.628.565-3.021 1.694-4.18 1.144-1.173 2.559-1.76 4.246-1.76 1.687 0 3.095.579 4.224 1.738s1.694 2.559 1.694 4.202c0 1.628-.572 3.029-1.716 4.202zm-4.202.22c1.217 0 2.215-.425 2.992-1.276.792-.851 1.188-1.899 1.188-3.146 0-1.232-.411-2.281-1.232-3.146-.807-.865-1.804-1.298-2.992-1.298-1.217 0-2.215.433-2.992 1.298-.777.851-1.166 1.899-1.166 3.146 0 1.232.403 2.281 1.21 3.146.807.851 1.804 1.276 2.992 1.276zm8.987 4.774v-14.894h1.694v2.288c1.144-1.687 2.596-2.53 4.356-2.53 1.452 0 2.72.543 3.806 1.628 1.085 1.071 1.628 2.508 1.628 4.312 0 1.775-.543 3.205-1.628 4.29-1.086 1.085-2.354 1.628-3.806 1.628-1.79 0-3.242-.807-4.356-2.42v5.698h-1.694zm5.742-4.796c1.144 0 2.097-.396 2.86-1.188.762-.807 1.144-1.885 1.144-3.234 0-1.305-.389-2.361-1.166-3.168-.778-.821-1.724-1.232-2.838-1.232-1.1 0-2.061.418-2.882 1.254-.822.836-1.232 1.892-1.232 3.168 0 1.276.41 2.332 1.232 3.168.821.821 1.782 1.232 2.882 1.232zm9.879-3.718c.117 1.159.55 2.083 1.298 2.772.763.675 1.665 1.012 2.706 1.012 1.364 0 2.559-.535 3.586-1.606l1.056.946c-1.276 1.423-2.838 2.134-4.686 2.134-1.599 0-2.948-.55-4.048-1.65-1.085-1.115-1.628-2.545-1.628-4.29 0-1.657.521-3.058 1.562-4.202 1.041-1.159 2.339-1.738 3.894-1.738 1.628 0 2.919.572 3.872 1.716.953 1.144 1.43 2.581 1.43 4.312 0 .22-.007.418-.022.594h-9.02zm0-1.364h7.326c-.103-1.1-.469-2.009-1.1-2.728-.616-.733-1.459-1.1-2.53-1.1-.968 0-1.797.359-2.486 1.078-.689.719-1.093 1.635-1.21 2.75zM172.54 496v-11.374h1.694v2.97c.44-.983 1.064-1.767 1.87-2.354.807-.587 1.731-.858 2.772-.814v1.826h-.132c-1.305 0-2.383.455-3.234 1.364-.85.909-1.276 2.193-1.276 3.85V496h-1.694z" fill="#000"/><defs><linearGradient id="paint0_linear_867_496" x1="397.5" y1="304.5" x2="238.5" y2="186" gradientUnits="userSpaceOnUse"><stop stop-color="#F25A3D"/><stop offset="1" stop-color="#FFEDEA"/></linearGradient><linearGradient id="paint1_linear_867_496" x1="408" y1="345.5" x2="248.5" y2="185.5" gradientUnits="userSpaceOnUse"><stop stop-color="#F25A3D"/><stop offset="1" stop-color="#FFEDEA"/></linearGradient><linearGradient id="paint2_linear_867_496" x1="34.322" y1="4.179" x2="1.866" y2="26.208" gradientUnits="userSpaceOnUse"><stop stop-color="#F25A3D"/><stop offset="1" stop-color="#F25A3D"/></linearGradient><linearGradient id="paint3_linear_867_496" x1="8.349" y1="1.016" x2=".454" y2="6.375" gradientUnits="userSpaceOnUse"><stop stop-color="#F25A3D"/><stop offset="1" stop-color="#F25A3D"/></linearGradient><linearGradient id="paint4_linear_867_496" x1="34.322" y1="4.179" x2="1.866" y2="26.208" gradientUnits="userSpaceOnUse"><stop stop-color="#F25A3D"/><stop offset="1" stop-color="#F25A3D"/></linearGradient><linearGradient id="paint5_linear_867_496" x1="8.349" y1="1.016" x2=".454" y2="6.375" gradientUnits="userSpaceOnUse"><stop stop-color="#F25A3D"/><stop offset="1" stop-color="#F25A3D"/></linearGradient><linearGradient id="paint6_linear_867_496" x1="34.322" y1="4.179" x2="1.866" y2="26.208" gradientUnits="userSpaceOnUse"><stop stop-color="#F25A3D"/><stop offset="1" stop-color="#F25A3D"/></linearGradient><linearGradient id="paint7_linear_867_496" x1="8.349" y1="1.016" x2=".454" y2="6.375" gradientUnits="userSpaceOnUse"><stop stop-color="#F25A3D"/><stop offset="1" stop-color="#F25A3D"/></linearGradient><linearGradient id="paint8_linear_867_496" x1="34.322" y1="4.179" x2="1.866" y2="26.208" gradientUnits="userSpaceOnUse"><stop stop-color="#F25A3D"/><stop offset="1" stop-color="#F25A3D"/></linearGradient><linearGradient id="paint9_linear_867_496" x1="8.349" y1="1.016" x2=".454" y2="6.375" gradientUnits="userSpaceOnUse"><stop stop-color="#F25A3D"/><stop offset="1" stop-color="#F25A3D"/></linearGradient><linearGradient id="paint10_linear_867_496" x1="34.322" y1="4.179" x2="1.866" y2="26.208" gradientUnits="userSpaceOnUse"><stop stop-color="#F25A3D"/><stop offset="1" stop-color="#F25A3D"/></linearGradient><linearGradient id="paint11_linear_867_496" x1="8.349" y1="1.016" x2=".454" y2="6.375" gradientUnits="userSpaceOnUse"><stop stop-color="#F25A3D"/><stop offset="1" stop-color="#F25A3D"/></linearGradient><linearGradient id="paint12_linear_867_496" x1="34.322" y1="4.179" x2="1.866" y2="26.208" gradientUnits="userSpaceOnUse"><stop stop-color="#F25A3D"/><stop offset="1" stop-color="#F25A3D"/></linearGradient><linearGradient id="paint13_linear_867_496" x1="8.349" y1="1.016" x2=".454" y2="6.375" gradientUnits="userSpaceOnUse"><stop stop-color="#F25A3D"/><stop offset="1" stop-color="#F25A3D"/></linearGradient></defs></svg>