<svg width="18" height="17" viewBox="0 0 18 17" fill="none" xmlns="http://www.w3.org/2000/svg">
<path d="M4.63366 5.56262H1.19763V16.5199H4.63366V5.56262Z" fill="#F1593D"/>
<path d="M13.9283 5.32502C13.8017 5.30919 13.6671 5.30127 13.5325 5.29335C11.6086 5.21418 10.524 6.35424 10.144 6.8451C10.041 6.97969 9.99354 7.05886 9.99354 7.05886V5.5942H6.70795V16.5515H9.99354H10.144C10.144 15.4352 10.144 14.3268 10.144 13.2105C10.144 12.6088 10.144 12.0071 10.144 11.4054C10.144 10.6611 10.0886 9.86944 10.4607 9.18856C10.7773 8.61853 11.3474 8.33352 11.9886 8.33352C13.8888 8.33352 13.9283 10.0515 13.9283 10.2099C13.9283 10.2178 13.9283 10.2257 13.9283 10.2257V16.599H17.3644V9.44983C17.3644 7.00345 16.1214 5.56253 13.9283 5.32502Z" fill="#F1593D"/>
<path d="M2.91564 4.14549C4.01751 4.14549 4.91075 3.25225 4.91075 2.15038C4.91075 1.04851 4.01751 0.155273 2.91564 0.155273C1.81377 0.155273 0.920532 1.04851 0.920532 2.15038C0.920532 3.25225 1.81377 4.14549 2.91564 4.14549Z" fill="#F1593D"/>
</svg>
