<svg width="16" height="13" viewBox="0 0 16 13" fill="none" xmlns="http://www.w3.org/2000/svg">
<path d="M0 11.1367C1.72227 11.227 3.22833 10.8521 4.69711 9.85945C3.21342 9.62343 2.18453 8.99173 1.62535 7.68669C2.05779 7.63116 2.43803 7.73528 2.88537 7.56868C1.42405 6.97169 0.477169 6.07621 0.43989 4.52821C0.902145 4.56292 1.25257 4.84753 1.80429 4.80588C0.462261 3.58414 0.0521901 2.25133 0.894688 0.633912C2.29637 2.13332 3.93663 3.15375 5.94222 3.63273C6.05406 3.6605 6.15843 3.68827 6.27027 3.70909C6.78471 3.82016 7.39609 4.05618 7.70923 4.02147C8.24604 3.95899 7.70923 3.38283 7.84344 2.63313C8.26841 0.30071 11.027 -0.761372 13.0699 0.606146C13.6664 1.00876 14.1361 1.00182 14.7251 0.758863C15.0308 0.633912 15.3439 0.508962 15.7092 0.363186C15.6272 1.02959 15.0755 1.3975 14.6356 1.89036C15.1351 1.99449 15.5377 1.8626 16 1.72376C15.8434 2.20274 15.4557 2.47347 15.1053 2.73725C14.74 3.00798 14.5983 3.29259 14.5834 3.73686C14.3597 10.4634 6.15099 15.6627 0.536818 11.5255C-0.00745029 11.1228 0.521901 11.5255 0 11.1367Z" fill="#F1593D"/>
</svg>
