<svg width="19" height="19" viewBox="0 0 19 19" fill="none" xmlns="http://www.w3.org/2000/svg">
<g clip-path="url(#clip0_439_490)">
<path d="M5.88477 15.423C6.9147 15.911 8.19859 16.1797 9.50003 16.1797C10.8015 16.1797 12.0854 15.911 13.1153 15.423L12.6387 14.4169C11.7546 14.8358 10.64 15.0664 9.50003 15.0664C8.36008 15.0664 7.24549 14.8358 6.36139 14.4169L5.88477 15.423Z" fill="#F1593D"/>
<path d="M1.18605 11.47C1.13807 11.7373 1.11328 12.0087 1.11328 12.2832C1.11328 13.9538 2.01376 15.5129 3.6489 16.6733C5.22372 17.7908 7.3017 18.4062 9.5 18.4062C11.6983 18.4062 13.7763 17.7908 15.3511 16.6733C16.9862 15.5129 17.8867 13.9538 17.8867 12.2832C17.8867 12.0087 17.8619 11.7373 17.8139 11.47C18.5324 11.0928 19 10.3448 19 9.5C19 8.2722 18.0012 7.27344 16.7734 7.27344C16.2138 7.27344 15.6864 7.48087 15.2825 7.84573C13.8221 6.83204 11.9418 6.24351 9.93792 6.16856L11.0016 2.0429L13.4352 2.88496C13.4697 4.0829 14.4541 5.04688 15.6602 5.04688C16.888 5.04688 17.8867 4.04811 17.8867 2.82031C17.8867 1.59251 16.888 0.59375 15.6602 0.59375C14.8026 0.59375 14.0574 1.08139 13.6854 1.79357L10.2249 0.596214L8.78463 6.18248C6.88509 6.29917 5.11022 6.87886 3.71746 7.84573C3.31361 7.48087 2.78625 7.27344 2.22656 7.27344C0.998764 7.27344 0 8.2722 0 9.5C0 10.3448 0.467636 11.0928 1.18605 11.47ZM15.6602 1.70703C16.2741 1.70703 16.7734 2.20641 16.7734 2.82031C16.7734 3.43421 16.2741 3.93359 15.6602 3.93359C15.0463 3.93359 14.5469 3.43421 14.5469 2.82031C14.5469 2.20641 15.0463 1.70703 15.6602 1.70703ZM17.8867 9.5C17.8867 9.84761 17.7281 10.1619 17.4723 10.3676C17.1822 9.71932 16.744 9.11122 16.1695 8.56473C16.3467 8.45021 16.555 8.38672 16.7734 8.38672C17.3873 8.38672 17.8867 8.8861 17.8867 9.5ZM9.5 7.27344C11.4694 7.27344 13.3186 7.81602 14.7069 8.80116C16.0395 9.74672 16.7734 10.9834 16.7734 12.2832C16.7734 13.583 16.0395 14.8197 14.7069 15.7653C13.3186 16.7504 11.4694 17.293 9.5 17.293C7.53059 17.293 5.68136 16.7504 4.29309 15.7653C2.96049 14.8197 2.22656 13.583 2.22656 12.2832C2.22656 10.9834 2.96049 9.74672 4.29309 8.80116C5.68136 7.81602 7.53059 7.27344 9.5 7.27344ZM2.22656 8.38672C2.44501 8.38672 2.65332 8.45021 2.83046 8.56473C2.25599 9.11122 1.81778 9.71932 1.52772 10.3676C1.27187 10.1619 1.11328 9.84761 1.11328 9.5C1.11328 8.8861 1.61266 8.38672 2.22656 8.38672Z" fill="#F1593D"/>
<path d="M6.12305 12.8398C7.04382 12.8398 7.79297 12.0907 7.79297 11.1699C7.79297 10.2491 7.04382 9.5 6.12305 9.5C5.20227 9.5 4.45312 10.2491 4.45312 11.1699C4.45312 12.0907 5.20227 12.8398 6.12305 12.8398ZM6.12305 10.6133C6.42992 10.6133 6.67969 10.863 6.67969 11.1699C6.67969 11.4768 6.42992 11.7266 6.12305 11.7266C5.81617 11.7266 5.56641 11.4768 5.56641 11.1699C5.56641 10.863 5.81617 10.6133 6.12305 10.6133Z" fill="#F1593D"/>
<path d="M12.877 12.8398C13.7977 12.8398 14.5469 12.0907 14.5469 11.1699C14.5469 10.2491 13.7977 9.5 12.877 9.5C11.9562 9.5 11.207 10.2491 11.207 11.1699C11.207 12.0907 11.9562 12.8398 12.877 12.8398ZM12.877 10.6133C13.1838 10.6133 13.4336 10.863 13.4336 11.1699C13.4336 11.4768 13.1838 11.7266 12.877 11.7266C12.5701 11.7266 12.3203 11.4768 12.3203 11.1699C12.3203 10.863 12.5701 10.6133 12.877 10.6133Z" fill="#F1593D"/>
</g>
<defs>
<clipPath id="clip0_439_490">
<rect width="19" height="19" fill="white"/>
</clipPath>
</defs>
</svg>
