<svg width="515" height="61" fill="none" xmlns="http://www.w3.org/2000/svg"><path d="M94.547.5h44.544c10.272 0 15.454 4.09 15.454 12.364v12.544c0 7.453-4.182 11.363-12.271 12.363L157.273 60.5h-19.635l-15-22.729h-9.91V60.5H94.547V.5zm38.636 26.362c2.09 0 3.183-.819 3.183-2.545V13.954c0-1.727-1.092-2.546-3.183-2.546h-20.455v15.454h20.455zM175.455.5h18.181v59.998h-18.181V.5zm59.818 29.453L210.911.5h20.273l14.271 17.181L259.726.5h20.273l-24.362 29.453 25.272 30.546h-20.273l-15.181-18.273-15.182 18.273h-20.272l25.272-30.546zM297.272.5h58.18v10.908h-39.998V23.68h35.454v10.908h-35.454v15h39.998V60.5h-58.18V.5zm77.272 49.09h38.636c2.09 0 3.181-.818 3.181-2.546v-9.907c0-1.728-1.091-2.547-3.181-2.547h-23.181c-10.271 0-15.454-4.09-15.454-12.364v-9.362C374.545 4.591 379.728.5 389.999.5h40v10.908h-34.09c-2.09 0-3.181.819-3.181 2.546v7.18c0 1.728 1.091 2.547 3.181 2.547h23.181c10.272 0 15.454 4.09 15.454 12.363v12.09c0 8.273-5.182 12.364-15.454 12.364h-44.545l-.001-10.909zm80.001 0h38.635c2.089 0 3.184-.818 3.184-2.546v-9.907c0-1.728-1.093-2.547-3.184-2.547h-23.181c-10.27 0-15.453-4.09-15.453-12.364v-9.362C454.546 4.591 459.729.5 469.999.5H510v10.908h-34.091c-2.09 0-3.181.819-3.181 2.546v7.18c0 1.728 1.091 2.547 3.181 2.547h23.18c10.274 0 15.454 4.09 15.454 12.363v12.09c0 8.273-5.18 12.364-15.454 12.364h-44.543l-.001-10.909zM52.761 1.826l-9.595 19.98 8.3 17.28h-16.6l-5.239 10.909h27.077l5.045 10.503h19.194L52.761 1.826z" fill="#fff"/><path d="M28.817.5H48.01L19.193 60.498H0L28.817.5z" fill="#F25A3D"/></svg>