<svg width="57" height="8" fill="none" xmlns="http://www.w3.org/2000/svg"><path d="M3.496 2.807s-.475-.045-.475.348v1.761h3.116v.528s.01.259-.285.259H3.021V7.99h3.401s2.061-.295 2.08-2.288V2.807H3.496zM8.408 0H2.27C.048.492 0 2.208 0 2.208V8h2.356V2.726c0-.447.475-.527.475-.527h5.567L8.408 0zm8.103 6.337c-.162.099-.285.18-.37.224a6.372 6.372 0 01-.855.42c-.39.152-.732.223-1.045.223-1.064 0-1.948-.303-2.651-.92-.713-.617-1.064-1.395-1.064-2.324 0-.903.313-1.68.96-2.351a3.113 3.113 0 012.327-.992c.38 0 .788.062 1.207.187.55.161.988.412 1.349.724l-.608.635c-.257-.241-.599-.411-.988-.518a3.687 3.687 0 00-.979-.125c-.636 0-1.178.24-1.615.724a2.558 2.558 0 00-.646 1.743c0 .67.247 1.224.741 1.662.494.438 1.121.662 1.881.662.314 0 .636-.099.969-.277.275-.197.418-.295.418-.295V4.344H13.48l.295-.867h2.736v2.86zm6.204-1.698c0 .67-.257 1.252-.76 1.743-.504.492-1.131.742-1.881.742-.694 0-1.293-.241-1.815-.724-.523-.483-.779-1.064-.779-1.752 0-.68.247-1.26.741-1.76.494-.501 1.102-.743 1.805-.743.788 0 1.425.242 1.928.715.504.465.76 1.064.76 1.78zm-.96.018c0-.456-.162-.84-.485-1.153-.322-.322-.721-.474-1.206-.474-.447 0-.826.161-1.15.492-.313.322-.475.697-.475 1.117 0 .438.162.814.476 1.126.313.313.712.474 1.187.474.447 0 .826-.152 1.15-.465.341-.321.503-.697.503-1.117zm7.087-.018c0 .67-.256 1.252-.76 1.743-.504.492-1.13.742-1.881.742-.694 0-1.292-.241-1.814-.724-.523-.483-.78-1.064-.78-1.752 0-.68.248-1.26.742-1.76.494-.501 1.102-.743 1.805-.743.788 0 1.424.242 1.928.715.503.465.76 1.064.76 1.78zm-.969.018c0-.456-.162-.84-.485-1.153-.323-.322-.722-.474-1.206-.474-.447 0-.826.161-1.15.492-.313.322-.474.697-.474 1.117 0 .438.161.814.474 1.126.314.313.713.474 1.188.474.447 0 .827-.152 1.15-.465.341-.321.503-.697.503-1.117zm6.631 2.333l-.883.125v-.804l-.19.205a2.482 2.482 0 01-.561.367 2.359 2.359 0 01-.96.196 2.4 2.4 0 01-1.757-.715 2.359 2.359 0 01-.722-1.716c0-.688.238-1.278.712-1.76a2.307 2.307 0 011.739-.734c.399 0 .741.063 1.026.179.209.09.38.206.532.349.047.062.095.125.152.187V.751l.94-.125-.028 6.364zm-.826-2.288a1.58 1.58 0 00-.514-1.198c-.342-.33-.731-.492-1.178-.492-.494 0-.883.152-1.187.465a1.514 1.514 0 00-.427 1.09c0 .483.151.886.446 1.198.294.313.665.465 1.13.465.447 0 .846-.143 1.197-.438.352-.295.532-.661.532-1.09zm5.804-3.075h-2.641v1.69h2.052v.866h-2.052v2.798l-1.026.143V.751h3.468l.199.876zm2.118-.492l-.636.751-.608-.75.636-.743.608.742zm-.19 5.855l-.94.125v-4.72l.94-.134V6.99zm4.257-4.782l-.447.965c-.057-.009-.114-.009-.18-.009-.096 0-.181.01-.276.018a.82.82 0 00-.295.098c-.199.08-.37.26-.513.519a2.068 2.068 0 00-.247.974v2.208l-.94.143V2.396l.874-.152v.983c.114-.17.228-.34.342-.519.162-.178.352-.304.56-.384.114-.045.314-.071.627-.098.305-.018.476-.027.495-.018zm7.03 4.782l-.941.125V3.88c0-.295-.066-.518-.209-.652-.142-.134-.351-.206-.627-.206-.333 0-.58.125-.75.385a1.036 1.036 0 00-.181.554v3.012l-.94.161V3.888c0-.286-.067-.5-.21-.652-.142-.152-.322-.224-.56-.224h-.095c-.332 0-.57.125-.722.394-.114.196-.171.447-.171.75v2.807l-.978.161V2.378l.883-.143v.607c.095-.143.2-.259.285-.34.256-.223.551-.33.883-.33.371 0 .647.054.837.17.161.098.313.286.474.554.324-.483.78-.724 1.388-.724.579 0 1.006.17 1.291.518.229.287.343.707.343 1.252V6.99zM57 5.56c0 .438-.161.795-.484 1.072-.323.286-.732.42-1.226.42-.37 0-.703-.08-1.007-.24-.304-.162-.532-.35-.675-.564l.666-.554a1.216 1.216 0 001.017.518c.237 0 .427-.062.56-.178.142-.117.209-.278.209-.492 0-.241-.162-.402-.485-.492a27.704 27.704 0 01-1.036-.304c-.294-.143-.503-.295-.636-.464-.152-.197-.228-.456-.228-.787 0-.411.162-.742.475-1.019a1.687 1.687 0 011.13-.402c.333 0 .637.071.922.214.285.143.485.295.608.465l-.56.572a2.041 2.041 0 00-.276-.214c-.228-.152-.446-.224-.646-.224s-.361.045-.485.125a.5.5 0 00-.228.447c0 .188.067.331.219.42.123.072.39.152.817.242.418.098.75.259.978.491.267.25.371.554.371.948z" fill="#fff"/></svg>