<svg width="49" height="15" fill="none" xmlns="http://www.w3.org/2000/svg"><g clip-path="url(#clip0_861_255)" fill-rule="evenodd" clip-rule="evenodd"><path d="M13.18 14.165h2.2V.4h-2.2v13.765zm9.635-4.347c0 2.103-1.733 2.27-2.248 2.27-1.287 0-1.522-1.23-1.522-1.971V4.86h-2.154v5.245c0 1.302.4 2.377 1.104 3.094.62.633 1.55.98 2.556.98.714 0 1.725-.228 2.264-.729v.75h2.154V4.86h-2.154v4.958zm6.45-8.26H27.11v3.299h-1.616v2.198h1.616V14.2h2.154V7.055h1.615V4.857h-1.615V1.559zm8.411 9.845a2.6 2.6 0 01-1.773.67c-1.503 0-2.606-1.124-2.606-2.667 0-1.543 1.068-2.618 2.606-2.618.67 0 1.303.227 1.785.658l.328.287 1.457-1.483-.365-.335a4.715 4.715 0 00-3.205-1.231c-2.7 0-4.662 1.984-4.662 4.71 0 2.714 2.008 4.77 4.662 4.77 1.233 0 2.384-.442 3.229-1.243l.352-.334-1.479-1.482-.329.298zm9.474-5.747c-.622-.634-1.35-.982-2.358-.982-.716 0-1.527.228-2.066.73V.436h-2.158V14.2h2.158V9.044c0-2.107 1.466-2.275 1.983-2.275 1.29 0 1.254 1.234 1.254 1.975V14.2h2.158V8.757c0-1.305-.268-2.383-.971-3.1z" fill="#fff"/><path d="M35.823 7.844c.861 0 1.56.715 1.56 1.598 0 .883-.699 1.598-1.56 1.598-.862 0-1.56-.715-1.56-1.598 0-.883.698-1.598 1.56-1.598z" fill="#E62415"/><path d="M10.098 10.76a4.251 4.251 0 01-3.102 1.33c-2.402 0-4.146-1.93-4.146-4.58 0-2.661 1.744-4.591 4.146-4.591a4.305 4.305 0 013.09 1.318l.328.336 1.44-1.474-.315-.336A6.204 6.204 0 006.996.82C3.458.821.8 3.7.8 7.522c0 3.813 2.67 6.678 6.196 6.678a6.22 6.22 0 004.555-1.954l.316-.336-1.428-1.498-.34.347z" fill="#fff"/></g><defs><clipPath id="clip0_861_255"><path fill="#fff" transform="translate(.8 .4)" d="M0 0h47.4v13.8H0z"/></clipPath></defs></svg>