<svg width="58" height="28" fill="none" xmlns="http://www.w3.org/2000/svg"><path d="M11.416 7.39l1.255 1.698 6.345-1.699M4.825 20.611l3.431-3.24-2.065-2.14m4.706-7.842L9.062 8.986l3.086.111M3.77 7.39l.659 1.304 3.631.218M5.71 14.15l2.682-4.832-7.79-.406m5.42 5.545l2.535 2.628 2.795-2.646.867-4.928-3.406-.168m7.966 4.243h-.695l-.61 3.708a.22.22 0 01-.212.177h-1.39a.15.15 0 01-.153-.177l.853-5.2c.216-1.315.904-1.607 1.845-1.607.293 0 .6.027.839.07.106.019.179.08.163.177l-.138.84c-.016.096-.11.167-.22.167h-.383c-.229 0-.307.094-.35.354l-.04.233h.696c.1 0 .17.08.154.177l-.148.9a.221.221 0 01-.213.177l.002.004zm3.468.062h-.127c-.394 0-.777.053-1.085.203l-.562 3.425c-.016.093-.105.194-.215.194h-1.371a.169.169 0 01-.17-.194l.783-4.767a.204.204 0 01.212-.177h1.317c.128 0 .175.044.154.177l-.035.212c.48-.42.816-.46 1.305-.46.154 0 .177.036.154.178l-.177 1.077c-.017.106-.058.133-.177.133l-.006-.001zm4.594 1.73h-2.843l-.002.018c-.078.468.077.76.744.76l1.749-.072c.148-.01.193.017.175.15l-.13.794c-.023.142-.07.203-.223.248-.616.185-1.257.273-2.03.273-1.234 0-2.273-.627-1.997-2.313l.096-.583c.255-1.554 1.326-2.402 2.825-2.402 1.595 0 2.175.98 1.947 2.401l-.087.53a.228.228 0 01-.224.194v.002zm-1.332-.958c.087-.53-.08-.848-.537-.848-.439 0-.729.319-.816.848l-.004.027h1.353l.004-.027zm6.394.962H27.06l-.003.018c-.077.468.077.76.744.76l1.75-.072c.147-.009.192.018.176.15l-.131.794c-.023.142-.07.203-.223.248-.616.185-1.257.274-2.03.274-1.234 0-2.273-.627-1.997-2.314l.096-.583c.255-1.554 1.326-2.401 2.826-2.401 1.595 0 2.175.98 1.947 2.4l-.087.53a.228.228 0 01-.225.194v.002zm-1.338-.962c.087-.53-.08-.848-.537-.848-.44 0-.73.319-.816.848l-.005.027h1.354l.004-.027zm3.189 3.055h-1.377a.183.183 0 01-.128-.062.172.172 0 01-.04-.132l1.063-6.454c.016-.097.13-.177.23-.177h1.38c.101 0 .17.08.154.177l-1.063 6.454c-.016.097-.114.194-.215.194h-.004zm4.859 0h-1.271c-.1 0-.17-.08-.154-.177l.03-.185c-.388.247-.876.442-1.38.442-.721 0-1.5-.389-1.304-1.58l.017-.107c.174-1.059 1.063-1.439 2.596-1.439h.393l.042-.255c.071-.433-.063-.512-.52-.512l-1.6.061c-.157.01-.19-.07-.173-.177l.145-.856c.022-.133.103-.177.218-.212.316-.094 1.122-.212 1.708-.212 1.325 0 2.22.46 1.981 1.907l-.506 3.127a.221.221 0 01-.213.176l-.009-.001zm-1.169-2.128h-.448c-.457 0-.663.141-.724.512l-.014.093c-.05.3.146.389.402.389.222-.005.44-.05.644-.133l.145-.856-.005-.005zm6.45 2.128h-1.371a.17.17 0 01-.17-.194l.492-2.993c.077-.469-.054-.618-.466-.618-.21 0-.484.079-.716.185l-.561 3.421c-.016.097-.105.194-.215.194h-1.372a.17.17 0 01-.169-.194l.782-4.768a.222.222 0 01.212-.177h1.272c.1 0 .169.08.153.178l-.034.202c.543-.353 1.071-.45 1.583-.45 1.436 0 1.46.97 1.287 2.022l-.488 2.993c-.016.094-.105.195-.215.195l-.005.004zm4.056-.062a5.81 5.81 0 01-1.276.141c-1.4 0-2.044-.865-1.806-2.313l.109-.663c.241-1.439 1.167-2.322 2.561-2.322.54 0 .984.08 1.23.141.114.027.171.07.152.186l-.163.998c-.018.105-.085.185-.22.168l-1.04-.062c-.394 0-.661.233-.774.886l-.109.662c-.107.654.084.883.477.883a8.88 8.88 0 001.06-.053c.146-.017.184.053.165.168l-.163.99c-.019.115-.09.158-.214.185l.01.005zm5.366-2.03h-2.843l-.003.018c-.078.468.077.76.744.76l1.749-.072c.148-.01.193.018.176.15l-.13.794c-.023.142-.07.203-.224.248-.615.185-1.256.274-2.028.274-1.235 0-2.275-.628-1.998-2.314l.095-.583c.255-1.554 1.327-2.401 2.826-2.401 1.595 0 2.175.98 1.947 2.4l-.087.53a.228.228 0 01-.224.194v.002zm-1.333-.962c.087-.53-.08-.848-.537-.848-.44 0-.729.319-.816.848l-.005.027h1.354l.004-.027zm4.208-2.084l-.814 4.945c-.016.093-.105.194-.215.194H51.79a.169.169 0 01-.17-.194l.54-3.267 2.03-1.673v-.005zm.473-.005l-.28 1.696 3.015-1.696" fill="#fff"/></svg>