<svg width="52" height="17" fill="none" xmlns="http://www.w3.org/2000/svg"><g clip-path="url(#clip0_867_563)"><path d="M22.129 8.718c0 2.36-1.91 4.098-4.254 4.098-2.344 0-4.254-1.738-4.254-4.098 0-2.376 1.91-4.098 4.254-4.098 2.344 0 4.254 1.722 4.254 4.098zm-1.862 0c0-1.475-1.107-2.483-2.392-2.483s-2.392 1.008-2.392 2.483c0 1.46 1.107 2.483 2.392 2.483s2.392-1.025 2.392-2.483z" fill="#EA4335"/><path d="M31.305 8.718c0 2.36-1.91 4.098-4.253 4.098-2.344 0-4.254-1.738-4.254-4.098 0-2.374 1.91-4.098 4.254-4.098 2.343 0 4.253 1.722 4.253 4.098zm-1.862 0c0-1.475-1.107-2.483-2.392-2.483-1.284 0-2.391 1.008-2.391 2.483 0 1.46 1.107 2.483 2.392 2.483 1.284 0 2.391-1.025 2.391-2.483z" fill="#FBBC05"/><path d="M40.1 4.867v7.358c0 3.027-1.848 4.263-4.03 4.263a4.035 4.035 0 01-3.76-2.415l1.622-.652c.289.667.996 1.454 2.135 1.454 1.398 0 2.264-.833 2.264-2.402v-.59h-.065c-.417.497-1.22.932-2.233.932-2.12 0-4.063-1.785-4.063-4.082 0-2.314 1.943-4.113 4.063-4.113 1.011 0 1.814.434 2.233.916h.065V4.87h1.768v-.002zm-1.637 3.866c0-1.443-.996-2.498-2.264-2.498-1.284 0-2.36 1.055-2.36 2.498 0 1.428 1.076 2.468 2.36 2.468 1.268 0 2.264-1.04 2.264-2.468z" fill="#4285F4"/><path d="M43.015.554v12.011h-1.816V.555h1.816z" fill="#34A853"/><path d="M50.092 10.067l1.445.931a4.253 4.253 0 01-3.533 1.817c-2.408 0-4.207-1.8-4.207-4.099 0-2.437 1.814-4.098 3.999-4.098 2.2 0 3.277 1.692 3.629 2.607l.193.466-5.669 2.269c.434.822 1.11 1.241 2.055 1.241.949 0 1.606-.45 2.088-1.134zm-4.449-1.475l3.79-1.52c-.209-.512-.836-.869-1.574-.869-.946 0-2.263.808-2.216 2.39z" fill="#EA4335"/><path d="M6.747 7.652V5.913h6.062c.06.303.09.662.09 1.05 0 1.304-.37 2.917-1.558 4.067-1.157 1.164-2.635 1.785-4.592 1.785-3.629 0-6.68-2.857-6.68-6.364C.069 2.944 3.12.087 6.749.087c2.007 0 3.437.761 4.511 1.753L9.99 3.067c-.77-.698-1.813-1.241-3.243-1.241-2.65 0-4.722 2.064-4.722 4.625 0 2.56 2.072 4.625 4.722 4.625 1.718 0 2.697-.667 3.324-1.273.509-.492.843-1.194.975-2.153l-4.3.002z" fill="#4285F4"/></g><defs><clipPath id="clip0_867_563"><path fill="#fff" d="M0 0h52v17H0z"/></clipPath></defs></svg>