<svg width="152" height="51" fill="none" xmlns="http://www.w3.org/2000/svg"><path d="M64.684 26.154c0 7.08-5.583 12.296-12.434 12.296-6.85 0-12.434-5.217-12.434-12.296 0-7.129 5.583-12.295 12.434-12.295 6.851 0 12.434 5.166 12.434 12.295zm-5.443 0c0-4.424-3.236-7.45-6.99-7.45-3.756 0-6.992 3.026-6.992 7.45 0 4.38 3.236 7.45 6.991 7.45 3.755 0 6.991-3.076 6.991-7.45z" fill="#EA4335"/><path d="M91.507 26.154c0 7.08-5.582 12.296-12.434 12.296-6.85 0-12.433-5.217-12.433-12.296 0-7.123 5.582-12.295 12.433-12.295 6.852 0 12.434 5.166 12.434 12.295zm-5.443 0c0-4.424-3.235-7.45-6.99-7.45-3.756 0-6.991 3.026-6.991 7.45 0 4.38 3.235 7.45 6.99 7.45 3.756 0 6.991-3.076 6.991-7.45z" fill="#FBBC05"/><path d="M117.213 14.601v22.075c0 9.08-5.398 12.788-11.78 12.788-6.007 0-9.623-3.985-10.986-7.245l4.739-1.957c.844 2.001 2.911 4.363 6.242 4.363 4.085 0 6.616-2.5 6.616-7.207V35.65h-.19c-1.218 1.491-3.565 2.794-6.527 2.794-6.197 0-11.875-5.355-11.875-12.246 0-6.94 5.678-12.34 11.875-12.34 2.956 0 5.303 1.303 6.527 2.75h.19v-2.001h5.169v-.005zm-4.783 11.597c0-4.329-2.912-7.494-6.617-7.494-3.755 0-6.901 3.165-6.901 7.494 0 4.285 3.146 7.407 6.901 7.407 3.705 0 6.617-3.121 6.617-7.407z" fill="#4285F4"/><path d="M125.735 1.663v36.033h-5.309V1.663h5.309z" fill="#34A853"/><path d="M146.423 30.201l4.225 2.794c-1.364 2.001-4.65 5.45-10.327 5.45-7.041 0-12.3-5.4-12.3-12.296 0-7.312 5.303-12.296 11.691-12.296 6.432 0 9.578 5.078 10.606 7.822l.564 1.397-16.569 6.808c1.269 2.466 3.242 3.725 6.008 3.725 2.771 0 4.694-1.353 6.102-3.404zm-13.004-4.424l11.076-4.562c-.609-1.535-2.442-2.605-4.599-2.605-2.766 0-6.616 2.422-6.477 7.167z" fill="#EA4335"/><path d="M19.72 22.956v-5.217h17.721c.173.91.263 1.985.263 3.149 0 3.913-1.079 8.753-4.555 12.201-3.38 3.492-7.7 5.355-13.422 5.355C9.12 38.444.2 29.874.2 19.352.201 8.831 9.12.26 19.727.26c5.867 0 10.047 2.284 13.188 5.261l-3.71 3.681C26.951 7.107 23.9 5.477 19.72 5.477c-7.745 0-13.803 6.192-13.803 13.875s6.058 13.876 13.803 13.876c5.024 0 7.885-2.002 9.718-3.82 1.486-1.475 2.464-3.581 2.85-6.458l-12.568.006z" fill="#4285F4"/></svg>