<svg width="124" height="36" fill="none" xmlns="http://www.w3.org/2000/svg"><g clip-path="url(#clip0_184_1665)" fill-rule="evenodd" clip-rule="evenodd"><path d="M32.189 35.908h5.72V0h-5.72v35.908zM57.24 24.57c0 5.485-4.505 5.92-5.844 5.92-3.348 0-3.958-3.209-3.958-5.142V11.634h-5.601v13.685c0 3.396 1.042 6.2 2.87 8.07 1.612 1.651 4.029 2.556 6.647 2.556 1.856 0 4.485-.593 5.886-1.901V36h5.6V11.634h-5.6V24.57zM74.01 3.023h-5.6v8.603h-4.201v5.734h4.2V36h5.601V17.36h4.2v-5.734h-4.2V3.023zm21.871 25.681c-1.222 1.122-2.84 1.747-4.61 1.747-3.908 0-6.778-2.931-6.778-6.957s2.778-6.829 6.778-6.829c1.74 0 3.388.593 4.64 1.715l.853.749 3.787-3.868-.947-.874c-2.228-2.058-5.189-3.212-8.333-3.212-7.022 0-12.122 5.177-12.122 12.289 0 7.079 5.221 12.444 12.122 12.444 3.205 0 6.197-1.154 8.394-3.244l.916-.871-3.845-3.868-.855.779zm24.632-14.992c-1.617-1.654-3.511-2.561-6.131-2.561-1.862 0-3.97.594-5.372 1.905V.092h-5.611V36h5.611V22.549c0-5.496 3.812-5.934 5.155-5.934 3.353 0 3.262 3.218 3.262 5.153V36h5.61V21.8c0-3.403-.696-6.215-2.524-8.087v-.001z" fill="#17313B"/><path d="M91.061 19.42c2.24 0 4.056 1.865 4.056 4.168s-1.815 4.168-4.056 4.168c-2.24 0-4.055-1.865-4.055-4.168s1.815-4.168 4.055-4.168z" fill="#E62415"/><path d="M24.177 27.024a11.035 11.035 0 01-8.068 3.471c-6.244 0-10.78-5.035-10.78-11.946 0-6.943 4.536-11.978 10.78-11.978 3.002-.006 5.887 1.228 8.037 3.44l.851.875 3.746-3.846-.82-.876C24.814 2.881 20.612 1.1 16.108 1.1 6.912 1.1 0 8.605 0 18.58 0 28.525 6.942 36 16.109 36c4.536 0 8.739-1.815 11.844-5.098l.821-.876-3.713-3.908-.884.906z" fill="#17313B"/></g><defs><clipPath id="clip0_184_1665"><path fill="#fff" d="M0 0h123.243v36H0z"/></clipPath></defs></svg>