<svg width="163" height="40" fill="none" xmlns="http://www.w3.org/2000/svg"><path d="M31.036.001l3.6 5.05L52.846 0M12.119 39.3l9.848-9.631-5.928-6.363M29.545 0L24.28 4.748l8.855.33M9.092.001l1.891 3.876 10.421.65M14.66 20.094l7.698-14.362L0 4.526m15.556 16.479l7.273 7.812 8.021-7.865 2.49-14.648-9.776-.499M46.426 18.42h-1.995l-1.747 11.022a.64.64 0 01-.61.525h-3.988c-.289 0-.486-.236-.442-.524l2.449-15.458c.62-3.91 2.593-4.776 5.296-4.776.839 0 1.72.08 2.406.21.305.054.513.237.468.525l-.396 2.494c-.045.289-.315.5-.63.5h-1.1c-.657 0-.882.277-1.006 1.05l-.111.693h1.994c.289 0 .486.236.441.527l-.424 2.677a.642.642 0 01-.61.525l.005.01zm9.954.184h-.366c-1.13 0-2.23.158-3.113.603l-1.613 10.181c-.046.278-.301.577-.617.577h-3.936a.497.497 0 01-.485-.577l2.244-14.169c.046-.277.242-.527.61-.527h3.779c.368 0 .503.132.441.527l-.1.63c1.376-1.248 2.342-1.365 3.745-1.365.444 0 .508.105.441.527l-.507 3.202c-.049.314-.167.393-.508.393l-.015-.002zm13.184 5.143h-8.16l-.007.053c-.222 1.391.222 2.257 2.136 2.257l5.019-.211c.424-.028.554.051.504.444l-.374 2.362c-.067.42-.201.603-.64.735-1.768.552-3.607.814-5.824.814-3.543 0-6.526-1.864-5.733-6.876l.275-1.733c.73-4.62 3.806-7.138 8.109-7.138 4.577 0 6.242 2.912 5.587 7.136l-.25 1.576c-.055.34-.328.575-.643.575l.001.006zM65.741 20.9c.25-1.574-.23-2.519-1.542-2.519-1.26 0-2.09.946-2.34 2.52l-.014.079h3.884l.012-.08zm18.349 2.86h-8.16l-.007.053c-.222 1.391.221 2.257 2.136 2.257l5.018-.21c.425-.029.555.05.507.443l-.375 2.362c-.067.42-.201.604-.64.735-1.768.553-3.607.815-5.824.815-3.543 0-6.526-1.864-5.733-6.876l.275-1.734c.732-4.619 3.807-7.138 8.11-7.138 4.578 0 6.242 2.913 5.587 7.137l-.25 1.575c-.055.34-.328.576-.643.576l-.001.006zm-3.84-2.86c.25-1.574-.23-2.519-1.542-2.519-1.26 0-2.092.946-2.34 2.52l-.014.079h3.884l.012-.08zm9.151 9.08h-3.95a.516.516 0 01-.485-.577l3.052-19.183c.046-.289.372-.525.66-.525h3.963c.289 0 .486.236.441.525l-3.051 19.183c-.046.289-.328.577-.616.577H89.4zm13.946 0h-3.648c-.289 0-.486-.235-.441-.524l.087-.55c-1.114.735-2.516 1.311-3.96 1.311-2.072 0-4.304-1.154-3.745-4.696l.05-.315c.499-3.149 3.051-4.278 7.448-4.278h1.129l.121-.76c.204-1.286-.18-1.522-1.491-1.522l-4.595.183c-.45.028-.544-.21-.494-.527l.416-2.545c.062-.394.294-.524.624-.63.907-.277 3.222-.63 4.902-.63 3.805 0 6.37 1.365 5.687 5.67l-1.454 9.293a.64.64 0 01-.61.524l-.026-.004zm-3.354-6.325h-1.286c-1.312 0-1.903.42-2.078 1.522l-.041.277c-.142.893.42 1.156 1.155 1.156a5.09 5.09 0 001.848-.394l.416-2.546-.014-.015zM118.5 29.98h-3.934a.498.498 0 01-.486-.577l1.41-8.896c.222-1.392-.156-1.837-1.337-1.837-.604 0-1.387.236-2.053.55l-1.612 10.17c-.046.288-.301.576-.617.576h-3.936a.497.497 0 01-.485-.577l2.243-14.17a.643.643 0 01.61-.527h3.648c.289 0 .486.236.441.527l-.097.603c1.557-1.05 3.073-1.338 4.543-1.338 4.12 0 4.186 2.885 3.692 6.009l-1.4 8.898c-.046.277-.303.578-.618.578l-.012.011zm11.64-.183c-1.2.28-2.429.42-3.662.42-4.015 0-5.864-2.573-5.182-6.877l.312-1.97c.694-4.277 3.35-6.902 7.352-6.902 1.548 0 2.823.236 3.529.42.328.078.491.21.437.551l-.469 2.966c-.05.315-.244.55-.63.5l-2.988-.184c-1.128 0-1.896.694-2.219 2.636l-.312 1.967c-.308 1.942.241 2.624 1.369 2.624 1.016.01 2.033-.043 3.043-.158.416-.051.527.158.472.5l-.466 2.94c-.056.343-.26.472-.615.552l.029.015zm15.401-6.034h-8.16l-.008.053c-.222 1.391.221 2.257 2.136 2.257l5.018-.211c.425-.028.555.051.506.444l-.374 2.362c-.065.42-.2.603-.641.735-1.766.552-3.606.814-5.822.814-3.542 0-6.527-1.864-5.734-6.875l.275-1.734c.731-4.62 3.806-7.138 8.11-7.138 4.578 0 6.242 2.913 5.586 7.136l-.25 1.576c-.055.34-.328.576-.642.576v.005zm-3.825-2.86c.249-1.574-.231-2.519-1.543-2.519-1.259 0-2.09.946-2.34 2.52l-.014.078h3.884l.013-.079zm12.076-6.193l-2.336 14.696c-.046.277-.301.577-.618.577h-3.935a.497.497 0 01-.485-.577l1.551-9.71 5.825-4.972-.002-.014zm1.357-.017l-.804 5.042L163 14.693" fill="#29B2FE"/></svg>