<svg width="136" height="54" fill="none" xmlns="http://www.w3.org/2000/svg"><path d="M78.947 21.105c-.51.328-.902.596-1.173.746a19.75 19.75 0 01-2.706 1.403c-1.233.507-2.316.746-3.309.746-3.368 0-6.165-1.015-8.39-3.075C61.112 18.865 60 16.27 60 13.165c0-3.016.992-5.613 3.038-7.852C65.053 3.104 67.518 2 70.406 2c1.203 0 2.496.209 3.82.627 1.744.537 3.127 1.373 4.27 2.418l-1.925 2.12c-.812-.807-1.894-1.374-3.127-1.732a11.1 11.1 0 00-3.098-.418c-2.015 0-3.73.806-5.113 2.418-1.353 1.642-2.045 3.552-2.045 5.82 0 2.24.782 4.09 2.346 5.553s3.549 2.209 5.955 2.209c.992 0 2.015-.328 3.067-.925a113.28 113.28 0 011.324-.985v-4.657h-6.527l.933-2.896h8.661v9.553zm19.64-5.672c0 2.239-.813 4.179-2.407 5.82-1.594 1.642-3.579 2.478-5.954 2.478-2.196 0-4.09-.806-5.745-2.418-1.654-1.611-2.466-3.552-2.466-5.85 0-2.269.782-4.21 2.346-5.88 1.564-1.673 3.489-2.479 5.714-2.479 2.496 0 4.511.806 6.105 2.389 1.594 1.552 2.406 3.552 2.406 5.94zm-3.038.06c0-1.523-.511-2.806-1.534-3.851-1.022-1.075-2.286-1.582-3.82-1.582-1.413 0-2.616.537-3.639 1.641-.992 1.075-1.503 2.329-1.503 3.732 0 1.462.51 2.716 1.503 3.761.993 1.045 2.256 1.582 3.76 1.582 1.413 0 2.616-.507 3.639-1.552 1.083-1.075 1.594-2.329 1.594-3.732zm22.436-.06c0 2.239-.812 4.179-2.406 5.82-1.594 1.642-3.579 2.478-5.955 2.478-2.195 0-4.09-.806-5.744-2.418-1.654-1.611-2.466-3.552-2.466-5.85 0-2.269.781-4.21 2.345-5.88 1.564-1.673 3.489-2.479 5.715-2.479 2.496 0 4.511.806 6.105 2.389 1.594 1.552 2.406 3.552 2.406 5.94zm-3.068.06c0-1.523-.511-2.806-1.534-3.851-1.022-1.075-2.285-1.582-3.819-1.582-1.414 0-2.617.537-3.639 1.641-.993 1.075-1.504 2.329-1.504 3.732 0 1.462.511 2.716 1.504 3.761.992 1.045 2.255 1.582 3.759 1.582 1.414 0 2.617-.507 3.639-1.552 1.083-1.075 1.594-2.329 1.594-3.732zm20.993 7.79l-2.797.418v-2.686l-.602.686c-.541.508-1.143.896-1.774 1.224a7.138 7.138 0 01-3.038.657c-2.195 0-4.06-.806-5.564-2.388-1.503-1.582-2.285-3.522-2.285-5.731 0-2.299.752-4.269 2.255-5.88 1.504-1.643 3.309-2.449 5.504-2.449 1.263 0 2.346.21 3.248.597a5.628 5.628 0 011.684 1.165c.151.208.301.417.482.626V2.448L136 2.03l-.09 21.254zm-2.617-7.641c0-1.582-.541-2.926-1.624-4-1.083-1.105-2.316-1.642-3.729-1.642-1.564 0-2.797.508-3.76 1.552-.902.985-1.353 2.21-1.353 3.642 0 1.612.481 2.955 1.414 4 .932 1.045 2.105 1.552 3.579 1.552 1.413 0 2.676-.477 3.789-1.462s1.684-2.21 1.684-3.642zM19.187 21.298c0-2.654 3.016-2.353 3.016-2.353H54v19.549C53.88 51.949 40.787 53.94 40.787 53.94h-21.6V38.494h17.98c1.87 0 1.81-1.75 1.81-1.75v-3.56h-19.79V21.298z" fill="#3A7AF3"/><path d="M14.42 0h38.977l-.06 14.842H17.98s-3.017.543-3.017 3.56V54H0V14.903S.302 3.318 14.42 0zm51.164 31.576h9.225l-.697-3.25H62v23.64l3.584-.53V41.058h7.168v-3.216h-7.168v-6.266zm14.402.961l2.223-2.785L80.085 27l-2.223 2.752 2.124 2.785zM78.26 51.934l3.285-.465V33.93l-3.285.498v17.507zm16.592-14.622l1.56-3.581c-.067-.033-.664 0-1.726.066-1.095.1-1.792.199-2.19.365a5.052 5.052 0 00-1.958 1.425 97.163 97.163 0 01-1.194 1.923v-3.647l-3.053.564v17.54l3.285-.53v-8.19c0-1.26.298-2.487.863-3.614.497-.962 1.095-1.625 1.792-1.924.365-.198.696-.331 1.028-.364.332-.033.63-.066.963-.066.232 0 .431 0 .63.033zm22.831 14.622l3.285-.465V40.163c0-2.022-.399-3.58-1.195-4.642-.995-1.293-2.489-1.923-4.513-1.923-2.124 0-3.717.895-4.845 2.686-.564-.995-1.095-1.691-1.659-2.056-.664-.43-1.626-.63-2.92-.63-1.162 0-2.19.398-3.086 1.227-.299.298-.664.73-.996 1.26V33.83l-3.086.53v17.607l3.418-.597V40.959c0-1.127.199-2.056.597-2.785.531-.995 1.361-1.46 2.522-1.46h.332c.83 0 1.46.266 1.958.83.498.563.73 1.36.73 2.42V52l3.285-.597V40.23c0-.696.233-1.392.631-2.055.597-.962 1.46-1.426 2.621-1.426.963 0 1.693.265 2.19.763.498.497.731 1.326.731 2.42v12.003zm16.625-1.791c1.128-1.028 1.692-2.354 1.692-3.979 0-1.458-.365-2.586-1.294-3.514-.797-.862-1.958-1.459-3.418-1.824-1.493-.331-2.423-.63-2.854-.895-.531-.331-.763-.862-.763-1.558 0-.73.265-1.293.796-1.658.432-.299.996-.464 1.693-.464.696 0 1.46.265 2.256.829.332.232.664.497.962.795l1.958-2.122c-.431-.63-1.128-1.193-2.123-1.724a6.712 6.712 0 00-3.219-.796c-1.527 0-2.854.498-3.949 1.492-1.095 1.028-1.659 2.255-1.659 3.78 0 1.227.265 2.189.796 2.918.465.63 1.195 1.194 2.223 1.724.166.067 1.394.464 3.617 1.128 1.129.331 1.693.928 1.693 1.823 0 .796-.233 1.393-.73 1.824-.465.43-1.129.663-1.958.663-1.195 0-2.223-.431-3.086-1.326a3.394 3.394 0 01-.465-.597l-2.323 2.056c.498.795 1.295 1.491 2.356 2.088 1.062.597 2.224.896 3.518.896 1.725 0 3.152-.498 4.281-1.559z" fill="#3A7AF3"/></svg>