<svg width="150" height="29" fill="none" xmlns="http://www.w3.org/2000/svg"><path d="M9.223 8.856l.266-.04.113-.244 3.42-7.381c.448-.941 1.687-.899 2.092-.006h0l.003.006 3.474 7.383.113.242.264.04 7.679 1.165h.002c.914.15 1.37 1.41.61 2.214v.001l-5.523 5.714-.175.18.04.248 1.316 8.044c.157 1.098-.946 1.809-1.737 1.375h-.001l-6.839-3.83-.243-.136-.244.136-6.892 3.829s0 0 0 0c-.792.435-1.895-.277-1.738-1.373l1.315-8.045.04-.247-.174-.18L.88 12.235l-.001-.001c-.76-.804-.304-2.063.61-2.214l7.733-1.165zm30.312 0l.266-.04.113-.244 3.419-7.38v-.001c.449-.942 1.688-.899 2.092-.006h0l.003.006 3.474 7.383.113.242.264.04 7.679 1.165h.002c.914.15 1.37 1.41.61 2.214v.001l-5.523 5.714-.175.18.04.248 1.316 8.045c.157 1.097-.946 1.808-1.737 1.374h-.001l-6.839-3.83-.243-.136-.244.136-6.891 3.829s0 0 0 0c-.792.435-1.895-.277-1.739-1.373l1.316-8.045.04-.247-.174-.18-5.523-5.715-.001-.001c-.76-.804-.304-2.063.61-2.214h.003l7.73-1.165zm30.312 0l.266-.04.113-.244 3.418-7.38.002-.002c.448-.94 1.687-.898 2.092-.005l.003.006 3.473 7.383.113.242.264.04 7.678 1.165h.003c.914.15 1.37 1.41.61 2.214l-.001.001-5.522 5.714-.174.18.04.248 1.314 8.04v.004c.158 1.098-.944 1.809-1.735 1.375h-.002l-6.838-3.83-.243-.136-.244.136-6.892 3.829h-.001c-.792.434-1.895-.277-1.738-1.374v-.003l1.315-8.04.04-.248-.174-.18-5.522-5.715-.002-.001c-.76-.804-.303-2.063.611-2.214h.003l7.73-1.165zm30.312 0l.266-.04.113-.244 3.418-7.38.001-.002c.448-.94 1.687-.898 2.092-.005l.003.006 3.473 7.383.113.242.264.04 7.679 1.165h.002c.914.15 1.371 1.41.611 2.214l-.002.001-5.522 5.714-.174.18.041.248 1.313 8.04.001.004c.157 1.098-.945 1.809-1.736 1.375h-.002l-6.838-3.83-.243-.136-.244.136-6.892 3.829h-.001c-.792.434-1.895-.277-1.738-1.374v-.003l1.315-8.04.04-.248-.174-.18-5.522-5.715-.002-.001c-.76-.804-.303-2.063.612-2.214h.002l7.731-1.165zm30.312 0l.266-.04.113-.244 3.418-7.38h.001c.447-.942 1.686-.9 2.092-.007l.003.006 3.472 7.383.114.242.264.04 7.678 1.165a.03.03 0 00.003 0c.914.15 1.37 1.41.611 2.213l-.002.002-5.522 5.714-.174.18.04.248 1.314 8.04.001.005c.157 1.097-.946 1.808-1.737 1.374h-.001l-6.838-3.83-.244-.136-.243.136-6.892 3.829c-.792.435-1.896-.277-1.739-1.374l.001-.003 1.314-8.04.041-.248-.175-.18-5.522-5.715-.002-.002c-.759-.803-.303-2.062.612-2.213h.002l7.731-1.165z" fill="url(#paint0_linear_184_1689)" stroke="#D9D9D9"/><defs><linearGradient id="paint0_linear_184_1689" x1="74.693" y1="0" x2="74.693" y2="28.432" gradientUnits="userSpaceOnUse"><stop stop-color="#D9D9D9"/><stop offset=".495" stop-color="#D9D9D9"/></linearGradient></defs></svg>