<svg width="150" height="29" viewBox="0 0 150 29" fill="none" xmlns="http://www.w3.org/2000/svg">
<path d="M9.22333 8.85584L9.48939 8.81574L9.60249 8.5716L13.0218 1.19062C13.4698 0.249726 14.7092 0.292002 15.1144 1.18488L15.1143 1.1849L15.1172 1.19112L18.5907 8.57428L18.7043 8.81573L18.9682 8.85576L26.6466 10.021C26.6474 10.0212 26.6481 10.0213 26.6489 10.0214C27.5634 10.1716 28.0198 11.4307 27.2597 12.2348C27.2592 12.2353 27.2587 12.2358 27.2582 12.2364L21.7358 17.9503L21.5614 18.1307L21.6019 18.3784L22.9169 26.4225C23.0738 27.5198 21.9711 28.2307 21.1801 27.7969C21.1796 27.7966 21.1791 27.7963 21.1786 27.7961L14.3403 23.9673L14.0969 23.831L13.8531 23.9665L6.96118 27.7959C6.9609 27.7961 6.96061 27.7962 6.96033 27.7964C6.16891 28.2307 5.06586 27.519 5.22272 26.4225L6.53773 18.3784L6.57822 18.1307L6.40381 17.9503L0.881408 12.2364C0.880894 12.2358 0.880381 12.2353 0.879868 12.2347C0.119881 11.4307 0.576149 10.1719 1.49046 10.0214L9.22333 8.85584ZM39.5351 8.85584L39.8012 8.81574L39.9143 8.5716L43.3327 1.19254C43.333 1.1919 43.3333 1.19126 43.3336 1.19062C43.7817 0.249487 45.0209 0.292314 45.4253 1.18466L45.4253 1.18468L45.4283 1.19112L48.9018 8.57428L49.0154 8.81573L49.2792 8.85576L56.9577 10.021C56.9584 10.0212 56.9592 10.0213 56.9599 10.0214C57.8744 10.1716 58.3308 11.4307 57.5708 12.2348C57.5703 12.2353 57.5697 12.2358 57.5692 12.2364L52.0468 17.9503L51.8724 18.1307L51.9129 18.3784L53.2279 26.4226C53.3847 27.5198 52.2821 28.2307 51.4911 27.7969C51.4906 27.7966 51.4902 27.7963 51.4897 27.7961L44.6513 23.9673L44.408 23.831L44.1642 23.9665L37.273 27.7959C37.2727 27.7961 37.2725 27.7962 37.2722 27.7964C36.4808 28.2307 35.3777 27.519 35.5345 26.4225L36.8495 18.3784L36.89 18.1307L36.7156 17.9503L31.1932 12.2364C31.1927 12.2358 31.1922 12.2353 31.1917 12.2348C30.4317 11.4308 30.8879 10.1718 31.8023 10.0214C31.8031 10.0213 31.8039 10.0212 31.8048 10.021L39.5351 8.85584ZM69.8469 8.85584L70.113 8.81574L70.2261 8.5716L73.6445 1.19254C73.6449 1.1918 73.6452 1.19106 73.6456 1.19032C74.0937 0.249735 75.3328 0.292096 75.7379 1.1849L75.7408 1.19108L79.2136 8.57424L79.3272 8.81572L79.591 8.85576L87.2695 10.021C87.2702 10.0212 87.2709 10.0213 87.2717 10.0214C88.1861 10.1716 88.6426 11.4305 87.8827 12.2346C87.8822 12.2352 87.8816 12.2358 87.881 12.2364L82.3594 17.9503L82.185 18.1307L82.2255 18.3784L83.5392 26.4187C83.5394 26.42 83.5395 26.4212 83.5397 26.4224C83.6974 27.5195 82.595 28.2307 81.8039 27.797C81.8033 27.7967 81.8028 27.7964 81.8022 27.7961L74.9639 23.9673L74.7205 23.831L74.4767 23.9665L67.5848 27.7959C67.5844 27.7962 67.584 27.7964 67.5836 27.7966C66.7922 28.2305 65.6894 27.5187 65.8463 26.4223C65.8465 26.4211 65.8467 26.4198 65.8469 26.4185L67.1613 18.3784L67.2018 18.1307L67.0274 17.9503L61.505 12.2364C61.5045 12.2358 61.504 12.2353 61.5035 12.2348C60.7435 11.4308 61.1997 10.1718 62.1141 10.0214C62.1149 10.0213 62.1157 10.0212 62.1166 10.021L69.8469 8.85584ZM100.159 8.85584L100.425 8.81574L100.538 8.5716L103.956 1.19254C103.957 1.1918 103.957 1.19107 103.957 1.19033C104.405 0.24974 105.644 0.292087 106.049 1.1849L106.052 1.19108L109.525 8.57424L109.638 8.81572L109.902 8.85576L117.581 10.021C117.581 10.0212 117.582 10.0213 117.583 10.0214C118.497 10.1716 118.954 11.4305 118.194 12.2346C118.193 12.2352 118.193 12.2358 118.192 12.2364L112.67 17.9503L112.496 18.1307L112.537 18.3784L113.85 26.4187C113.85 26.42 113.851 26.4212 113.851 26.4224C114.008 27.5195 112.906 28.2307 112.115 27.797C112.114 27.7967 112.114 27.7964 112.113 27.7961L105.275 23.9673L105.032 23.831L104.788 23.9665L97.8958 27.7959C97.8954 27.7962 97.895 27.7964 97.8946 27.7966C97.1032 28.2305 96.0004 27.5187 96.1574 26.4223C96.1576 26.4211 96.1578 26.4198 96.1579 26.4185L97.4724 18.3784L97.5129 18.1307L97.3385 17.9503L91.8161 12.2364C91.8155 12.2358 91.8149 12.2352 91.8144 12.2346C91.0549 11.4309 91.5112 10.1719 92.4259 10.0214C92.4267 10.0213 92.4276 10.0212 92.4284 10.021L100.159 8.85584ZM130.471 8.85584L130.737 8.81574L130.85 8.5716L134.268 1.19254C134.268 1.19221 134.268 1.19188 134.269 1.19155C134.716 0.249704 135.955 0.291702 136.361 1.1849L136.364 1.19108L139.836 8.57424L139.95 8.81572L140.214 8.85576L147.892 10.021C147.893 10.0212 147.894 10.0213 147.895 10.0214C148.809 10.1716 149.265 11.4302 148.506 12.2342C148.505 12.235 148.505 12.2357 148.504 12.2364L142.982 17.9503L142.808 18.1307L142.848 18.3784L144.162 26.4187C144.162 26.4201 144.162 26.4214 144.163 26.4228C144.32 27.5198 143.217 28.2309 142.426 27.7967C142.426 27.7965 142.426 27.7963 142.425 27.7961L135.587 23.9673L135.343 23.831L135.1 23.9665L128.208 27.7959C127.416 28.2312 126.312 27.5193 126.469 26.4223C126.469 26.4211 126.47 26.4198 126.47 26.4185L127.784 18.3784L127.825 18.1307L127.65 17.9503L122.128 12.2364C122.127 12.2358 122.127 12.2351 122.126 12.2345C121.367 11.4308 121.823 10.1719 122.738 10.0214C122.739 10.0213 122.739 10.0212 122.74 10.021L130.471 8.85584Z" fill="url(#paint0_linear_184_1689)" stroke="#F27E3D"/>
<defs>
<linearGradient id="paint0_linear_184_1689" x1="74.6926" y1="0" x2="74.6926" y2="28.4323" gradientUnits="userSpaceOnUse">
<stop stop-color="#F2893D"/>
<stop offset="0.494792" stop-color="#F25A3D"/>
</linearGradient>
</defs>
</svg>
