<svg width="679" height="505" viewBox="0 0 679 505" fill="none" xmlns="http://www.w3.org/2000/svg">
<path fill-rule="evenodd" clip-rule="evenodd" d="M154.513 277.067C153.985 271.449 153.715 265.756 153.715 260C153.715 234.063 159.2 209.408 169.075 187.131L218.715 209L212.215 267.5L154.513 277.067Z" fill="#E4FFE4"/>
<path fill-rule="evenodd" clip-rule="evenodd" d="M165.857 172.811L330.215 250.5L273.715 156L236.169 97.5216C206.367 115.636 181.944 141.718 165.857 172.811Z" fill="#DBF3DB"/>
<path fill-rule="evenodd" clip-rule="evenodd" d="M426.158 82.6001L330.215 250.5L280.715 148.5L244.533 80.9353C271.382 67.5371 301.668 60 333.715 60C367.065 60 398.509 68.163 426.158 82.6001Z" fill="#C1F0C2"/>
<path fill-rule="evenodd" clip-rule="evenodd" d="M538.398 291.302C539.924 281.09 540.715 270.637 540.715 260C540.715 185.543 501.965 120.136 443.532 82.8467L330.215 250.501L538.398 291.302Z" fill="#9ADE9B"/>
<path fill-rule="evenodd" clip-rule="evenodd" d="M362.856 477.669L333.5 253L545.703 306.906C526.437 395.623 453.654 464.378 362.856 477.669Z" fill="#5CC85E"/>
<path fill-rule="evenodd" clip-rule="evenodd" d="M107 298.955L330.215 250.5L349.083 489.495C344.003 489.83 338.879 490 333.715 490C219.967 490 125.505 407.428 107 298.955Z" fill="#33AA36"/>
<circle cx="333.715" cy="260" r="125" fill="white" stroke="url(#paint0_linear_867_497)" stroke-width="12"/>
<circle cx="333.715" cy="260" r="109.5" fill="white" stroke="url(#paint1_linear_867_497)" stroke-dasharray="6 6"/>
<path d="M282.06 271V245.8H292.896C295.992 245.8 298.38 246.64 300.06 248.32C301.356 249.616 302.004 251.296 302.004 253.36C302.004 255.376 301.38 257.008 300.132 258.256C298.884 259.504 297.228 260.32 295.164 260.704L302.904 271H299.412L292.104 261.208H284.904V271H282.06ZM284.904 258.652H292.644C294.564 258.652 296.124 258.184 297.324 257.248C298.524 256.312 299.124 255.028 299.124 253.396C299.124 251.836 298.548 250.624 297.396 249.76C296.268 248.872 294.696 248.428 292.68 248.428H284.904V258.652ZM329.028 267.616C326.604 270.16 323.52 271.432 319.776 271.432C316.032 271.432 312.96 270.16 310.56 267.616C308.16 265.072 306.96 262 306.96 258.4C306.96 254.824 308.172 251.764 310.596 249.22C313.02 246.652 316.104 245.368 319.848 245.368C323.592 245.368 326.664 246.64 329.064 249.184C331.464 251.728 332.664 254.8 332.664 258.4C332.664 261.976 331.452 265.048 329.028 267.616ZM312.72 265.78C314.616 267.796 316.992 268.804 319.848 268.804C322.704 268.804 325.056 267.808 326.904 265.816C328.776 263.8 329.712 261.328 329.712 258.4C329.712 255.496 328.764 253.036 326.868 251.02C324.996 249.004 322.632 247.996 319.776 247.996C316.92 247.996 314.556 249.004 312.684 251.02C310.836 253.012 309.912 255.472 309.912 258.4C309.912 261.304 310.848 263.764 312.72 265.78ZM338.662 271V245.8H341.506V268.372H355.69V271H338.662ZM360.951 271V245.8H379.167V248.392H363.795V256.996H377.547V259.588H363.795V268.408H379.347V271H360.951Z" fill="black"/>
<circle cx="18.5" cy="18.5" r="14" transform="matrix(-1 0 0 1 173 213)" fill="white" stroke="url(#paint2_linear_867_497)" stroke-width="9"/>
<circle cx="4.5" cy="4.5" r="4" transform="matrix(-1 0 0 1 159 227)" fill="white" stroke="url(#paint3_linear_867_497)"/>
<circle cx="18.5" cy="18.5" r="14" transform="matrix(-1 0 0 1 214 113)" fill="white" stroke="url(#paint4_linear_867_497)" stroke-width="9"/>
<circle cx="4.5" cy="4.5" r="4" transform="matrix(-1 0 0 1 200 127)" fill="white" stroke="url(#paint5_linear_867_497)"/>
<circle cx="18.5" cy="18.5" r="14" transform="matrix(-1 0 0 1 354 41)" fill="white" stroke="url(#paint6_linear_867_497)" stroke-width="9"/>
<circle cx="4.5" cy="4.5" r="4" transform="matrix(-1 0 0 1 340 55)" fill="white" stroke="url(#paint7_linear_867_497)"/>
<circle cx="18.5" cy="18.5" r="14" transform="matrix(-1 0 0 1 541 159)" fill="white" stroke="url(#paint8_linear_867_497)" stroke-width="9"/>
<circle cx="4.5" cy="4.5" r="4" transform="matrix(-1 0 0 1 527 173)" fill="white" stroke="url(#paint9_linear_867_497)"/>
<circle cx="18.5" cy="18.5" r="14" transform="matrix(-1 0 0 1 502 398)" fill="white" stroke="url(#paint10_linear_867_497)" stroke-width="9"/>
<circle cx="4.5" cy="4.5" r="4" transform="matrix(-1 0 0 1 488 412)" fill="white" stroke="url(#paint11_linear_867_497)"/>
<circle cx="18.5" cy="18.5" r="14" transform="matrix(-1 0 0 1 210 417)" fill="white" stroke="url(#paint12_linear_867_497)" stroke-width="9"/>
<circle cx="4.5" cy="4.5" r="4" transform="matrix(-1 0 0 1 196 431)" fill="white" stroke="url(#paint13_linear_867_497)"/>
<path d="M6.75533 232.264C4.84866 232.264 3.16199 231.655 1.69533 230.438L3.47733 227.864C4.57733 228.744 5.69933 229.184 6.84333 229.184C7.75266 229.184 8.47133 228.869 8.99933 228.238C9.52733 227.607 9.85 226.757 9.96733 225.686C9.146 226.39 8.10466 226.742 6.84333 226.742C5.15666 226.742 3.81466 226.302 2.81733 225.422C1.83466 224.527 1.34333 223.295 1.34333 221.726C1.34333 220.171 1.88599 218.888 2.97133 217.876C4.07133 216.849 5.48666 216.336 7.21733 216.336C8.22933 216.336 9.07266 216.468 9.74733 216.732C10.4367 216.996 11.0747 217.421 11.6613 218.008C12.8787 219.225 13.4873 221.176 13.4873 223.86C13.4873 226.412 12.9007 228.451 11.7273 229.976C10.554 231.501 8.89666 232.264 6.75533 232.264ZM5.43533 223.288C5.91933 223.713 6.572 223.926 7.39333 223.926C8.21466 223.926 8.86 223.713 9.32933 223.288C9.79866 222.848 10.0333 222.283 10.0333 221.594C10.0333 220.905 9.79133 220.34 9.30733 219.9C8.82333 219.46 8.16333 219.24 7.32733 219.24C6.506 219.24 5.86066 219.46 5.39133 219.9C4.93666 220.325 4.70933 220.897 4.70933 221.616C4.70933 222.305 4.95133 222.863 5.43533 223.288ZM22.0917 223.156C21.3877 223.919 20.4857 224.3 19.3857 224.3C18.2857 224.3 17.3911 223.926 16.7017 223.178C16.0124 222.415 15.6677 221.477 15.6677 220.362C15.6677 219.247 16.0197 218.316 16.7237 217.568C17.4277 216.805 18.3297 216.424 19.4297 216.424C20.5297 216.424 21.4244 216.805 22.1137 217.568C22.8031 218.316 23.1477 219.247 23.1477 220.362C23.1477 221.462 22.7957 222.393 22.0917 223.156ZM17.2077 232L28.4497 216.6H31.0677L19.8257 232H17.2077ZM31.5517 231.032C30.8477 231.795 29.9457 232.176 28.8457 232.176C27.7457 232.176 26.8511 231.802 26.1617 231.054C25.4724 230.291 25.1277 229.353 25.1277 228.238C25.1277 227.123 25.4797 226.192 26.1837 225.444C26.8877 224.681 27.7897 224.3 28.8897 224.3C29.9897 224.3 30.8844 224.681 31.5737 225.444C32.2631 226.192 32.6077 227.123 32.6077 228.238C32.6077 229.338 32.2557 230.269 31.5517 231.032ZM19.4297 222.298C19.8697 222.298 20.2144 222.115 20.4637 221.748C20.7131 221.367 20.8377 220.905 20.8377 220.362C20.8377 219.834 20.6984 219.379 20.4197 218.998C20.1557 218.617 19.8111 218.426 19.3857 218.426C18.9457 218.426 18.6011 218.609 18.3517 218.976C18.1024 219.343 17.9777 219.805 17.9777 220.362C17.9777 220.89 18.1097 221.345 18.3737 221.726C18.6524 222.107 19.0044 222.298 19.4297 222.298ZM28.8897 230.174C29.3297 230.174 29.6744 229.991 29.9237 229.624C30.1731 229.243 30.2977 228.781 30.2977 228.238C30.2977 227.71 30.1584 227.255 29.8797 226.874C29.6157 226.493 29.2711 226.302 28.8457 226.302C28.4057 226.302 28.0611 226.485 27.8117 226.852C27.5624 227.219 27.4377 227.681 27.4377 228.238C27.4377 228.766 27.5697 229.221 27.8337 229.602C28.1124 229.983 28.4644 230.174 28.8897 230.174Z" fill="#33AA36"/>
<path d="M41.0592 232L48.0772 216.49H49.7052L56.7232 232H54.8532L53.0492 227.93H44.6672L42.8412 232H41.0592ZM45.3492 226.368H52.3672L48.8692 218.514L45.3492 226.368ZM59.474 232V220.626H61.168V223.596C61.608 222.613 62.2314 221.829 63.038 221.242C63.8447 220.655 64.7687 220.384 65.81 220.428V222.254H65.678C64.3727 222.254 63.2947 222.709 62.444 223.618C61.5934 224.527 61.168 225.811 61.168 227.468V232H59.474ZM68.39 232V215.94H70.084V222.606C70.9787 221.125 72.2767 220.384 73.978 220.384C75.3274 220.384 76.3907 220.802 77.168 221.638C77.9454 222.459 78.334 223.559 78.334 224.938V232H76.64V225.356C76.64 224.285 76.3614 223.449 75.804 222.848C75.2614 222.232 74.4914 221.924 73.494 221.924C72.5114 221.924 71.6974 222.254 71.052 222.914C70.4067 223.574 70.084 224.432 70.084 225.488V232H68.39ZM81.9907 218.14V216.27H83.9267V218.14H81.9907ZM82.1007 232V220.626H83.7947V232H82.1007ZM91.532 232.198C90.5493 232.198 89.7647 231.941 89.178 231.428C88.606 230.9 88.32 230.086 88.32 228.986V222.122H86.736V220.626H88.32V217.194H90.014V220.626H93.622V222.122H90.014V228.766C90.014 230.027 90.652 230.658 91.928 230.658C92.4853 230.658 93.0353 230.526 93.578 230.262V231.714C92.962 232.037 92.28 232.198 91.532 232.198ZM97.3102 227.006C97.4276 228.165 97.8603 229.089 98.6083 229.778C99.3709 230.453 100.273 230.79 101.314 230.79C102.678 230.79 103.874 230.255 104.9 229.184L105.956 230.13C104.68 231.553 103.118 232.264 101.27 232.264C99.6716 232.264 98.3223 231.714 97.2223 230.614C96.1369 229.499 95.5943 228.069 95.5943 226.324C95.5943 224.667 96.1149 223.266 97.1562 222.122C98.1976 220.963 99.4956 220.384 101.05 220.384C102.678 220.384 103.969 220.956 104.922 222.1C105.876 223.244 106.352 224.681 106.352 226.412C106.352 226.632 106.345 226.83 106.33 227.006H97.3102ZM97.3102 225.642H104.636C104.534 224.542 104.167 223.633 103.536 222.914C102.92 222.181 102.077 221.814 101.006 221.814C100.038 221.814 99.2096 222.173 98.5203 222.892C97.8309 223.611 97.4276 224.527 97.3102 225.642ZM114.444 232.264C112.801 232.264 111.415 231.685 110.286 230.526C109.171 229.353 108.614 227.952 108.614 226.324C108.614 224.696 109.171 223.303 110.286 222.144C111.415 220.971 112.801 220.384 114.444 220.384C116.204 220.384 117.722 221.059 118.998 222.408L117.92 223.552C116.864 222.437 115.698 221.88 114.422 221.88C113.278 221.88 112.31 222.313 111.518 223.178C110.74 224.029 110.352 225.077 110.352 226.324C110.352 227.556 110.748 228.605 111.54 229.47C112.346 230.321 113.344 230.746 114.532 230.746C115.749 230.746 116.893 230.174 117.964 229.03L119.086 230.064C117.766 231.531 116.218 232.264 114.444 232.264ZM125.692 232.198C124.709 232.198 123.925 231.941 123.338 231.428C122.766 230.9 122.48 230.086 122.48 228.986V222.122H120.896V220.626H122.48V217.194H124.174V220.626H127.782V222.122H124.174V228.766C124.174 230.027 124.812 230.658 126.088 230.658C126.645 230.658 127.195 230.526 127.738 230.262V231.714C127.122 232.037 126.44 232.198 125.692 232.198Z" fill="black"/>
<path d="M54.3164 119V106.922L51.6324 107.582L50.9284 104.81L55.3504 103.49H57.6604V119H54.3164ZM60.7596 119V116.316L65.8856 112.114C66.8976 111.278 67.5943 110.611 67.9756 110.112C68.357 109.599 68.5476 109.034 68.5476 108.418C68.5476 107.787 68.357 107.296 67.9756 106.944C67.5943 106.592 67.0956 106.416 66.4796 106.416C65.9076 106.416 65.387 106.577 64.9176 106.9C64.463 107.208 63.935 107.736 63.3336 108.484L60.9576 106.57C61.7643 105.47 62.593 104.663 63.4436 104.15C64.309 103.637 65.3943 103.38 66.6996 103.38C68.2983 103.38 69.5816 103.82 70.5496 104.7C71.5176 105.565 72.0016 106.724 72.0016 108.176C72.0016 109.012 71.8403 109.767 71.5176 110.442C71.195 111.102 70.777 111.689 70.2636 112.202C69.7503 112.701 68.9803 113.346 67.9536 114.138L65.4456 116.074H72.1556V119H60.7596ZM80.8027 110.156C80.0987 110.919 79.1967 111.3 78.0967 111.3C76.9967 111.3 76.102 110.926 75.4127 110.178C74.7233 109.415 74.3787 108.477 74.3787 107.362C74.3787 106.247 74.7307 105.316 75.4347 104.568C76.1387 103.805 77.0407 103.424 78.1407 103.424C79.2407 103.424 80.1353 103.805 80.8247 104.568C81.514 105.316 81.8587 106.247 81.8587 107.362C81.8587 108.462 81.5067 109.393 80.8027 110.156ZM75.9187 119L87.1607 103.6H89.7787L78.5367 119H75.9187ZM90.2627 118.032C89.5587 118.795 88.6567 119.176 87.5567 119.176C86.4567 119.176 85.562 118.802 84.8727 118.054C84.1833 117.291 83.8387 116.353 83.8387 115.238C83.8387 114.123 84.1907 113.192 84.8947 112.444C85.5987 111.681 86.5007 111.3 87.6007 111.3C88.7007 111.3 89.5953 111.681 90.2847 112.444C90.974 113.192 91.3187 114.123 91.3187 115.238C91.3187 116.338 90.9667 117.269 90.2627 118.032ZM78.1407 109.298C78.5807 109.298 78.9253 109.115 79.1747 108.748C79.424 108.367 79.5487 107.905 79.5487 107.362C79.5487 106.834 79.4093 106.379 79.1307 105.998C78.8667 105.617 78.522 105.426 78.0967 105.426C77.6567 105.426 77.312 105.609 77.0627 105.976C76.8133 106.343 76.6887 106.805 76.6887 107.362C76.6887 107.89 76.8207 108.345 77.0847 108.726C77.3633 109.107 77.7153 109.298 78.1407 109.298ZM87.6007 117.174C88.0407 117.174 88.3853 116.991 88.6347 116.624C88.884 116.243 89.0087 115.781 89.0087 115.238C89.0087 114.71 88.8693 114.255 88.5907 113.874C88.3267 113.493 87.982 113.302 87.5567 113.302C87.1167 113.302 86.772 113.485 86.5227 113.852C86.2733 114.219 86.1487 114.681 86.1487 115.238C86.1487 115.766 86.2807 116.221 86.5447 116.602C86.8233 116.983 87.1753 117.174 87.6007 117.174Z" fill="#33AA36"/>
<path d="M107.25 119.242C105.299 119.242 103.745 118.663 102.586 117.504C101.427 116.331 100.848 114.681 100.848 112.554V103.6H102.586V112.444C102.586 114.101 102.997 115.385 103.818 116.294C104.654 117.189 105.813 117.636 107.294 117.636C108.746 117.636 109.883 117.203 110.704 116.338C111.525 115.473 111.936 114.211 111.936 112.554V103.6H113.674V112.422C113.674 114.622 113.095 116.309 111.936 117.482C110.777 118.655 109.215 119.242 107.25 119.242ZM117.937 119V103.6H119.675V119H117.937ZM121.546 121.816L131.754 101.444H133.316L123.108 121.816H121.546ZM141.518 119.242C139.567 119.242 138.012 118.663 136.854 117.504C135.695 116.331 135.116 114.681 135.116 112.554V103.6H136.854V112.444C136.854 114.101 137.264 115.385 138.086 116.294C138.922 117.189 140.08 117.636 141.562 117.636C143.014 117.636 144.15 117.203 144.972 116.338C145.793 115.473 146.204 114.211 146.204 112.554V103.6H147.942V112.422C147.942 114.622 147.362 116.309 146.204 117.482C145.045 118.655 143.483 119.242 141.518 119.242ZM150.67 119L156.588 111.146L150.89 103.6H152.936L157.666 109.892L162.352 103.6H164.376L158.678 111.124L164.596 119H162.528L157.6 112.378L152.672 119H150.67Z" fill="black"/>
<path d="M265.032 21V8.922L262.348 9.582L261.644 6.81L266.066 5.49H268.376V21H265.032ZM274.313 21V8.922L271.629 9.582L270.925 6.81L275.347 5.49H277.657V21H274.313ZM287.093 12.156C286.389 12.9187 285.487 13.3 284.387 13.3C283.287 13.3 282.392 12.926 281.703 12.178C281.013 11.4153 280.669 10.4767 280.669 9.362C280.669 8.24733 281.021 7.316 281.725 6.568C282.429 5.80533 283.331 5.424 284.431 5.424C285.531 5.424 286.425 5.80533 287.115 6.568C287.804 7.316 288.149 8.24733 288.149 9.362C288.149 10.462 287.797 11.3933 287.093 12.156ZM282.209 21L293.451 5.6L296.069 5.6L284.827 21H282.209ZM296.553 20.032C295.849 20.7947 294.947 21.176 293.847 21.176C292.747 21.176 291.852 20.802 291.163 20.054C290.473 19.2913 290.129 18.3527 290.129 17.238C290.129 16.1233 290.481 15.192 291.185 14.444C291.889 13.6813 292.791 13.3 293.891 13.3C294.991 13.3 295.885 13.6813 296.575 14.444C297.264 15.192 297.609 16.1233 297.609 17.238C297.609 18.338 297.257 19.2693 296.553 20.032ZM284.431 11.298C284.871 11.298 285.215 11.1147 285.465 10.748C285.714 10.3667 285.839 9.90467 285.839 9.362C285.839 8.834 285.699 8.37933 285.421 7.998C285.157 7.61667 284.812 7.426 284.387 7.426C283.947 7.426 283.602 7.60933 283.353 7.976C283.103 8.34267 282.979 8.80467 282.979 9.362C282.979 9.89 283.111 10.3447 283.375 10.726C283.653 11.1073 284.005 11.298 284.431 11.298ZM293.891 19.174C294.331 19.174 294.675 18.9907 294.925 18.624C295.174 18.2427 295.299 17.7807 295.299 17.238C295.299 16.71 295.159 16.2553 294.881 15.874C294.617 15.4927 294.272 15.302 293.847 15.302C293.407 15.302 293.062 15.4853 292.813 15.852C292.563 16.2187 292.439 16.6807 292.439 17.238C292.439 17.766 292.571 18.2207 292.835 18.602C293.113 18.9833 293.465 19.174 293.891 19.174Z" fill="#33AA36"/>
<path d="M307.38 21V5.6H309.14L314.75 14.004L320.36 5.6H322.12V21H320.382V8.526L314.772 16.776H314.684L309.074 8.548V21H307.38ZM329.582 21.242C328.423 21.242 327.426 20.9267 326.59 20.296C325.754 19.6653 325.336 18.7853 325.336 17.656C325.336 16.468 325.776 15.5513 326.656 14.906C327.536 14.2607 328.716 13.938 330.198 13.938C331.371 13.938 332.53 14.0993 333.674 14.422V14.07C333.674 13.0727 333.38 12.31 332.794 11.782C332.207 11.254 331.378 10.99 330.308 10.99C329.193 10.99 328.042 11.2613 326.854 11.804L326.348 10.418C327.756 9.77267 329.134 9.45 330.484 9.45C332.097 9.45 333.322 9.868 334.158 10.704C334.95 11.496 335.346 12.6107 335.346 14.048V21H333.674V19.306C332.662 20.5967 331.298 21.242 329.582 21.242ZM329.912 19.878C330.968 19.878 331.862 19.592 332.596 19.02C333.329 18.448 333.696 17.7147 333.696 16.82V15.764C332.581 15.4413 331.474 15.28 330.374 15.28C329.332 15.28 328.518 15.4927 327.932 15.918C327.345 16.3287 327.052 16.8933 327.052 17.612C327.052 18.3013 327.323 18.8513 327.866 19.262C328.423 19.6727 329.105 19.878 329.912 19.878ZM338.934 21V9.626H340.628V11.606C341.523 10.1247 342.821 9.384 344.522 9.384C345.871 9.384 346.935 9.802 347.712 10.638C348.489 11.4593 348.878 12.5593 348.878 13.938V21H347.184V14.356C347.184 13.2853 346.905 12.4493 346.348 11.848C345.805 11.232 345.035 10.924 344.038 10.924C343.055 10.924 342.241 11.254 341.596 11.914C340.951 12.574 340.628 13.432 340.628 14.488V21H338.934ZM355.879 21.242C354.72 21.242 353.723 20.9267 352.887 20.296C352.051 19.6653 351.633 18.7853 351.633 17.656C351.633 16.468 352.073 15.5513 352.953 14.906C353.833 14.2607 355.013 13.938 356.495 13.938C357.668 13.938 358.827 14.0993 359.971 14.422V14.07C359.971 13.0727 359.677 12.31 359.091 11.782C358.504 11.254 357.675 10.99 356.605 10.99C355.49 10.99 354.339 11.2613 353.151 11.804L352.645 10.418C354.053 9.77267 355.431 9.45 356.781 9.45C358.394 9.45 359.619 9.868 360.455 10.704C361.247 11.496 361.643 12.6107 361.643 14.048V21H359.971V19.306C358.959 20.5967 357.595 21.242 355.879 21.242ZM356.209 19.878C357.265 19.878 358.159 19.592 358.893 19.02C359.626 18.448 359.993 17.7147 359.993 16.82V15.764C358.878 15.4413 357.771 15.28 356.671 15.28C355.629 15.28 354.815 15.4927 354.229 15.918C353.642 16.3287 353.349 16.8933 353.349 17.612C353.349 18.3013 353.62 18.8513 354.163 19.262C354.72 19.6727 355.402 19.878 356.209 19.878ZM370.269 24.564C368.348 24.564 366.624 24.036 365.099 22.98L365.869 21.66C367.204 22.628 368.663 23.112 370.247 23.112C371.523 23.112 372.528 22.76 373.261 22.056C374.009 21.3667 374.383 20.3693 374.383 19.064V17.722C373.18 19.3207 371.692 20.12 369.917 20.12C368.48 20.12 367.226 19.6287 366.155 18.646C365.099 17.6487 364.571 16.3507 364.571 14.752C364.571 13.1533 365.106 11.8627 366.177 10.88C367.248 9.88267 368.494 9.384 369.917 9.384C371.736 9.384 373.217 10.1467 374.361 11.672V9.626H376.055V19.02C376.055 20.736 375.571 22.078 374.603 23.046C373.591 24.058 372.146 24.564 370.269 24.564ZM370.247 18.624C371.362 18.624 372.337 18.2573 373.173 17.524C374.009 16.7907 374.427 15.8593 374.427 14.73C374.427 13.6007 374.009 12.6767 373.173 11.958C372.352 11.2393 371.376 10.88 370.247 10.88C369.132 10.88 368.194 11.2393 367.431 11.958C366.683 12.662 366.309 13.5933 366.309 14.752C366.309 15.8667 366.69 16.7907 367.453 17.524C368.23 18.2573 369.162 18.624 370.247 18.624ZM380.852 16.006C380.97 17.1647 381.402 18.0887 382.15 18.778C382.913 19.4527 383.815 19.79 384.856 19.79C386.22 19.79 387.416 19.2547 388.442 18.184L389.498 19.13C388.222 20.5527 386.66 21.264 384.812 21.264C383.214 21.264 381.864 20.714 380.764 19.614C379.679 18.4993 379.136 17.0693 379.136 15.324C379.136 13.6667 379.657 12.266 380.698 11.122C381.74 9.96333 383.038 9.384 384.592 9.384C386.22 9.384 387.511 9.956 388.464 11.1C389.418 12.244 389.894 13.6813 389.894 15.412C389.894 15.632 389.887 15.83 389.872 16.006H380.852ZM380.852 14.642L388.178 14.642C388.076 13.542 387.709 12.6327 387.078 11.914C386.462 11.1807 385.619 10.814 384.548 10.814C383.58 10.814 382.752 11.1733 382.062 11.892C381.373 12.6107 380.97 13.5273 380.852 14.642ZM392.86 21V9.626L394.554 9.626V12.596C394.994 11.6133 395.617 10.8287 396.424 10.242C397.23 9.65533 398.154 9.384 399.196 9.428V11.254H399.064C397.758 11.254 396.68 11.7087 395.83 12.618C394.979 13.5273 394.554 14.8107 394.554 16.468V21H392.86Z" fill="black"/>
<path d="M552.254 165V152.922L549.57 153.582L548.866 150.81L553.288 149.49H555.598V165H552.254ZM564.329 165.264C562.1 165.264 560.178 164.494 558.565 162.954L560.611 160.512C561.843 161.627 563.068 162.184 564.285 162.184C565.092 162.184 565.722 161.993 566.177 161.612C566.632 161.231 566.859 160.695 566.859 160.006C566.859 159.361 566.61 158.855 566.111 158.488C565.612 158.107 564.952 157.916 564.131 157.916C563.31 157.916 562.452 158.107 561.557 158.488L559.599 157.19L560.039 149.6H569.499V152.57H562.943L562.767 155.232C563.471 155.056 564.146 154.968 564.791 154.968C566.39 154.968 567.688 155.379 568.685 156.2C569.682 157.021 570.181 158.268 570.181 159.94C570.181 161.568 569.646 162.866 568.575 163.834C567.519 164.787 566.104 165.264 564.329 165.264ZM578.891 156.156C578.187 156.919 577.285 157.3 576.185 157.3C575.085 157.3 574.19 156.926 573.501 156.178C572.811 155.415 572.467 154.477 572.467 153.362C572.467 152.247 572.819 151.316 573.523 150.568C574.227 149.805 575.129 149.424 576.229 149.424C577.329 149.424 578.223 149.805 578.913 150.568C579.602 151.316 579.947 152.247 579.947 153.362C579.947 154.462 579.595 155.393 578.891 156.156ZM574.007 165L585.249 149.6H587.867L576.625 165H574.007ZM588.351 164.032C587.647 164.795 586.745 165.176 585.645 165.176C584.545 165.176 583.65 164.802 582.961 164.054C582.271 163.291 581.927 162.353 581.927 161.238C581.927 160.123 582.279 159.192 582.983 158.444C583.687 157.681 584.589 157.3 585.689 157.3C586.789 157.3 587.683 157.681 588.373 158.444C589.062 159.192 589.407 160.123 589.407 161.238C589.407 162.338 589.055 163.269 588.351 164.032ZM576.229 155.298C576.669 155.298 577.013 155.115 577.263 154.748C577.512 154.367 577.637 153.905 577.637 153.362C577.637 152.834 577.497 152.379 577.219 151.998C576.955 151.617 576.61 151.426 576.185 151.426C575.745 151.426 575.4 151.609 575.151 151.976C574.901 152.343 574.777 152.805 574.777 153.362C574.777 153.89 574.909 154.345 575.173 154.726C575.451 155.107 575.803 155.298 576.229 155.298ZM585.689 163.174C586.129 163.174 586.473 162.991 586.723 162.624C586.972 162.243 587.097 161.781 587.097 161.238C587.097 160.71 586.957 160.255 586.679 159.874C586.415 159.493 586.07 159.302 585.645 159.302C585.205 159.302 584.86 159.485 584.611 159.852C584.361 160.219 584.237 160.681 584.237 161.238C584.237 161.766 584.369 162.221 584.633 162.602C584.911 162.983 585.263 163.174 585.689 163.174Z" fill="#33AA36"/>
<path d="M597.858 165L604.876 149.49H606.504L613.522 165H611.652L609.848 160.93H601.466L599.64 165H597.858ZM602.148 159.368H609.166L605.668 151.514L602.148 159.368ZM616.273 165V153.626H617.967V155.606C618.862 154.125 620.16 153.384 621.861 153.384C623.21 153.384 624.274 153.802 625.051 154.638C625.828 155.459 626.217 156.559 626.217 157.938V165H624.523V158.356C624.523 157.285 624.244 156.449 623.687 155.848C623.144 155.232 622.374 154.924 621.377 154.924C620.394 154.924 619.58 155.254 618.935 155.914C618.29 156.574 617.967 157.432 617.967 158.488V165H616.273ZM633.218 165.242C632.059 165.242 631.062 164.927 630.226 164.296C629.39 163.665 628.972 162.785 628.972 161.656C628.972 160.468 629.412 159.551 630.292 158.906C631.172 158.261 632.352 157.938 633.834 157.938C635.007 157.938 636.166 158.099 637.31 158.422V158.07C637.31 157.073 637.016 156.31 636.43 155.782C635.843 155.254 635.014 154.99 633.944 154.99C632.829 154.99 631.678 155.261 630.49 155.804L629.984 154.418C631.392 153.773 632.77 153.45 634.12 153.45C635.733 153.45 636.958 153.868 637.794 154.704C638.586 155.496 638.982 156.611 638.982 158.048V165H637.31V163.306C636.298 164.597 634.934 165.242 633.218 165.242ZM633.548 163.878C634.604 163.878 635.498 163.592 636.232 163.02C636.965 162.448 637.332 161.715 637.332 160.82V159.764C636.217 159.441 635.11 159.28 634.01 159.28C632.968 159.28 632.154 159.493 631.568 159.918C630.981 160.329 630.688 160.893 630.688 161.612C630.688 162.301 630.959 162.851 631.502 163.262C632.059 163.673 632.741 163.878 633.548 163.878ZM642.724 165V148.94H644.418V165H642.724ZM650.109 168.586C649.288 168.586 648.481 168.395 647.689 168.014L648.261 166.672C648.804 166.951 649.398 167.09 650.043 167.09C650.556 167.09 650.989 166.929 651.341 166.606C651.693 166.298 652.038 165.748 652.375 164.956L647.205 153.626H649.075L653.211 163.108L656.863 153.626H658.667L653.893 165.374C653.409 166.533 652.874 167.354 652.287 167.838C651.7 168.337 650.974 168.586 650.109 168.586ZM664.679 165.22C663.858 165.22 663.022 165.073 662.171 164.78C661.335 164.472 660.602 164.061 659.971 163.548L660.829 162.338C662.12 163.306 663.433 163.79 664.767 163.79C665.457 163.79 666.021 163.621 666.461 163.284C666.901 162.947 667.121 162.499 667.121 161.942C667.121 161.429 666.879 161.033 666.395 160.754C665.926 160.475 665.222 160.204 664.283 159.94C663.711 159.779 663.257 159.632 662.919 159.5C662.582 159.368 662.201 159.185 661.775 158.95C661.35 158.701 661.035 158.393 660.829 158.026C660.624 157.645 660.521 157.197 660.521 156.684C660.521 155.716 660.881 154.931 661.599 154.33C662.333 153.729 663.264 153.428 664.393 153.428C665.86 153.428 667.224 153.846 668.485 154.682L667.715 155.958C666.586 155.225 665.464 154.858 664.349 154.858C663.689 154.858 663.154 155.019 662.743 155.342C662.347 155.65 662.149 156.053 662.149 156.552C662.149 156.757 662.208 156.948 662.325 157.124C662.443 157.3 662.575 157.447 662.721 157.564C662.868 157.681 663.095 157.806 663.403 157.938C663.726 158.07 663.983 158.165 664.173 158.224C664.364 158.283 664.665 158.378 665.075 158.51C665.618 158.671 666.065 158.825 666.417 158.972C666.769 159.119 667.143 159.317 667.539 159.566C667.935 159.815 668.229 160.131 668.419 160.512C668.625 160.879 668.727 161.311 668.727 161.81C668.727 162.866 668.346 163.702 667.583 164.318C666.821 164.919 665.853 165.22 664.679 165.22ZM675.466 165.198C674.483 165.198 673.698 164.941 673.112 164.428C672.54 163.9 672.254 163.086 672.254 161.986V155.122H670.67V153.626H672.254V150.194H673.948V153.626H677.556V155.122H673.948V161.766C673.948 163.027 674.586 163.658 675.862 163.658C676.419 163.658 676.969 163.526 677.512 163.262V164.714C676.896 165.037 676.214 165.198 675.466 165.198Z" fill="black"/>
<path d="M531.194 448V435.922L528.51 436.582L527.806 433.81L532.228 432.49H534.538V448H531.194ZM544.018 448.264C542.155 448.264 540.674 447.714 539.574 446.614C538.356 445.397 537.748 443.439 537.748 440.74C537.748 438.247 538.32 436.223 539.464 434.668C540.608 433.113 542.287 432.336 544.502 432.336C546.291 432.336 547.897 432.901 549.32 434.03L547.538 436.648C546.98 436.223 546.467 435.915 545.998 435.724C545.543 435.519 545.008 435.416 544.392 435.416C543.482 435.416 542.764 435.746 542.236 436.406C541.722 437.051 541.407 437.909 541.29 438.98C542.287 438.32 543.35 437.99 544.48 437.99C546.064 437.99 547.362 438.423 548.374 439.288C549.386 440.153 549.892 441.371 549.892 442.94C549.892 444.495 549.334 445.771 548.22 446.768C547.105 447.765 545.704 448.264 544.018 448.264ZM541.928 444.722C542.412 445.147 543.064 445.36 543.886 445.36C544.707 445.36 545.352 445.147 545.822 444.722C546.291 444.297 546.526 443.739 546.526 443.05C546.526 442.39 546.284 441.855 545.8 441.444C545.316 441.019 544.663 440.806 543.842 440.806C543.02 440.806 542.375 441.011 541.906 441.422C541.436 441.833 541.202 442.383 541.202 443.072C541.202 443.732 541.444 444.282 541.928 444.722ZM558.54 439.156C557.836 439.919 556.934 440.3 555.834 440.3C554.734 440.3 553.839 439.926 553.15 439.178C552.461 438.415 552.116 437.477 552.116 436.362C552.116 435.247 552.468 434.316 553.172 433.568C553.876 432.805 554.778 432.424 555.878 432.424C556.978 432.424 557.873 432.805 558.562 433.568C559.251 434.316 559.596 435.247 559.596 436.362C559.596 437.462 559.244 438.393 558.54 439.156ZM553.656 448L564.898 432.6H567.516L556.274 448H553.656ZM568 447.032C567.296 447.795 566.394 448.176 565.294 448.176C564.194 448.176 563.299 447.802 562.61 447.054C561.921 446.291 561.576 445.353 561.576 444.238C561.576 443.123 561.928 442.192 562.632 441.444C563.336 440.681 564.238 440.3 565.338 440.3C566.438 440.3 567.333 440.681 568.022 441.444C568.711 442.192 569.056 443.123 569.056 444.238C569.056 445.338 568.704 446.269 568 447.032ZM555.878 438.298C556.318 438.298 556.663 438.115 556.912 437.748C557.161 437.367 557.286 436.905 557.286 436.362C557.286 435.834 557.147 435.379 556.868 434.998C556.604 434.617 556.259 434.426 555.834 434.426C555.394 434.426 555.049 434.609 554.8 434.976C554.551 435.343 554.426 435.805 554.426 436.362C554.426 436.89 554.558 437.345 554.822 437.726C555.101 438.107 555.453 438.298 555.878 438.298ZM565.338 446.174C565.778 446.174 566.123 445.991 566.372 445.624C566.621 445.243 566.746 444.781 566.746 444.238C566.746 443.71 566.607 443.255 566.328 442.874C566.064 442.493 565.719 442.302 565.294 442.302C564.854 442.302 564.509 442.485 564.26 442.852C564.011 443.219 563.886 443.681 563.886 444.238C563.886 444.766 564.018 445.221 564.282 445.602C564.561 445.983 564.913 446.174 565.338 446.174Z" fill="#33AA36"/>
<path d="M592.863 448.462L590.839 446.614C589.461 447.714 587.84 448.264 585.977 448.264C583.689 448.264 581.812 447.487 580.345 445.932C578.879 444.377 578.145 442.5 578.145 440.3C578.145 438.115 578.886 436.245 580.367 434.69C581.849 433.121 583.733 432.336 586.021 432.336C588.309 432.336 590.187 433.113 591.653 434.668C593.12 436.223 593.853 438.1 593.853 440.3C593.853 442.28 593.237 444.003 592.005 445.47L594.051 447.164L592.863 448.462ZM586.021 446.658C587.371 446.658 588.551 446.269 589.563 445.492L586.703 443.05L587.869 441.752L590.707 444.326C591.602 443.167 592.049 441.825 592.049 440.3C592.049 438.525 591.47 437.022 590.311 435.79C589.167 434.558 587.723 433.942 585.977 433.942C584.232 433.942 582.787 434.558 581.643 435.79C580.514 437.007 579.949 438.511 579.949 440.3C579.949 442.075 580.521 443.578 581.665 444.81C582.824 446.042 584.276 446.658 586.021 446.658ZM596.199 448L603.217 432.49H604.845L611.863 448H609.993L608.189 443.93H599.807L597.981 448H596.199ZM600.489 442.368H607.507L604.009 434.514L600.489 442.368Z" fill="black"/>
<path d="M21.2775 496.264C18.7695 496.264 16.7675 495.377 15.2715 493.602L17.6035 491.38C18.7035 492.612 19.9429 493.228 21.3215 493.228C21.9669 493.228 22.4875 493.059 22.8835 492.722C23.2942 492.37 23.4995 491.901 23.4995 491.314C23.4995 490.683 23.2355 490.199 22.7075 489.862C22.1795 489.525 21.4389 489.356 20.4855 489.356H19.0775L18.5495 487.2L22.2235 483.504H16.1735V480.6H26.5795V483.152L22.6855 486.87C25.4429 487.339 26.8215 488.791 26.8215 491.226C26.8215 492.707 26.3155 493.917 25.3035 494.856C24.3062 495.795 22.9642 496.264 21.2775 496.264ZM34.6362 496.264C32.7295 496.264 31.0429 495.655 29.5762 494.438L31.3582 491.864C32.4582 492.744 33.5802 493.184 34.7242 493.184C35.6335 493.184 36.3522 492.869 36.8802 492.238C37.4082 491.607 37.7309 490.757 37.8482 489.686C37.0269 490.39 35.9855 490.742 34.7242 490.742C33.0375 490.742 31.6955 490.302 30.6982 489.422C29.7155 488.527 29.2242 487.295 29.2242 485.726C29.2242 484.171 29.7669 482.888 30.8522 481.876C31.9522 480.849 33.3675 480.336 35.0982 480.336C36.1102 480.336 36.9535 480.468 37.6282 480.732C38.3175 480.996 38.9555 481.421 39.5422 482.008C40.7595 483.225 41.3682 485.176 41.3682 487.86C41.3682 490.412 40.7815 492.451 39.6082 493.976C38.4349 495.501 36.7775 496.264 34.6362 496.264ZM33.3162 487.288C33.8002 487.713 34.4529 487.926 35.2742 487.926C36.0955 487.926 36.7409 487.713 37.2102 487.288C37.6795 486.848 37.9142 486.283 37.9142 485.594C37.9142 484.905 37.6722 484.34 37.1882 483.9C36.7042 483.46 36.0442 483.24 35.2082 483.24C34.3869 483.24 33.7415 483.46 33.2722 483.9C32.8175 484.325 32.5902 484.897 32.5902 485.616C32.5902 486.305 32.8322 486.863 33.3162 487.288ZM49.9726 487.156C49.2686 487.919 48.3666 488.3 47.2666 488.3C46.1666 488.3 45.2719 487.926 44.5826 487.178C43.8933 486.415 43.5486 485.477 43.5486 484.362C43.5486 483.247 43.9006 482.316 44.6046 481.568C45.3086 480.805 46.2106 480.424 47.3106 480.424C48.4106 480.424 49.3053 480.805 49.9946 481.568C50.6839 482.316 51.0286 483.247 51.0286 484.362C51.0286 485.462 50.6766 486.393 49.9726 487.156ZM45.0886 496L56.3306 480.6H58.9486L47.7066 496H45.0886ZM59.4326 495.032C58.7286 495.795 57.8266 496.176 56.7266 496.176C55.6266 496.176 54.7319 495.802 54.0426 495.054C53.3533 494.291 53.0086 493.353 53.0086 492.238C53.0086 491.123 53.3606 490.192 54.0646 489.444C54.7686 488.681 55.6706 488.3 56.7706 488.3C57.8706 488.3 58.7653 488.681 59.4546 489.444C60.1439 490.192 60.4886 491.123 60.4886 492.238C60.4886 493.338 60.1366 494.269 59.4326 495.032ZM47.3106 486.298C47.7506 486.298 48.0953 486.115 48.3446 485.748C48.5939 485.367 48.7186 484.905 48.7186 484.362C48.7186 483.834 48.5793 483.379 48.3006 482.998C48.0366 482.617 47.6919 482.426 47.2666 482.426C46.8266 482.426 46.4819 482.609 46.2326 482.976C45.9833 483.343 45.8586 483.805 45.8586 484.362C45.8586 484.89 45.9906 485.345 46.2546 485.726C46.5333 486.107 46.8853 486.298 47.3106 486.298ZM56.7706 494.174C57.2106 494.174 57.5553 493.991 57.8046 493.624C58.0539 493.243 58.1786 492.781 58.1786 492.238C58.1786 491.71 58.0393 491.255 57.7606 490.874C57.4966 490.493 57.1519 490.302 56.7266 490.302C56.2866 490.302 55.9419 490.485 55.6926 490.852C55.4433 491.219 55.3186 491.681 55.3186 492.238C55.3186 492.766 55.4506 493.221 55.7146 493.602C55.9933 493.983 56.3453 494.174 56.7706 494.174Z" fill="#33AA36"/>
<path d="M70.26 496V480.6H75.606C78.0114 480.6 79.9767 481.333 81.502 482.8C83.0274 484.252 83.79 486.085 83.79 488.3C83.79 490.5 83.02 492.333 81.48 493.8C79.9547 495.267 77.9967 496 75.606 496H70.26ZM71.998 494.394H75.606C77.5274 494.394 79.0674 493.822 80.226 492.678C81.3994 491.519 81.986 490.06 81.986 488.3C81.986 486.555 81.3994 485.103 80.226 483.944C79.0527 482.785 77.5127 482.206 75.606 482.206H71.998V494.394ZM88.195 491.006C88.3123 492.165 88.745 493.089 89.493 493.778C90.2557 494.453 91.1577 494.79 92.199 494.79C93.563 494.79 94.7583 494.255 95.785 493.184L96.841 494.13C95.565 495.553 94.003 496.264 92.155 496.264C90.5563 496.264 89.207 495.714 88.107 494.614C87.0217 493.499 86.479 492.069 86.479 490.324C86.479 488.667 86.9997 487.266 88.041 486.122C89.0823 484.963 90.3803 484.384 91.935 484.384C93.563 484.384 94.8537 484.956 95.807 486.1C96.7603 487.244 97.237 488.681 97.237 490.412C97.237 490.632 97.2297 490.83 97.215 491.006H88.195ZM88.195 489.642H95.521C95.4183 488.542 95.0517 487.633 94.421 486.914C93.805 486.181 92.9617 485.814 91.891 485.814C90.923 485.814 90.0943 486.173 89.405 486.892C88.7157 487.611 88.3123 488.527 88.195 489.642ZM103.45 496.088L98.522 484.626H100.392L104.22 494.064L108.07 484.626H109.896L104.946 496.088H103.45ZM112.902 491.006C113.019 492.165 113.452 493.089 114.2 493.778C114.963 494.453 115.865 494.79 116.906 494.79C118.27 494.79 119.465 494.255 120.492 493.184L121.548 494.13C120.272 495.553 118.71 496.264 116.862 496.264C115.263 496.264 113.914 495.714 112.814 494.614C111.729 493.499 111.186 492.069 111.186 490.324C111.186 488.667 111.707 487.266 112.748 486.122C113.789 484.963 115.087 484.384 116.642 484.384C118.27 484.384 119.561 484.956 120.514 486.1C121.467 487.244 121.944 488.681 121.944 490.412C121.944 490.632 121.937 490.83 121.922 491.006H112.902ZM112.902 489.642H120.228C120.125 488.542 119.759 487.633 119.128 486.914C118.512 486.181 117.669 485.814 116.598 485.814C115.63 485.814 114.801 486.173 114.112 486.892C113.423 487.611 113.019 488.527 112.902 489.642ZM125.064 496V479.94H126.758V496H125.064ZM140.127 494.526C138.983 495.685 137.568 496.264 135.881 496.264C134.194 496.264 132.786 495.685 131.657 494.526C130.542 493.367 129.985 491.967 129.985 490.324C129.985 488.696 130.55 487.303 131.679 486.144C132.823 484.971 134.238 484.384 135.925 484.384C137.612 484.384 139.02 484.963 140.149 486.122C141.278 487.281 141.843 488.681 141.843 490.324C141.843 491.952 141.271 493.353 140.127 494.526ZM135.925 494.746C137.142 494.746 138.14 494.321 138.917 493.47C139.709 492.619 140.105 491.571 140.105 490.324C140.105 489.092 139.694 488.043 138.873 487.178C138.066 486.313 137.069 485.88 135.881 485.88C134.664 485.88 133.666 486.313 132.889 487.178C132.112 488.029 131.723 489.077 131.723 490.324C131.723 491.556 132.126 492.605 132.933 493.47C133.74 494.321 134.737 494.746 135.925 494.746ZM144.912 499.52V484.626H146.606V486.914C147.75 485.227 149.202 484.384 150.962 484.384C152.414 484.384 153.682 484.927 154.768 486.012C155.853 487.083 156.396 488.52 156.396 490.324C156.396 492.099 155.853 493.529 154.768 494.614C153.682 495.699 152.414 496.242 150.962 496.242C149.172 496.242 147.72 495.435 146.606 493.822V499.52H144.912ZM150.654 494.724C151.798 494.724 152.751 494.328 153.514 493.536C154.276 492.729 154.658 491.651 154.658 490.302C154.658 488.997 154.269 487.941 153.492 487.134C152.714 486.313 151.768 485.902 150.654 485.902C149.554 485.902 148.593 486.32 147.772 487.156C146.95 487.992 146.54 489.048 146.54 490.324C146.54 491.6 146.95 492.656 147.772 493.492C148.593 494.313 149.554 494.724 150.654 494.724ZM160.533 491.006C160.65 492.165 161.083 493.089 161.831 493.778C162.594 494.453 163.496 494.79 164.537 494.79C165.901 494.79 167.096 494.255 168.123 493.184L169.179 494.13C167.903 495.553 166.341 496.264 164.493 496.264C162.894 496.264 161.545 495.714 160.445 494.614C159.36 493.499 158.817 492.069 158.817 490.324C158.817 488.667 159.338 487.266 160.379 486.122C161.42 484.963 162.718 484.384 164.273 484.384C165.901 484.384 167.192 484.956 168.145 486.1C169.098 487.244 169.575 488.681 169.575 490.412C169.575 490.632 169.568 490.83 169.553 491.006H160.533ZM160.533 489.642H167.859C167.756 488.542 167.39 487.633 166.759 486.914C166.143 486.181 165.3 485.814 164.229 485.814C163.261 485.814 162.432 486.173 161.743 486.892C161.054 487.611 160.65 488.527 160.533 489.642ZM172.54 496V484.626H174.234V487.596C174.674 486.613 175.298 485.829 176.104 485.242C176.911 484.655 177.835 484.384 178.876 484.428V486.254H178.744C177.439 486.254 176.361 486.709 175.51 487.618C174.66 488.527 174.234 489.811 174.234 491.468V496H172.54Z" fill="black"/>
<defs>
<linearGradient id="paint0_linear_867_497" x1="397.5" y1="304.5" x2="238.5" y2="186" gradientUnits="userSpaceOnUse">
<stop stop-color="#33AA36"/>
<stop offset="1" stop-color="#E4FFE4"/>
</linearGradient>
<linearGradient id="paint1_linear_867_497" x1="408" y1="345.5" x2="248.5" y2="185.5" gradientUnits="userSpaceOnUse">
<stop stop-color="#33A935"/>
<stop offset="1" stop-color="#DAFFEF"/>
</linearGradient>
<linearGradient id="paint2_linear_867_497" x1="34.3224" y1="4.17873" x2="1.86623" y2="26.2083" gradientUnits="userSpaceOnUse">
<stop stop-color="#21CD85"/>
<stop offset="1" stop-color="#36A224"/>
</linearGradient>
<linearGradient id="paint3_linear_867_497" x1="8.34868" y1="1.01645" x2="0.453948" y2="6.375" gradientUnits="userSpaceOnUse">
<stop stop-color="#21CD85"/>
<stop offset="1" stop-color="#36A224"/>
</linearGradient>
<linearGradient id="paint4_linear_867_497" x1="34.3224" y1="4.17873" x2="1.86623" y2="26.2083" gradientUnits="userSpaceOnUse">
<stop stop-color="#21CD85"/>
<stop offset="1" stop-color="#36A224"/>
</linearGradient>
<linearGradient id="paint5_linear_867_497" x1="8.34868" y1="1.01645" x2="0.453948" y2="6.375" gradientUnits="userSpaceOnUse">
<stop stop-color="#21CD85"/>
<stop offset="1" stop-color="#36A224"/>
</linearGradient>
<linearGradient id="paint6_linear_867_497" x1="34.3224" y1="4.17873" x2="1.86623" y2="26.2083" gradientUnits="userSpaceOnUse">
<stop stop-color="#21CD85"/>
<stop offset="1" stop-color="#36A224"/>
</linearGradient>
<linearGradient id="paint7_linear_867_497" x1="8.34868" y1="1.01645" x2="0.453948" y2="6.375" gradientUnits="userSpaceOnUse">
<stop stop-color="#21CD85"/>
<stop offset="1" stop-color="#36A224"/>
</linearGradient>
<linearGradient id="paint8_linear_867_497" x1="34.3224" y1="4.17873" x2="1.86623" y2="26.2083" gradientUnits="userSpaceOnUse">
<stop stop-color="#21CD85"/>
<stop offset="1" stop-color="#36A224"/>
</linearGradient>
<linearGradient id="paint9_linear_867_497" x1="8.34868" y1="1.01645" x2="0.453948" y2="6.375" gradientUnits="userSpaceOnUse">
<stop stop-color="#21CD85"/>
<stop offset="1" stop-color="#36A224"/>
</linearGradient>
<linearGradient id="paint10_linear_867_497" x1="34.3224" y1="4.17873" x2="1.86623" y2="26.2083" gradientUnits="userSpaceOnUse">
<stop stop-color="#21CD85"/>
<stop offset="1" stop-color="#36A224"/>
</linearGradient>
<linearGradient id="paint11_linear_867_497" x1="8.34868" y1="1.01645" x2="0.453948" y2="6.375" gradientUnits="userSpaceOnUse">
<stop stop-color="#21CD85"/>
<stop offset="1" stop-color="#36A224"/>
</linearGradient>
<linearGradient id="paint12_linear_867_497" x1="34.3224" y1="4.17873" x2="1.86623" y2="26.2083" gradientUnits="userSpaceOnUse">
<stop stop-color="#21CD85"/>
<stop offset="1" stop-color="#36A224"/>
</linearGradient>
<linearGradient id="paint13_linear_867_497" x1="8.34868" y1="1.01645" x2="0.453948" y2="6.375" gradientUnits="userSpaceOnUse">
<stop stop-color="#21CD85"/>
<stop offset="1" stop-color="#36A224"/>
</linearGradient>
</defs>
</svg>
