<svg width="515" height="61" viewBox="0 0 515 61" fill="none" xmlns="http://www.w3.org/2000/svg">
<path d="M94.5469 0.5H139.091C149.363 0.5 154.545 4.58952 154.545 12.8643V25.4083C154.545 32.8613 150.363 36.7712 142.274 37.7712L157.273 60.5H137.638L122.638 37.7712H112.728V60.5H94.5469V0.5ZM133.183 26.8618C135.273 26.8618 136.366 26.043 136.366 24.3171V13.9541C136.366 12.2267 135.274 11.4079 133.183 11.4079H112.728V26.8618H133.183Z" fill="white"/>
<path d="M175.455 0.5H193.636V60.4985H175.455V0.5Z" fill="white"/>
<path d="M235.273 29.9529L210.911 0.5H231.184L245.455 17.6813L259.726 0.5H279.999L255.637 29.9529L280.909 60.4985H260.636L245.455 42.2259L230.273 60.4985H210.001L235.273 29.9529Z" fill="white"/>
<path d="M297.272 0.5H355.452V11.4079H315.454V23.6809H350.908V34.5888H315.454V49.5891H355.452V60.4985H297.272V0.5Z" fill="white"/>
<path d="M374.544 49.5891H413.18C415.27 49.5891 416.361 48.7718 416.361 47.0444V37.1365C416.361 35.4091 415.27 34.5903 413.18 34.5903H389.999C379.728 34.5903 374.545 30.5007 374.545 22.2259V12.8643C374.545 4.59101 379.728 0.5 389.999 0.5H429.999V11.4079H395.909C393.819 11.4079 392.728 12.2267 392.728 13.9541V21.1347C392.728 22.8621 393.819 23.6809 395.909 23.6809H419.09C429.362 23.6809 434.544 27.7704 434.544 36.0437V48.1342C434.544 56.4075 429.362 60.4985 419.09 60.4985H374.545L374.544 49.5891Z" fill="white"/>
<path d="M454.545 49.5891H493.18C495.269 49.5891 496.364 48.7718 496.364 47.0444V37.1365C496.364 35.4091 495.271 34.5903 493.18 34.5903H469.999C459.729 34.5903 454.546 30.5007 454.546 22.2259V12.8643C454.546 4.59101 459.729 0.5 469.999 0.5H510V11.4079H475.909C473.819 11.4079 472.728 12.2267 472.728 13.9541V21.1347C472.728 22.8621 473.819 23.6809 475.909 23.6809H499.089C509.363 23.6809 514.543 27.7704 514.543 36.0437V48.1342C514.543 56.4075 509.363 60.4985 499.089 60.4985H454.546L454.545 49.5891Z" fill="white"/>
<path d="M52.7614 1.82617L43.1664 21.8067L51.4651 39.0854H34.8661L29.627 49.9947H56.7043L61.7488 60.4984H80.9434L52.7614 1.82617Z" fill="white"/>
<path d="M28.8167 0.5H48.0099L19.1932 60.4985H0L28.8167 0.5Z" fill="#F25A3D"/>
</svg>
