<svg width="58" height="28" viewBox="0 0 58 28" fill="none" xmlns="http://www.w3.org/2000/svg">
<path d="M11.4164 7.3892L12.6706 9.08787L19.0158 7.3892M4.82469 20.6108L8.25636 17.3707L6.19059 15.2301M10.8968 7.38873L9.06207 8.98613L12.1477 9.0972M3.77006 7.3892L4.42884 8.69307L8.06012 8.91147M5.70967 14.1493L8.39217 9.31747L0.601807 8.91147M6.02239 14.4555L8.55651 17.0837L11.3516 14.4377L12.2192 9.50973L8.81267 9.34173" fill="white"/>
<path d="M16.779 13.5861H16.0839L15.4749 17.2942C15.459 17.3913 15.3638 17.4706 15.2623 17.4706H13.8727C13.7721 17.4706 13.7035 17.3913 13.719 17.2942L14.5721 12.0937C14.7881 10.7786 15.4759 10.4869 16.4174 10.4869C16.7098 10.4869 17.0168 10.5135 17.256 10.5579C17.3623 10.5756 17.4348 10.6372 17.4189 10.7343L17.2811 11.5733C17.2652 11.6704 17.1714 11.7413 17.0617 11.7413H16.6779C16.4493 11.7413 16.371 11.8347 16.3275 12.0946L16.2889 12.3279H16.9839C17.0844 12.3279 17.1531 12.4073 17.1376 12.5053L16.9897 13.4059C16.9733 13.503 16.8785 13.5823 16.777 13.5823L16.779 13.5861ZM20.2474 13.6477H20.1198C19.7263 13.6477 19.343 13.7009 19.0352 13.8507L18.473 17.276C18.4571 17.3693 18.3682 17.4701 18.258 17.4701H16.8867C16.777 17.4701 16.7016 17.3731 16.7176 17.276L17.4996 12.509C17.5156 12.4157 17.5837 12.3317 17.7123 12.3317H19.0289C19.157 12.3317 19.2043 12.376 19.1826 12.509L19.1478 12.7209C19.6272 12.3009 19.9636 12.2617 20.4528 12.2617C20.6074 12.2617 20.6297 12.2971 20.6065 12.439L20.4296 13.5161C20.4127 13.622 20.3716 13.6486 20.2527 13.6486L20.2474 13.6477ZM24.8414 15.3781H21.998L21.9956 15.3958C21.9182 15.8639 22.0729 16.1551 22.7399 16.1551L24.4886 16.0841C24.6365 16.0748 24.6819 16.1014 24.6645 16.2335L24.534 17.0282C24.5108 17.1696 24.464 17.2312 24.3107 17.2755C23.695 17.4613 23.0541 17.5495 22.2817 17.5495C21.0473 17.5495 20.0076 16.9223 20.2841 15.2362L20.3798 14.6529C20.6345 13.0989 21.7061 12.2514 23.2054 12.2514C24.8004 12.2514 25.3804 13.2314 25.1522 14.6524L25.0652 15.1825C25.0459 15.2969 24.9507 15.3762 24.841 15.3762L24.8414 15.3781ZM23.5094 14.42C23.5964 13.8903 23.4291 13.5725 22.9719 13.5725C22.533 13.5725 22.2435 13.8908 22.1565 14.42L22.1517 14.4466H23.505L23.5094 14.42ZM29.9029 15.3823H27.0595L27.057 15.4C26.9797 15.8681 27.1344 16.1593 27.8014 16.1593L29.5501 16.0883C29.698 16.079 29.7434 16.1056 29.7265 16.2377L29.596 17.0324C29.5728 17.1738 29.5259 17.2354 29.3727 17.2797C28.7569 17.4655 28.116 17.5537 27.3437 17.5537C26.1092 17.5537 25.0696 16.9265 25.346 15.2404L25.4417 14.6571C25.6969 13.1031 26.7685 12.2556 28.2678 12.2556C29.8628 12.2556 30.4428 13.2356 30.2147 14.6566L30.1277 15.1867C30.1083 15.3011 30.0131 15.3804 29.9034 15.3804L29.9029 15.3823ZM28.565 14.42C28.652 13.8903 28.4848 13.5725 28.0276 13.5725C27.5887 13.5725 27.2987 13.8908 27.2122 14.42L27.2074 14.4466H28.5607L28.565 14.42ZM31.7536 17.4748H30.3775C30.3529 17.4737 30.3287 17.4677 30.3066 17.4571C30.2845 17.4466 30.2648 17.4317 30.249 17.4135C30.2331 17.3952 30.2213 17.374 30.2143 17.3512C30.2073 17.3283 30.2053 17.3043 30.2084 17.2807L31.2717 10.8267C31.2877 10.7296 31.4012 10.6503 31.5018 10.6503H32.8827C32.9832 10.6503 33.0518 10.7296 33.0364 10.8267L31.973 17.2807C31.9571 17.3777 31.859 17.4748 31.7584 17.4748H31.7536ZM36.613 17.4748H35.3419C35.2413 17.4748 35.1727 17.3955 35.1882 17.2984L35.2186 17.1131C34.8305 17.3605 34.3418 17.5546 33.8387 17.5546C33.1166 17.5546 32.3389 17.1663 32.5337 15.9745L32.5511 15.8685C32.7251 14.8092 33.6144 14.4293 35.1466 14.4293H35.54L35.5821 14.1736C35.6531 13.741 35.5192 13.6617 35.0625 13.6617L33.4612 13.7233C33.3046 13.7326 33.2717 13.6523 33.2891 13.5459L33.4341 12.6896C33.4559 12.5571 33.5366 12.5132 33.6516 12.4777C33.9677 12.3844 34.7744 12.2659 35.3597 12.2659C36.6855 12.2659 37.5792 12.7251 37.3414 14.1731L36.8349 17.2998C36.8189 17.3969 36.7237 17.4762 36.6222 17.4762L36.613 17.4748ZM35.4443 15.3468H34.9963C34.539 15.3468 34.3331 15.4882 34.2722 15.8587L34.2577 15.9521C34.2084 16.2526 34.4042 16.3408 34.6604 16.3408C34.8816 16.3358 35.1 16.2908 35.3042 16.2083L35.4492 15.3519L35.4443 15.3468ZM41.8934 17.4748H40.5227C40.413 17.4748 40.3376 17.3777 40.3535 17.2807L40.8446 14.2875C40.9219 13.8194 40.7905 13.6696 40.3787 13.6696C40.1684 13.6696 39.8953 13.7489 39.6633 13.8549L39.1017 17.276C39.0858 17.3731 38.9968 17.4701 38.8866 17.4701H37.5154C37.4057 17.4701 37.3303 17.3731 37.3462 17.276L38.1278 12.5085C38.1437 12.4115 38.239 12.3312 38.3405 12.3312H39.6116C39.7122 12.3312 39.7808 12.4105 39.7653 12.5085L39.7315 12.7115C40.2738 12.3583 40.8021 12.2612 41.3144 12.2612C42.7499 12.2612 42.7731 13.2319 42.601 14.2828L42.1129 17.2765C42.0969 17.3698 42.0075 17.4711 41.8978 17.4711L41.8934 17.4748ZM45.9496 17.4132C45.5312 17.5071 45.1031 17.5544 44.6736 17.5541C43.2743 17.5541 42.63 16.6889 42.8678 15.2409L42.9766 14.5782C43.2183 13.139 44.1438 12.2561 45.5383 12.2561C46.0777 12.2561 46.5218 12.3354 46.7679 12.397C46.8824 12.4236 46.939 12.4679 46.9201 12.5827L46.7567 13.5805C46.7393 13.6864 46.6717 13.7657 46.5373 13.7485L45.4962 13.6869C45.1033 13.6869 44.8355 13.9202 44.7229 14.5735L44.6141 15.2353C44.5068 15.8886 44.6982 16.1182 45.0912 16.1182C45.4454 16.1216 45.7996 16.1039 46.1516 16.065C46.2966 16.0477 46.3353 16.1182 46.3159 16.233L46.1535 17.2223C46.1342 17.3376 46.0632 17.381 45.9394 17.4081L45.9496 17.4132ZM51.316 15.3832H48.4726L48.4697 15.4009C48.3923 15.869 48.547 16.1602 49.214 16.1602L50.9627 16.0893C51.1106 16.0799 51.156 16.1065 51.1391 16.2386L51.0086 17.0333C50.9859 17.1747 50.939 17.2363 50.7853 17.2807C50.17 17.4664 49.5287 17.5546 48.7568 17.5546C47.5223 17.5546 46.4822 16.9274 46.7587 15.2413L46.8544 14.658C47.1091 13.104 48.1806 12.2565 49.6804 12.2565C51.2754 12.2565 51.8554 13.2365 51.6268 14.6575L51.5398 15.1877C51.5205 15.302 51.4253 15.3813 51.316 15.3813V15.3832ZM49.983 14.4209C50.07 13.8913 49.9028 13.5735 49.4455 13.5735C49.0067 13.5735 48.7171 13.8917 48.6301 14.4209L48.6253 14.4475H49.9786L49.983 14.4209ZM54.1909 12.3373L53.377 17.2816C53.361 17.3749 53.2721 17.4757 53.1619 17.4757H51.7907C51.6809 17.4757 51.6055 17.3787 51.6215 17.2816L52.1619 14.0149L54.1919 12.3419L54.1909 12.3373Z" fill="white"/>
<path d="M54.6636 12.3321L54.3833 14.0285L57.3993 12.3321" fill="white"/>
</svg>
