<svg width="52" height="17" viewBox="0 0 52 17" fill="none" xmlns="http://www.w3.org/2000/svg">
<g clip-path="url(#clip0_867_563)">
<path d="M22.1287 8.71805C22.1287 11.0777 20.2188 12.8165 17.875 12.8165C15.5312 12.8165 13.6213 11.0777 13.6213 8.71805C13.6213 6.34174 15.5312 4.61957 17.875 4.61957C20.2188 4.61957 22.1287 6.34174 22.1287 8.71805ZM20.2666 8.71805C20.2666 7.24348 19.1597 6.23457 17.875 6.23457C16.5903 6.23457 15.4834 7.24348 15.4834 8.71805C15.4834 10.1778 16.5903 11.2015 17.875 11.2015C19.1597 11.2015 20.2666 10.176 20.2666 8.71805Z" fill="#EA4335"/>
<path d="M31.3052 8.71805C31.3052 11.0777 29.3954 12.8165 27.0515 12.8165C24.7077 12.8165 22.7979 11.0777 22.7979 8.71805C22.7979 6.34359 24.7077 4.61957 27.0515 4.61957C29.3954 4.61957 31.3052 6.34174 31.3052 8.71805ZM29.4431 8.71805C29.4431 7.24348 28.3362 6.23457 27.0515 6.23457C25.7668 6.23457 24.6599 7.24348 24.6599 8.71805C24.6599 10.1778 25.7668 11.2015 27.0515 11.2015C28.3362 11.2015 29.4431 10.176 29.4431 8.71805Z" fill="#FBBC05"/>
<path d="M40.0993 4.86718V12.2252C40.0993 15.252 38.2525 16.4882 36.0693 16.4882C34.0141 16.4882 32.7772 15.1596 32.3108 14.073L33.9319 13.4208C34.2206 14.0878 34.928 14.875 36.0674 14.875C37.4649 14.875 38.3309 14.0416 38.3309 12.4728V11.8834H38.2659C37.8491 12.3804 37.0462 12.8147 36.033 12.8147C33.9128 12.8147 31.9705 11.0297 31.9705 8.73283C31.9705 6.41935 33.9128 4.61957 36.033 4.61957C37.0443 4.61957 37.8472 5.05381 38.2659 5.53609H38.3309V4.86902H40.0993V4.86718ZM38.4628 8.73283C38.4628 7.28968 37.4668 6.23457 36.1993 6.23457C34.9146 6.23457 33.8383 7.28968 33.8383 8.73283C33.8383 10.1612 34.9146 11.2015 36.1993 11.2015C37.4668 11.2015 38.4628 10.1612 38.4628 8.73283Z" fill="#4285F4"/>
<path d="M43.0147 0.554352V12.5652H41.1985V0.554352H43.0147Z" fill="#34A853"/>
<path d="M50.0921 10.0669L51.5374 10.9982C51.0709 11.6653 49.9468 12.8147 48.0044 12.8147C45.5956 12.8147 43.7966 11.0149 43.7966 8.71618C43.7966 6.2789 45.6109 4.61771 47.796 4.61771C49.9965 4.61771 51.0728 6.31031 51.4246 7.22499L51.6177 7.69064L45.9493 9.95977C46.3833 10.7821 47.0581 11.2015 48.0044 11.2015C48.9527 11.2015 49.6103 10.7506 50.0921 10.0669ZM45.6434 8.59238L49.4325 7.07162C49.2241 6.55977 48.5971 6.20314 47.8591 6.20314C46.9128 6.20314 45.5956 7.01064 45.6434 8.59238Z" fill="#EA4335"/>
<path d="M6.74664 7.65185V5.91305H12.8088C12.8681 6.21609 12.8987 6.57457 12.8987 6.96261C12.8987 8.26718 12.5297 9.88033 11.3406 11.0297C10.184 12.1938 8.7062 12.8147 6.74855 12.8147C3.12002 12.8147 0.0688477 9.95794 0.0688477 6.45077C0.0688477 2.94359 3.12002 0.086853 6.74855 0.086853C8.75591 0.086853 10.1859 0.848157 11.2603 1.84044L9.99091 3.0674C9.22046 2.36892 8.17664 1.82566 6.74664 1.82566C4.09694 1.82566 2.02458 3.88968 2.02458 6.45077C2.02458 9.01185 4.09694 11.0759 6.74664 11.0759C8.46532 11.0759 9.44414 10.4088 10.0712 9.80272C10.5797 9.3112 10.9143 8.60903 11.0462 7.65001L6.74664 7.65185Z" fill="#4285F4"/>
</g>
<defs>
<clipPath id="clip0_867_563">
<rect width="52" height="17" fill="white"/>
</clipPath>
</defs>
</svg>
