<svg width="57" height="8" viewBox="0 0 57 8" fill="none" xmlns="http://www.w3.org/2000/svg">
<path d="M3.496 2.80671C3.496 2.80671 3.021 2.76201 3.021 3.15531V4.9162H6.137V5.44358C6.137 5.44358 6.1465 5.70279 5.852 5.70279H3.021V7.99106H6.422C6.422 7.99106 8.4835 7.69609 8.5025 5.70279V2.80671H3.496ZM8.4075 0H2.2705C0.0475002 0.49162 0 2.20782 0 2.20782V8H2.356V2.72626C2.356 2.27933 2.831 2.19888 2.831 2.19888H8.398L8.4075 0ZM16.511 6.33743C16.3495 6.43576 16.226 6.5162 16.1405 6.5609C15.8365 6.73967 15.5515 6.87374 15.2855 6.98101C14.896 7.13296 14.554 7.20447 14.2405 7.20447C13.1765 7.20447 12.293 6.90056 11.59 6.2838C10.8775 5.66704 10.526 4.88939 10.526 3.95978C10.526 3.05698 10.8395 2.27933 11.4855 1.60894C12.122 0.947486 12.901 0.616759 13.813 0.616759C14.193 0.616759 14.6015 0.67933 15.0195 0.804469C15.5705 0.965363 16.0075 1.21564 16.3685 1.52849L15.7605 2.16313C15.504 1.92179 15.162 1.75196 14.7725 1.64469C14.478 1.56425 14.155 1.51955 13.794 1.51955C13.1575 1.51955 12.616 1.76089 12.179 2.24357C11.7515 2.7352 11.533 3.30726 11.533 3.98659C11.533 4.65698 11.78 5.21117 12.274 5.64916C12.768 6.08715 13.395 6.31061 14.155 6.31061C14.4685 6.31061 14.7915 6.21229 15.124 6.03352C15.3995 5.83687 15.542 5.73855 15.542 5.73855V4.34413H13.4805L13.775 3.4771H16.511V6.33743ZM22.7145 4.63911C22.7145 5.3095 22.458 5.8905 21.9545 6.38212C21.451 6.87374 20.824 7.12402 20.0735 7.12402C19.38 7.12402 18.7815 6.88268 18.259 6.4C17.7365 5.91732 17.48 5.33631 17.48 4.64804C17.48 3.96871 17.727 3.38771 18.221 2.88715C18.715 2.38659 19.323 2.14525 20.026 2.14525C20.8145 2.14525 21.451 2.38659 21.9545 2.86033C22.458 3.32514 22.7145 3.92402 22.7145 4.63911ZM21.755 4.65698C21.755 4.20112 21.5935 3.81676 21.2705 3.50391C20.9475 3.18212 20.5485 3.03017 20.064 3.03017C19.6175 3.03017 19.2375 3.19106 18.9145 3.52179C18.601 3.84358 18.4395 4.219 18.4395 4.63911C18.4395 5.0771 18.601 5.45251 18.9145 5.76536C19.228 6.07821 19.627 6.23911 20.102 6.23911C20.5485 6.23911 20.9285 6.08715 21.2515 5.7743C21.5935 5.45251 21.755 5.07709 21.755 4.65698ZM28.842 4.63911C28.842 5.3095 28.5855 5.8905 28.082 6.38212C27.5785 6.87374 26.9515 7.12402 26.201 7.12402C25.5075 7.12402 24.909 6.88268 24.3865 6.4C23.864 5.91732 23.6075 5.33631 23.6075 4.64804C23.6075 3.96871 23.8545 3.38771 24.3485 2.88715C24.8425 2.38659 25.4505 2.14525 26.1535 2.14525C26.942 2.14525 27.5785 2.38659 28.082 2.86033C28.5855 3.32514 28.842 3.92402 28.842 4.63911ZM27.873 4.65698C27.873 4.20112 27.7115 3.81676 27.3885 3.50391C27.0655 3.18212 26.6665 3.03017 26.182 3.03017C25.7355 3.03017 25.3555 3.19106 25.0325 3.52179C24.719 3.84358 24.5575 4.219 24.5575 4.63911C24.5575 5.0771 24.719 5.45251 25.0325 5.76536C25.346 6.07821 25.745 6.23911 26.22 6.23911C26.6665 6.23911 27.0465 6.08715 27.3695 5.7743C27.7115 5.45251 27.873 5.07709 27.873 4.65698ZM34.504 6.98994L33.6205 7.11508V6.31061L33.4305 6.5162C33.2595 6.66816 33.0695 6.78436 32.87 6.88268C32.566 7.01676 32.243 7.07933 31.9105 7.07933C31.217 7.07933 30.628 6.83799 30.153 6.36425C29.678 5.8905 29.431 5.3095 29.431 4.64804C29.431 3.95978 29.6685 3.36983 30.1435 2.88715C30.6185 2.39553 31.1885 2.15419 31.882 2.15419C32.281 2.15419 32.623 2.21676 32.908 2.33296C33.117 2.42235 33.288 2.53855 33.44 2.68156C33.4875 2.74413 33.535 2.8067 33.592 2.86927V0.750838L34.5325 0.625698L34.504 6.98994ZM33.6775 4.70168C33.6775 4.22793 33.5065 3.8257 33.1645 3.50391C32.8225 3.17318 32.433 3.01229 31.9865 3.01229C31.4925 3.01229 31.103 3.16425 30.799 3.4771C30.514 3.77207 30.3715 4.13855 30.3715 4.5676C30.3715 5.05028 30.5235 5.45251 30.818 5.76536C31.1125 6.07821 31.483 6.23017 31.9485 6.23017C32.395 6.23017 32.794 6.08715 33.1455 5.79218C33.497 5.49721 33.6775 5.13073 33.6775 4.70168ZM39.482 1.62682H36.841V3.3162H38.893V4.18324H36.841V6.98101L35.815 7.12402V0.750838H39.2825L39.482 1.62682ZM41.6005 1.1352L40.964 1.88603L40.356 1.1352L40.9925 0.393296L41.6005 1.1352ZM41.4105 6.98994L40.47 7.11508V2.39553L41.4105 2.26145V6.98994ZM45.6665 2.20782L45.22 3.17318C45.163 3.16424 45.106 3.16425 45.0395 3.16425C44.9445 3.16425 44.859 3.17318 44.764 3.18212C44.669 3.19106 44.574 3.22682 44.4695 3.28045C44.27 3.36089 44.099 3.53966 43.9565 3.79888C43.795 4.10279 43.7095 4.43352 43.7095 4.77319V6.98101L42.769 7.12402V2.39553L43.643 2.24357V3.22682C43.757 3.05698 43.871 2.88715 43.985 2.70838C44.1465 2.52961 44.3365 2.40447 44.5455 2.32402C44.6595 2.27933 44.859 2.25252 45.1725 2.2257C45.4765 2.20782 45.6475 2.19888 45.6665 2.20782ZM52.6965 6.98994L51.756 7.11508V3.87933C51.756 3.58436 51.6895 3.36089 51.547 3.22682C51.4045 3.09274 51.1955 3.02123 50.92 3.02123C50.5875 3.02123 50.3405 3.14637 50.1695 3.40559C50.0555 3.58436 49.989 3.77207 49.989 3.95978V6.97207L49.0485 7.13296V3.88827C49.0485 3.60223 48.982 3.38771 48.8395 3.23575C48.697 3.0838 48.5165 3.01229 48.279 3.01229H48.184C47.8515 3.01229 47.614 3.13743 47.462 3.40559C47.348 3.60223 47.291 3.85251 47.291 4.15642V6.96313L46.3125 7.12402V2.37765L47.196 2.23464V2.84246C47.291 2.69944 47.3955 2.58324 47.481 2.50279C47.7375 2.27933 48.032 2.17207 48.3645 2.17207C48.735 2.17207 49.0105 2.2257 49.2005 2.3419C49.362 2.44022 49.514 2.62793 49.6755 2.89609C49.9985 2.41341 50.4545 2.17207 51.0625 2.17207C51.642 2.17207 52.0695 2.3419 52.3545 2.6905C52.5825 2.97654 52.6965 3.39665 52.6965 3.9419V6.98994ZM57 5.55978C57 5.99777 56.8385 6.35531 56.5155 6.6324C56.1925 6.91844 55.784 7.05252 55.29 7.05252C54.9195 7.05252 54.587 6.97207 54.283 6.81117C53.979 6.65028 53.751 6.46257 53.6085 6.24805L54.2735 5.69386C54.321 5.76536 54.3685 5.81899 54.4065 5.85475C54.6535 6.09609 54.948 6.21229 55.29 6.21229C55.5275 6.21229 55.7175 6.14972 55.8505 6.03352C55.993 5.91732 56.0595 5.75642 56.0595 5.5419C56.0595 5.30056 55.898 5.13966 55.575 5.05028C54.9385 4.87151 54.587 4.76425 54.5395 4.74637C54.245 4.60335 54.036 4.4514 53.903 4.28157C53.751 4.08492 53.675 3.8257 53.675 3.49497C53.675 3.0838 53.8365 2.75307 54.15 2.47598C54.4635 2.20782 54.8435 2.07374 55.2805 2.07374C55.613 2.07374 55.917 2.14525 56.202 2.28827C56.487 2.43128 56.6865 2.58324 56.81 2.75307L56.2495 3.32514C56.164 3.24469 56.069 3.17319 55.974 3.11062C55.746 2.95866 55.5275 2.88715 55.328 2.88715C55.1285 2.88715 54.967 2.93184 54.8435 3.01229C54.6915 3.11061 54.6155 3.26257 54.6155 3.45922C54.6155 3.64693 54.682 3.78995 54.834 3.87933C54.9575 3.95084 55.2235 4.03128 55.651 4.12067C56.069 4.21899 56.4015 4.37989 56.6295 4.61229C56.8955 4.86257 57 5.16648 57 5.55978Z" fill="white"/>
</svg>
