<svg width="49" height="15" viewBox="0 0 49 15" fill="none" xmlns="http://www.w3.org/2000/svg">
<g clip-path="url(#clip0_861_255)">
<path fill-rule="evenodd" clip-rule="evenodd" d="M13.1802 14.1646H15.3803V0.399902H13.1802V14.1646ZM22.8151 9.8184C22.8151 11.921 21.0825 12.0877 20.5673 12.0877C19.2798 12.0877 19.045 10.8576 19.045 10.1166V4.8596H16.8909V10.1055C16.8909 11.4073 17.2916 12.4822 17.9946 13.199C18.6148 13.8319 19.5442 14.1788 20.5512 14.1788C21.2652 14.1788 22.2762 13.9515 22.8148 13.4501V14.1999H24.9689V4.8596H22.8148V9.8184H22.8151ZM29.2648 1.55872H27.1107V4.85654H25.4951V7.05457H27.1107V14.1999H29.2648V7.05457H30.8804V4.85654H29.2648V1.55872ZM37.6765 11.4031C37.2065 11.8332 36.5845 12.0728 35.9034 12.0728C34.4004 12.0728 33.2967 10.9492 33.2967 9.40594C33.2967 7.86264 34.3651 6.78815 35.9034 6.78815C36.5724 6.78815 37.2065 7.01547 37.6882 7.44557L38.0163 7.73269L39.4726 6.24995L39.1083 5.91492C38.2515 5.12602 37.1128 4.68365 35.9034 4.68365C33.2027 4.68365 31.2414 6.66817 31.2414 9.39444C31.2414 12.1081 33.2493 14.1646 35.9034 14.1646C37.1361 14.1646 38.2869 13.7223 39.1317 12.9211L39.4843 12.5872L38.0054 11.1045L37.6765 11.4031ZM47.1499 5.65617C46.5283 5.02214 45.7998 4.67445 44.792 4.67445C44.0759 4.67445 43.2653 4.90215 42.7261 5.4047V0.435169H40.5679V14.1999H42.7261V9.04368C42.7261 6.93689 44.1922 6.76899 44.7085 6.76899C45.9981 6.76899 45.9631 8.00255 45.9631 8.7443V14.1999H48.1209V8.75657C48.1209 7.45209 47.8533 6.37415 47.1499 5.65655V5.65617Z" fill="white"/>
<path fill-rule="evenodd" clip-rule="evenodd" d="M35.8228 7.84424C36.6844 7.84424 37.3826 8.55915 37.3826 9.44197C37.3826 10.3248 36.6844 11.0397 35.8228 11.0397C34.9612 11.0397 34.2629 10.3248 34.2629 9.44197C34.2629 8.55915 34.9612 7.84424 35.8228 7.84424Z" fill="#E62415"/>
<path fill-rule="evenodd" clip-rule="evenodd" d="M10.0985 10.7591C9.27918 11.6224 8.16674 12.0897 6.99559 12.0897C4.59424 12.0897 2.84955 10.1596 2.84955 7.51036C2.84955 4.84888 4.59424 2.9188 6.99559 2.9188C8.15032 2.91637 9.26 3.38961 10.0868 4.23708L10.4142 4.57288L11.8548 3.09858L11.5391 2.76278C10.3439 1.5043 8.72788 0.821198 6.99559 0.821198C3.45846 0.821198 0.800049 3.6985 0.800049 7.52225C0.800049 11.3345 3.47013 14.1999 6.99559 14.1999C8.74028 14.1999 10.3566 13.5042 11.5511 12.2457L11.8669 11.9099L10.4387 10.4118L10.0985 10.7591Z" fill="white"/>
</g>
<defs>
<clipPath id="clip0_861_255">
<rect width="47.4" height="13.8" fill="white" transform="translate(0.800049 0.399902)"/>
</clipPath>
</defs>
</svg>
