<svg width="124" height="36" viewBox="0 0 124 36" fill="none" xmlns="http://www.w3.org/2000/svg">
<g clip-path="url(#clip0_184_1665)">
<path fill-rule="evenodd" clip-rule="evenodd" d="M32.189 35.908H37.9093V0H32.189V35.908ZM57.2405 24.57C57.2405 30.055 52.7355 30.49 51.3959 30.49C48.0485 30.49 47.4379 27.281 47.4379 25.348V11.634H41.837V25.319C41.837 28.715 42.8789 31.519 44.7067 33.389C46.3193 35.04 48.7358 35.945 51.3542 35.945C53.2104 35.945 55.8393 35.352 57.2395 34.044V36H62.8405V11.634H57.2395V24.57H57.2405ZM74.0101 3.023H68.4092V11.626H64.2085V17.36H68.4092V36H74.0101V17.36H78.2108V11.626H74.0101V3.023ZM95.881 28.704C94.659 29.826 93.0416 30.451 91.2707 30.451C87.363 30.451 84.4933 27.52 84.4933 23.494C84.4933 19.468 87.271 16.665 91.2707 16.665C93.0104 16.665 94.659 17.258 95.9113 18.38L96.7645 19.129L100.551 15.261L99.6039 14.387C97.376 12.329 94.4153 11.175 91.2707 11.175C84.2487 11.175 79.1493 16.352 79.1493 23.464C79.1493 30.543 84.3701 35.908 91.2707 35.908C94.476 35.908 97.468 34.754 99.6645 32.664L100.581 31.793L96.7361 27.925L95.881 28.704ZM120.513 13.712C118.896 12.058 117.002 11.151 114.382 11.151C112.52 11.151 110.412 11.745 109.01 13.056V0.092H103.399V36H109.01V22.549C109.01 17.053 112.822 16.615 114.165 16.615C117.518 16.615 117.427 19.833 117.427 21.768V36H123.037V21.8C123.037 18.397 122.341 15.585 120.513 13.713V13.712Z" fill="#17313B"/>
<path fill-rule="evenodd" clip-rule="evenodd" d="M91.0615 19.4199C93.3017 19.4199 95.1171 21.2849 95.1171 23.5879C95.1171 25.8909 93.3017 27.7559 91.0615 27.7559C88.8213 27.7559 87.0059 25.8909 87.0059 23.5879C87.0059 21.2849 88.8213 19.4199 91.0615 19.4199Z" fill="#E62415"/>
<path fill-rule="evenodd" clip-rule="evenodd" d="M24.1765 27.0241C22.0463 29.2761 19.1539 30.4951 16.1088 30.4951C9.86513 30.4951 5.32884 25.4601 5.32884 18.5491C5.32884 11.6061 9.86513 6.57112 16.1088 6.57112C19.1112 6.56479 21.9964 7.79932 24.1462 10.0101L24.9975 10.8861L28.7431 7.04012L27.9221 6.16412C24.8145 2.88112 20.6129 1.09912 16.1088 1.09912C6.91204 1.09912 0 8.60512 0 18.5801C0 28.5251 6.94238 36.0001 16.1088 36.0001C20.6451 36.0001 24.8477 34.1851 27.9534 30.9021L28.7744 30.0261L25.061 26.1181L24.1765 27.0241Z" fill="#17313B"/>
</g>
<defs>
<clipPath id="clip0_184_1665">
<rect width="123.243" height="36" fill="white"/>
</clipPath>
</defs>
</svg>
