<svg width="136" height="54" viewBox="0 0 136 54" fill="none" xmlns="http://www.w3.org/2000/svg">
<path d="M78.9474 21.1045C78.4361 21.4328 78.0451 21.7015 77.7744 21.8508C76.812 22.4478 75.9098 22.8955 75.0677 23.2537C73.8346 23.7612 72.7519 24 71.7594 24C68.391 24 65.594 22.9851 63.3684 20.9254C61.1128 18.8657 60 16.2687 60 13.1642C60 10.1493 60.9925 7.55224 63.0376 5.31343C65.0526 3.10448 67.5188 2 70.406 2C71.609 2 72.9023 2.20896 74.2256 2.62687C75.9699 3.16418 77.3534 4 78.4962 5.04478L76.5714 7.16418C75.7594 6.35821 74.6767 5.79105 73.4436 5.43284C72.5113 5.16418 71.4887 5.01493 70.3459 5.01493C68.3308 5.01493 66.6165 5.82089 65.2331 7.43283C63.8797 9.07463 63.188 10.9851 63.188 13.2537C63.188 15.4925 63.9699 17.3433 65.5338 18.806C67.0977 20.2687 69.0827 21.0149 71.4887 21.0149C72.4812 21.0149 73.5038 20.6866 74.5564 20.0896C75.4286 19.4328 75.8797 19.1045 75.8797 19.1045V14.4478H69.3534L70.2857 11.5522H78.9474V21.1045ZM98.5865 15.4328C98.5865 17.6716 97.7744 19.6119 96.1805 21.2537C94.5865 22.8955 92.6015 23.7313 90.2256 23.7313C88.0301 23.7313 86.1353 22.9254 84.4812 21.3134C82.8271 19.7015 82.015 17.7612 82.015 15.4627C82.015 13.194 82.797 11.2537 84.3609 9.58209C85.9248 7.91045 87.8496 7.10448 90.0752 7.10448C92.5714 7.10448 94.5865 7.91045 96.1805 9.49254C97.7744 11.0448 98.5865 13.0448 98.5865 15.4328ZM95.5489 15.4925C95.5489 13.9701 95.0376 12.6866 94.015 11.6418C92.9925 10.5672 91.7293 10.0597 90.1955 10.0597C88.782 10.0597 87.579 10.597 86.5564 11.7015C85.5639 12.7761 85.0526 14.0299 85.0526 15.4328C85.0526 16.8955 85.5639 18.1493 86.5564 19.194C87.5489 20.2388 88.812 20.7761 90.3158 20.7761C91.7293 20.7761 92.9323 20.2687 93.9549 19.2239C95.0376 18.1493 95.5489 16.8955 95.5489 15.4925ZM117.985 15.4328C117.985 17.6716 117.173 19.6119 115.579 21.2537C113.985 22.8955 112 23.7313 109.624 23.7313C107.429 23.7313 105.534 22.9254 103.88 21.3134C102.226 19.7015 101.414 17.7612 101.414 15.4627C101.414 13.194 102.195 11.2537 103.759 9.58209C105.323 7.91045 107.248 7.10448 109.474 7.10448C111.97 7.10448 113.985 7.91045 115.579 9.49254C117.173 11.0448 117.985 13.0448 117.985 15.4328ZM114.917 15.4925C114.917 13.9701 114.406 12.6866 113.383 11.6418C112.361 10.5672 111.098 10.0597 109.564 10.0597C108.15 10.0597 106.947 10.597 105.925 11.7015C104.932 12.7761 104.421 14.0299 104.421 15.4328C104.421 16.8955 104.932 18.1493 105.925 19.194C106.917 20.2388 108.18 20.7761 109.684 20.7761C111.098 20.7761 112.301 20.2687 113.323 19.2239C114.406 18.1493 114.917 16.8955 114.917 15.4925ZM135.91 23.2836L133.113 23.7015V21.0149L132.511 21.7015C131.97 22.209 131.368 22.597 130.737 22.9254C129.774 23.3731 128.752 23.5821 127.699 23.5821C125.504 23.5821 123.639 22.7761 122.135 21.194C120.632 19.6119 119.85 17.6716 119.85 15.4627C119.85 13.1642 120.602 11.194 122.105 9.58209C123.609 7.9403 125.414 7.13433 127.609 7.13433C128.872 7.13433 129.955 7.34328 130.857 7.73134C131.519 8.02985 132.06 8.41791 132.541 8.89552C132.692 9.10448 132.842 9.31343 133.023 9.52239V2.44776L136 2.02985L135.91 23.2836ZM133.293 15.6418C133.293 14.0597 132.752 12.7164 131.669 11.6418C130.586 10.5373 129.353 10 127.94 10C126.376 10 125.143 10.5075 124.18 11.5522C123.278 12.5373 122.827 13.7612 122.827 15.194C122.827 16.806 123.308 18.1493 124.241 19.194C125.173 20.2388 126.346 20.7463 127.82 20.7463C129.233 20.7463 130.496 20.2687 131.609 19.2836C132.722 18.2985 133.293 17.0746 133.293 15.6418Z" fill="#3A7AF3"/>
<path d="M19.1866 21.2983C19.1866 18.6436 22.2034 18.9453 22.2034 18.9453H54V38.4939C53.8793 51.9486 40.7866 53.9397 40.7866 53.9397H19.1866V38.4939H37.1665C39.0369 38.4939 38.9765 36.7441 38.9765 36.7441V33.1844H19.1866V21.2983Z" fill="#3A7AF3"/>
<path d="M14.4201 0H53.3967L53.3363 14.8425H17.9799C17.9799 14.8425 14.9631 15.3855 14.9631 18.4022V54H0V14.9028C0 14.9028 0.301677 3.31844 14.4201 0Z" fill="#3A7AF3"/>
<path d="M65.5839 31.5756H74.809L74.1121 28.3263H62V51.9668L65.5839 51.4363V41.0584H72.7516V37.8422H65.5839V31.5756Z" fill="#3A7AF3"/>
<path d="M79.9856 32.5371L82.209 29.752L80.0852 27L77.8619 29.752L79.9856 32.5371Z" fill="#3A7AF3"/>
<path d="M78.2601 51.9337L81.5453 51.4695V33.9297L78.2601 34.4271V51.9337Z" fill="#3A7AF3"/>
<path d="M94.852 37.3117L96.4117 33.7308C96.3453 33.6976 95.748 33.7308 94.6861 33.7971C93.591 33.8966 92.8942 33.996 92.496 34.1618C91.7659 34.4602 91.1022 34.9244 90.5381 35.5875C90.14 36.2505 89.7419 36.8803 89.3438 37.51L89.3435 37.5106V33.8634L86.2906 34.4271V51.9668L89.5758 51.4363V43.2467C89.5758 41.9867 89.8744 40.7599 90.4386 39.6326C90.9363 38.6711 91.5336 38.008 92.2305 37.7095C92.5955 37.5106 92.9274 37.378 93.2592 37.3448C93.591 37.3117 93.8897 37.2785 94.2215 37.2785H94.2217C94.4539 37.2785 94.653 37.2785 94.852 37.3117Z" fill="#3A7AF3"/>
<path d="M117.683 51.9337L120.968 51.4695V40.1631C120.968 38.1406 120.569 36.5822 119.773 35.5212C118.778 34.2281 117.284 33.5981 115.26 33.5981C113.136 33.5981 111.543 34.4934 110.415 36.2838C109.851 35.2891 109.32 34.5928 108.756 34.2281C108.092 33.7971 107.13 33.5981 105.836 33.5981C104.674 33.5981 103.646 33.996 102.75 34.8249C102.451 35.1233 102.086 35.5544 101.754 36.0849V33.8302L98.6682 34.3607V51.9668L102.086 51.37V40.9589C102.086 39.8316 102.285 38.9032 102.683 38.1737C103.214 37.179 104.044 36.7149 105.205 36.7149H105.537C106.367 36.7149 106.997 36.9801 107.495 37.5438C107.993 38.1074 108.225 38.9032 108.225 39.9642V52L111.51 51.4032V40.2294C111.51 39.5332 111.743 38.8369 112.141 38.1737C112.738 37.2122 113.601 36.748 114.762 36.748C115.725 36.748 116.455 37.0133 116.952 37.5106C117.45 38.008 117.683 38.8369 117.683 39.931V51.9337Z" fill="#3A7AF3"/>
<path d="M134.308 50.1432C135.436 49.1154 136 47.7891 136 46.1645C136 44.7056 135.635 43.5782 134.706 42.6499C133.909 41.7878 132.748 41.191 131.288 40.8263C129.795 40.4947 128.865 40.1963 128.434 39.931C127.903 39.5995 127.671 39.069 127.671 38.3727C127.671 37.6432 127.936 37.0796 128.467 36.7149C128.899 36.4164 129.463 36.2507 130.16 36.2507C130.856 36.2507 131.62 36.5159 132.416 37.0796C132.748 37.3117 133.08 37.5769 133.378 37.8753L135.336 35.7533C134.905 35.1233 134.208 34.5597 133.213 34.0292C132.217 33.4987 131.155 33.2334 129.994 33.2334C128.467 33.2334 127.14 33.7308 126.045 34.7255C124.95 35.7533 124.386 36.9801 124.386 38.5053C124.386 39.7321 124.651 40.6936 125.182 41.4231C125.647 42.0531 126.377 42.6167 127.405 43.1472C127.571 43.2135 128.799 43.6114 131.022 44.2745C132.151 44.6061 132.715 45.2029 132.715 46.0981C132.715 46.8939 132.482 47.4907 131.985 47.9217C131.52 48.3528 130.856 48.5849 130.027 48.5849C128.832 48.5849 127.804 48.1538 126.941 47.2586C126.808 47.126 126.642 46.9271 126.476 46.6618L124.153 48.7175C124.651 49.5133 125.448 50.2095 126.509 50.8064C127.571 51.4032 128.733 51.7016 130.027 51.7016C131.752 51.7016 133.179 51.2042 134.308 50.1432Z" fill="#3A7AF3"/>
</svg>
