<svg width="163" height="40" viewBox="0 0 163 40" fill="none" xmlns="http://www.w3.org/2000/svg">
<path d="M31.0362 0.00138633L34.6357 5.0504L52.8454 0.00138633M12.119 39.3005L21.9674 29.6699L16.0389 23.3073M29.5451 0L24.2797 4.74802L33.1348 5.07814M9.09239 0.00138633L10.983 3.87692L21.4042 4.52608M14.6588 20.0948L22.3571 5.73285L0 4.52608M15.5562 21.0047L22.8288 28.8168L30.8503 20.952L33.3401 6.30433L23.5639 5.80498" fill="#29B2FE"/>
<path d="M46.4261 18.4207H44.4315L42.6837 29.4425C42.638 29.731 42.3647 29.9668 42.0734 29.9668H38.0855C37.797 29.9668 37.6 29.731 37.6444 29.4425L40.0926 13.9847C40.7127 10.0759 42.6865 9.20898 45.3886 9.20898C46.2277 9.20898 47.1086 9.28805 47.7952 9.41982C48.1003 9.47253 48.3084 9.65563 48.2626 9.94414L47.8673 12.4381C47.8215 12.7266 47.5524 12.9375 47.2376 12.9375H46.1362C45.4801 12.9375 45.2554 13.2149 45.1306 13.9875L45.0196 14.6811H47.0142C47.3027 14.6811 47.4997 14.9169 47.4553 15.2082L47.0309 17.8852C46.9837 18.1738 46.7118 18.4096 46.4206 18.4096L46.4261 18.4207ZM56.3799 18.6038H56.0137C54.8846 18.6038 53.7846 18.7619 52.901 19.2071L51.2879 29.3884C51.2421 29.6658 50.9869 29.9654 50.6706 29.9654H46.7354C46.4206 29.9654 46.2042 29.6769 46.2499 29.3884L48.4943 15.2193C48.54 14.9418 48.7356 14.6922 49.1046 14.6922H52.883C53.2506 14.6922 53.3865 14.8239 53.3241 15.2193L53.2242 15.849C54.6002 14.6006 55.5657 14.4841 56.9694 14.4841C57.4133 14.4841 57.4771 14.5895 57.4105 15.0112L56.9028 18.2126C56.8543 18.5275 56.7364 18.6065 56.3951 18.6065L56.3799 18.6038ZM69.5642 23.7471H61.4039L61.397 23.7998C61.175 25.1911 61.6189 26.0566 63.5331 26.0566L68.5516 25.8458C68.9761 25.818 69.1064 25.8971 69.0565 26.2896L68.682 28.6518C68.6154 29.0721 68.4809 29.2552 68.0412 29.387C66.274 29.9391 64.4347 30.2012 62.2181 30.2012C58.6755 30.2012 55.6919 28.337 56.4853 23.3254L56.7599 21.5916C57.4909 16.9725 60.5661 14.4536 64.8689 14.4536C69.4463 14.4536 71.1108 17.3665 70.4561 21.5902L70.2064 23.1659C70.1509 23.5057 69.8777 23.7415 69.5628 23.7415L69.5642 23.7471ZM65.7414 20.8994C65.991 19.325 65.5111 18.3804 64.1989 18.3804C62.9394 18.3804 62.1086 19.3264 61.8589 20.8994L61.845 20.9785H65.7289L65.7414 20.8994ZM84.0898 23.7596H75.9295L75.9226 23.8123C75.7007 25.2035 76.1445 26.0691 78.0587 26.0691L83.0772 25.8582C83.5017 25.8305 83.6321 25.9096 83.5835 26.3021L83.209 28.6643C83.1424 29.0846 83.0079 29.2677 82.5682 29.3995C80.801 29.9516 78.9617 30.2137 76.7452 30.2137C73.2025 30.2137 70.2189 28.3495 71.0123 23.3379L71.2869 21.604C72.0193 16.985 75.0945 14.4661 79.3973 14.4661C83.9747 14.4661 85.6392 17.379 84.9845 21.6026L84.7348 23.1784C84.6793 23.5182 84.4061 23.754 84.0912 23.754L84.0898 23.7596ZM80.2503 20.8994C80.5 19.325 80.0201 18.3804 78.7079 18.3804C77.4484 18.3804 76.6162 19.3264 76.3679 20.8994L76.354 20.9785H80.2378L80.2503 20.8994ZM89.401 29.9793H85.4519C85.3812 29.976 85.3119 29.9581 85.2483 29.9268C85.1848 29.8954 85.1285 29.8512 85.0829 29.797C85.0373 29.7428 85.0034 29.6798 84.9834 29.6118C84.9633 29.5439 84.9576 29.4725 84.9664 29.4023L88.018 10.2188C88.0638 9.93027 88.3898 9.69447 88.6783 9.69447H92.6412C92.9297 9.69447 93.1267 9.93027 93.0823 10.2188L90.0307 29.4023C89.9849 29.6908 89.7034 29.9793 89.4149 29.9793H89.401ZM103.347 29.9793H99.6988C99.4102 29.9793 99.2133 29.7435 99.2577 29.455L99.345 28.9043C98.2312 29.6395 96.8289 30.2165 95.3849 30.2165C93.3126 30.2165 91.0807 29.0624 91.6397 25.5198L91.6897 25.2049C92.189 22.0562 94.7413 20.9271 99.1384 20.9271H100.267L100.388 20.167C100.592 18.8812 100.208 18.6454 98.897 18.6454L94.3016 18.8285C93.8522 18.8562 93.7578 18.6176 93.8078 18.3014L94.2239 15.7561C94.2863 15.3621 94.518 15.2317 94.8481 15.1263C95.7552 14.8489 98.0703 14.4966 99.7501 14.4966C103.555 14.4966 106.12 15.8615 105.437 20.1656L103.983 29.4591C103.938 29.7476 103.664 29.9835 103.373 29.9835L103.347 29.9793ZM99.9928 23.6542H98.707C97.3948 23.6542 96.8039 24.0744 96.6291 25.1758L96.5875 25.4532C96.446 26.3465 97.0078 26.6087 97.7429 26.6087C98.378 26.5938 99.0047 26.4602 99.5906 26.2147L100.007 23.6694L99.9928 23.6542ZM118.501 29.9793H114.567C114.252 29.9793 114.036 29.6908 114.081 29.4023L115.491 20.5055C115.713 19.1142 115.335 18.6689 114.154 18.6689C113.55 18.6689 112.767 18.9048 112.101 19.2196L110.489 29.3884C110.443 29.6769 110.188 29.9654 109.872 29.9654H105.936C105.622 29.9654 105.405 29.6769 105.451 29.3884L107.694 15.2179C107.74 14.9294 108.013 14.6908 108.304 14.6908H111.952C112.241 14.6908 112.438 14.9266 112.393 15.2179L112.296 15.8212C113.853 14.7712 115.369 14.4827 116.839 14.4827C120.959 14.4827 121.025 17.3679 120.531 20.4916L119.131 29.3898C119.085 29.6672 118.828 29.9682 118.513 29.9682L118.501 29.9793ZM130.141 29.7962C128.941 30.0753 127.712 30.2158 126.479 30.2151C122.464 30.2151 120.615 27.6434 121.297 23.3393L121.609 21.3696C122.303 17.0918 124.959 14.4674 128.961 14.4674C130.509 14.4674 131.784 14.7033 132.49 14.8864C132.818 14.9654 132.981 15.0972 132.927 15.4384L132.458 18.404C132.408 18.7189 132.214 18.9547 131.828 18.9034L128.84 18.7203C127.712 18.7203 126.944 19.4138 126.621 21.3557L126.309 23.3226C126.001 25.2646 126.55 25.947 127.678 25.947C128.694 25.9572 129.711 25.9044 130.721 25.7889C131.137 25.7376 131.248 25.947 131.193 26.2882L130.727 29.2289C130.671 29.5715 130.467 29.7005 130.112 29.7809L130.141 29.7962ZM145.542 23.7623H137.382L137.374 23.8151C137.152 25.2063 137.595 26.0719 139.51 26.0719L144.528 25.861C144.953 25.8333 145.083 25.9123 145.034 26.3049L144.66 28.6671C144.595 29.0874 144.46 29.2705 144.019 29.4023C142.253 29.9543 140.413 30.2165 138.197 30.2165C134.655 30.2165 131.67 28.3522 132.463 23.3407L132.738 21.6068C133.469 16.9878 136.544 14.4688 140.848 14.4688C145.426 14.4688 147.09 17.3817 146.434 21.6054L146.184 23.1812C146.129 23.521 145.856 23.7568 145.542 23.7568V23.7623ZM141.717 20.9022C141.966 19.3278 141.486 18.3832 140.174 18.3832C138.915 18.3832 138.084 19.3292 137.834 20.9022L137.82 20.9812H141.704L141.717 20.9022ZM153.793 14.7088L151.457 29.405C151.411 29.6825 151.156 29.9821 150.839 29.9821H146.904C146.589 29.9821 146.373 29.6936 146.419 29.405L147.97 19.6954L153.795 14.7227L153.793 14.7088Z" fill="#29B2FE"/>
<path d="M155.149 14.6934L154.345 19.7354L163 14.6934" fill="#29B2FE"/>
</svg>
