<svg width="152" height="51" viewBox="0 0 152 51" fill="none" xmlns="http://www.w3.org/2000/svg">
<path d="M64.6841 26.1541C64.6841 33.2331 59.1014 38.4495 52.2502 38.4495C45.3991 38.4495 39.8164 33.2331 39.8164 26.1541C39.8164 19.0252 45.3991 13.8586 52.2502 13.8586C59.1014 13.8586 64.6841 19.0252 64.6841 26.1541ZM59.2411 26.1541C59.2411 21.7304 56.0055 18.7036 52.2502 18.7036C48.4949 18.7036 45.2593 21.7304 45.2593 26.1541C45.2593 30.5334 48.4949 33.6045 52.2502 33.6045C56.0055 33.6045 59.2411 30.5279 59.2411 26.1541Z" fill="#EA4335"/>
<path d="M91.5073 26.1541C91.5073 33.2331 85.9246 38.4495 79.0735 38.4495C72.2223 38.4495 66.6396 33.2331 66.6396 26.1541C66.6396 19.0307 72.2223 13.8586 79.0735 13.8586C85.9246 13.8586 91.5073 19.0252 91.5073 26.1541ZM86.0644 26.1541C86.0644 21.7304 82.8288 18.7036 79.0735 18.7036C75.3182 18.7036 72.0826 21.7304 72.0826 26.1541C72.0826 30.5334 75.3182 33.6045 79.0735 33.6045C82.8288 33.6045 86.0644 30.5279 86.0644 26.1541Z" fill="#FBBC05"/>
<path d="M117.213 14.6015V36.6756C117.213 45.7558 111.815 49.4644 105.433 49.4644C99.426 49.4644 95.8104 45.4786 94.4469 42.2191L99.1857 40.2622C100.03 42.2634 102.097 44.6249 105.428 44.6249C109.513 44.6249 112.044 42.1248 112.044 37.4184V35.6501H111.854C110.636 37.1412 108.289 38.444 105.327 38.444C99.1298 38.444 93.4521 33.089 93.4521 26.1984C93.4521 19.258 99.1298 13.8586 105.327 13.8586C108.283 13.8586 110.63 15.1614 111.854 16.6082H112.044V14.607H117.213V14.6015ZM112.43 26.1984C112.43 21.869 109.518 18.7036 105.813 18.7036C102.058 18.7036 98.9119 21.869 98.9119 26.1984C98.9119 30.4835 102.058 33.6045 105.813 33.6045C109.518 33.6045 112.43 30.4835 112.43 26.1984Z" fill="#4285F4"/>
<path d="M125.735 1.66309V37.6957H120.426V1.66309H125.735Z" fill="#34A853"/>
<path d="M146.423 30.201L150.648 32.9949C149.284 34.9961 145.998 38.4441 140.321 38.4441C133.28 38.4441 128.021 33.0448 128.021 26.1487C128.021 18.8369 133.324 13.8533 139.712 13.8533C146.144 13.8533 149.29 18.9311 150.318 21.6751L150.882 23.0721L134.313 29.8795C135.582 32.3463 137.555 33.6047 140.321 33.6047C143.092 33.6047 145.015 32.2521 146.423 30.201ZM133.419 25.7773L144.495 21.215C143.886 19.6795 142.053 18.6096 139.896 18.6096C137.13 18.6096 133.28 21.0321 133.419 25.7773Z" fill="#EA4335"/>
<path d="M19.7209 22.9555V17.7391H37.4412C37.6144 18.6482 37.7038 19.7236 37.7038 20.8878C37.7038 24.8015 36.6253 29.6409 33.1494 33.089C29.7685 36.5814 25.4488 38.444 19.7265 38.444C9.11999 38.444 0.201172 29.8738 0.201172 19.3522C0.201172 8.83071 9.11999 0.260498 19.7265 0.260498C25.5941 0.260498 29.7741 2.54441 32.9147 5.52126L29.2041 9.20213C26.9521 7.10669 23.9009 5.47691 19.7209 5.47691C11.9756 5.47691 5.91794 11.669 5.91794 19.3522C5.91794 27.0355 11.9756 33.2276 19.7209 33.2276C24.7447 33.2276 27.6059 31.2264 29.4388 29.4081C30.9253 27.9335 31.9032 25.827 32.2888 22.95L19.7209 22.9555Z" fill="#4285F4"/>
</svg>
